<svg xmlns="http://www.w3.org/2000/svg" xmlns:xlink="http://www.w3.org/1999/xlink" width="600" zoomAndPan="magnify" viewBox="0 0 450 449.999984" height="600" preserveAspectRatio="xMidYMid meet" version="1.0"><defs><clipPath id="30ecfe0a57"><path d="M 7.652344 7.652344 L 442.652344 7.652344 L 442.652344 442.652344 L 7.652344 442.652344 Z M 7.652344 7.652344 " clip-rule="nonzero"/></clipPath></defs><path fill="#ffffff" d="M 254.242188 219.441406 C 252.964844 219.066406 251.671875 218.78125 250.355469 218.589844 C 249.042969 218.394531 247.71875 218.292969 246.390625 218.285156 C 245.0625 218.277344 243.738281 218.363281 242.421875 218.539062 C 241.105469 218.714844 239.804688 218.984375 238.523438 219.34375 C 237.246094 219.703125 235.996094 220.148438 234.78125 220.683594 C 233.5625 221.214844 232.386719 221.832031 231.257812 222.53125 C 230.125 223.226562 229.050781 224 228.027344 224.851562 C 227.003906 225.699219 226.046875 226.613281 225.152344 227.597656 C 224.257812 226.613281 223.296875 225.699219 222.273438 224.851562 C 221.253906 224 220.175781 223.226562 219.042969 222.53125 C 217.914062 221.832031 216.738281 221.214844 215.523438 220.683594 C 214.304688 220.148438 213.054688 219.703125 211.777344 219.34375 C 210.496094 218.984375 209.199219 218.714844 207.882812 218.539062 C 206.5625 218.363281 205.242188 218.277344 203.910156 218.285156 C 202.582031 218.292969 201.261719 218.394531 199.945312 218.589844 C 198.628906 218.78125 197.335938 219.066406 196.058594 219.441406 C 166.96875 230.996094 169.960938 268.3125 215.976562 296.179688 C 217.355469 297.027344 218.824219 297.675781 220.382812 298.117188 C 221.941406 298.558594 223.53125 298.777344 225.152344 298.777344 C 226.773438 298.777344 228.359375 298.558594 229.917969 298.117188 C 231.480469 297.675781 232.949219 297.027344 234.328125 296.179688 C 280.339844 268.3125 283.332031 230.996094 254.242188 219.441406 Z M 229.230469 287.953125 C 228.617188 288.335938 227.964844 288.628906 227.273438 288.828125 C 226.578125 289.027344 225.871094 289.125 225.152344 289.125 C 224.429688 289.125 223.722656 289.027344 223.03125 288.828125 C 222.335938 288.628906 221.683594 288.335938 221.074219 287.953125 C 188.039062 267.5625 186.339844 249.824219 187.222656 243.164062 C 187.332031 242.136719 187.535156 241.128906 187.828125 240.140625 C 188.121094 239.152344 188.503906 238.195312 188.96875 237.277344 C 189.4375 236.355469 189.984375 235.488281 190.609375 234.667969 C 191.238281 233.847656 191.933594 233.089844 192.695312 232.398438 C 193.460938 231.703125 194.28125 231.085938 195.160156 230.542969 C 196.035156 230 196.957031 229.542969 197.917969 229.167969 C 198.878906 228.792969 199.863281 228.507812 200.878906 228.3125 C 201.890625 228.117188 202.914062 228.015625 203.945312 228.003906 C 205.410156 228.054688 206.855469 228.253906 208.277344 228.609375 C 209.703125 228.964844 211.074219 229.464844 212.390625 230.105469 C 213.710938 230.75 214.945312 231.527344 216.097656 232.433594 C 217.253906 233.339844 218.300781 234.355469 219.238281 235.480469 C 219.625 235.871094 220.046875 236.214844 220.503906 236.519531 C 220.960938 236.824219 221.445312 237.082031 221.953125 237.292969 C 222.457031 237.503906 222.980469 237.660156 223.519531 237.769531 C 224.058594 237.875 224.601562 237.929688 225.152344 237.929688 C 225.699219 237.929688 226.242188 237.875 226.78125 237.769531 C 227.320312 237.660156 227.84375 237.503906 228.351562 237.292969 C 228.859375 237.082031 229.339844 236.824219 229.796875 236.519531 C 230.253906 236.214844 230.675781 235.871094 231.0625 235.480469 C 231.648438 234.738281 232.28125 234.042969 232.964844 233.394531 C 233.648438 232.746094 234.378906 232.148438 235.148438 231.605469 C 235.921875 231.0625 236.730469 230.578125 237.570312 230.152344 C 238.414062 229.730469 239.285156 229.367188 240.179688 229.070312 C 241.074219 228.773438 241.988281 228.542969 242.917969 228.378906 C 243.847656 228.214844 244.78125 228.121094 245.726562 228.09375 C 246.667969 228.066406 247.609375 228.105469 248.546875 228.21875 C 249.484375 228.328125 250.40625 228.507812 251.320312 228.753906 C 272.117188 237.386719 266.746094 265.117188 229.230469 287.953125 Z M 229.230469 287.953125 " fill-opacity="1" fill-rule="nonzero"/><path fill="#ffffff" d="M 184.640625 182.125 L 184.640625 139.304688 C 187.222656 85.066406 263.824219 85.882812 265.660156 140.664062 L 265.660156 155.824219 L 194.359375 155.824219 L 194.359375 182.125 C 194.355469 182.441406 194.320312 182.753906 194.253906 183.0625 C 194.183594 183.371094 194.089844 183.667969 193.964844 183.957031 C 193.839844 184.246094 193.6875 184.523438 193.511719 184.78125 C 193.332031 185.042969 193.128906 185.28125 192.90625 185.503906 C 192.679688 185.722656 192.4375 185.921875 192.171875 186.09375 C 191.910156 186.269531 191.632812 186.414062 191.339844 186.535156 C 191.046875 186.652344 190.746094 186.742188 190.4375 186.804688 C 190.128906 186.863281 189.816406 186.894531 189.5 186.894531 C 189.1875 186.894531 188.875 186.863281 188.566406 186.804688 C 188.253906 186.742188 187.953125 186.652344 187.664062 186.535156 C 187.371094 186.414062 187.09375 186.269531 186.828125 186.09375 C 186.566406 185.921875 186.324219 185.722656 186.097656 185.503906 C 185.871094 185.28125 185.671875 185.042969 185.492188 184.78125 C 185.3125 184.523438 185.164062 184.246094 185.039062 183.957031 C 184.914062 183.667969 184.816406 183.371094 184.75 183.0625 C 184.683594 182.753906 184.648438 182.441406 184.640625 182.125 Z M 184.640625 182.125 " fill-opacity="1" fill-rule="nonzero"/><g clip-path="url(#30ecfe0a57)"><path fill="#ffffff" d="M 225.152344 7.652344 C 221.589844 7.652344 218.035156 7.738281 214.480469 7.914062 C 210.921875 8.085938 207.375 8.347656 203.832031 8.699219 C 200.289062 9.046875 196.757812 9.484375 193.238281 10.003906 C 189.714844 10.527344 186.210938 11.136719 182.71875 11.832031 C 179.226562 12.523438 175.753906 13.304688 172.304688 14.167969 C 168.851562 15.035156 165.421875 15.984375 162.015625 17.015625 C 158.609375 18.050781 155.230469 19.164062 151.878906 20.363281 C 148.527344 21.5625 145.207031 22.84375 141.917969 24.207031 C 138.628906 25.570312 135.375 27.011719 132.15625 28.535156 C 128.941406 30.054688 125.761719 31.65625 122.621094 33.332031 C 119.484375 35.011719 116.386719 36.765625 113.332031 38.59375 C 110.28125 40.425781 107.273438 42.328125 104.316406 44.304688 C 101.355469 46.285156 98.445312 48.332031 95.585938 50.453125 C 92.726562 52.574219 89.921875 54.761719 87.171875 57.019531 C 84.417969 59.28125 81.722656 61.605469 79.085938 63.992188 C 76.449219 66.382812 73.871094 68.839844 71.355469 71.355469 C 68.839844 73.871094 66.382812 76.449219 63.992188 79.085938 C 61.605469 81.722656 59.28125 84.417969 57.019531 87.171875 C 54.761719 89.921875 52.574219 92.726562 50.453125 95.585938 C 48.332031 98.445312 46.285156 101.355469 44.304688 104.316406 C 42.328125 107.273438 40.425781 110.28125 38.59375 113.332031 C 36.765625 116.386719 35.011719 119.484375 33.332031 122.621094 C 31.65625 125.761719 30.054688 128.941406 28.535156 132.15625 C 27.011719 135.375 25.570312 138.628906 24.207031 141.917969 C 22.84375 145.207031 21.5625 148.527344 20.363281 151.878906 C 19.164062 155.230469 18.050781 158.609375 17.015625 162.015625 C 15.984375 165.421875 15.035156 168.851562 14.167969 172.304688 C 13.304688 175.753906 12.523438 179.226562 11.832031 182.71875 C 11.136719 186.210938 10.527344 189.714844 10.003906 193.238281 C 9.484375 196.757812 9.046875 200.289062 8.699219 203.832031 C 8.347656 207.375 8.085938 210.921875 7.914062 214.480469 C 7.738281 218.035156 7.652344 221.589844 7.652344 225.152344 C 7.652344 228.710938 7.738281 232.269531 7.914062 235.824219 C 8.085938 239.378906 8.347656 242.925781 8.699219 246.46875 C 9.046875 250.011719 9.484375 253.542969 10.003906 257.066406 C 10.527344 260.585938 11.136719 264.09375 11.832031 267.582031 C 12.523438 271.074219 13.304688 274.546875 14.167969 278 C 15.035156 281.453125 15.984375 284.882812 17.015625 288.289062 C 18.050781 291.695312 19.164062 295.074219 20.363281 298.425781 C 21.5625 301.777344 22.84375 305.097656 24.207031 308.382812 C 25.570312 311.671875 27.011719 314.925781 28.535156 318.144531 C 30.054688 321.363281 31.65625 324.539062 33.332031 327.679688 C 35.011719 330.820312 36.765625 333.914062 38.59375 336.96875 C 40.425781 340.019531 42.328125 343.027344 44.304688 345.988281 C 46.285156 348.945312 48.332031 351.855469 50.453125 354.714844 C 52.574219 357.574219 54.761719 360.378906 57.019531 363.132812 C 59.28125 365.882812 61.605469 368.578125 63.996094 371.214844 C 66.382812 373.851562 68.839844 376.429688 71.355469 378.945312 C 73.871094 381.464844 76.449219 383.917969 79.085938 386.308594 C 81.722656 388.699219 84.417969 391.023438 87.171875 393.28125 C 89.921875 395.539062 92.726562 397.726562 95.585938 399.847656 C 98.445312 401.96875 101.355469 404.019531 104.316406 405.996094 C 107.273438 407.972656 110.28125 409.878906 113.332031 411.707031 C 116.386719 413.535156 119.484375 415.289062 122.621094 416.96875 C 125.761719 418.648438 128.941406 420.246094 132.15625 421.769531 C 135.375 423.289062 138.628906 424.734375 141.917969 426.09375 C 145.207031 427.457031 148.527344 428.738281 151.878906 429.9375 C 155.230469 431.136719 158.609375 432.253906 162.015625 433.285156 C 165.421875 434.320312 168.851562 435.269531 172.304688 436.132812 C 175.753906 436.996094 179.226562 437.777344 182.71875 438.472656 C 186.210938 439.167969 189.714844 439.773438 193.238281 440.296875 C 196.757812 440.820312 200.289062 441.253906 203.832031 441.605469 C 207.375 441.953125 210.921875 442.214844 214.480469 442.390625 C 218.035156 442.5625 221.589844 442.652344 225.152344 442.652344 C 228.710938 442.652344 232.269531 442.5625 235.824219 442.390625 C 239.378906 442.214844 242.925781 441.953125 246.46875 441.605469 C 250.011719 441.253906 253.542969 440.820312 257.066406 440.296875 C 260.585938 439.773438 264.09375 439.167969 267.582031 438.472656 C 271.074219 437.777344 274.546875 436.996094 278 436.132812 C 281.453125 435.269531 284.882812 434.320312 288.289062 433.285156 C 291.695312 432.253906 295.074219 431.136719 298.425781 429.9375 C 301.777344 428.738281 305.097656 427.457031 308.382812 426.09375 C 311.671875 424.734375 314.925781 423.289062 318.144531 421.769531 C 321.363281 420.246094 324.539062 418.648438 327.679688 416.96875 C 330.820312 415.289062 333.914062 413.535156 336.96875 411.707031 C 340.019531 409.878906 343.027344 407.972656 345.988281 405.996094 C 348.945312 404.019531 351.855469 401.96875 354.714844 399.847656 C 357.574219 397.726562 360.378906 395.539062 363.132812 393.28125 C 365.882812 391.023438 368.578125 388.699219 371.214844 386.308594 C 373.851562 383.917969 376.429688 381.464844 378.945312 378.945312 C 381.464844 376.429688 383.917969 373.851562 386.308594 371.214844 C 388.699219 368.578125 391.023438 365.882812 393.28125 363.132812 C 395.539062 360.378906 397.726562 357.574219 399.847656 354.714844 C 401.96875 351.855469 404.019531 348.945312 405.996094 345.988281 C 407.972656 343.027344 409.878906 340.019531 411.707031 336.96875 C 413.535156 333.914062 415.289062 330.820312 416.96875 327.679688 C 418.648438 324.539062 420.246094 321.363281 421.769531 318.144531 C 423.289062 314.925781 424.734375 311.671875 426.09375 308.382812 C 427.457031 305.097656 428.738281 301.777344 429.9375 298.425781 C 431.136719 295.074219 432.253906 291.695312 433.285156 288.289062 C 434.320312 284.882812 435.269531 281.453125 436.132812 278 C 436.996094 274.546875 437.777344 271.074219 438.472656 267.582031 C 439.167969 264.09375 439.773438 260.585938 440.296875 257.066406 C 440.820312 253.542969 441.253906 250.011719 441.605469 246.46875 C 441.953125 242.925781 442.214844 239.378906 442.390625 235.824219 C 442.5625 232.269531 442.652344 228.710938 442.652344 225.152344 C 442.648438 221.589844 442.5625 218.035156 442.386719 214.476562 C 442.210938 210.921875 441.949219 207.375 441.597656 203.832031 C 441.25 200.289062 440.8125 196.757812 440.289062 193.234375 C 439.765625 189.714844 439.15625 186.207031 438.460938 182.714844 C 437.765625 179.226562 436.988281 175.753906 436.121094 172.300781 C 435.257812 168.847656 434.304688 165.417969 433.273438 162.011719 C 432.238281 158.605469 431.121094 155.226562 429.921875 151.875 C 428.722656 148.523438 427.441406 145.203125 426.078125 141.914062 C 424.714844 138.625 423.273438 135.371094 421.75 132.152344 C 420.230469 128.9375 418.628906 125.757812 416.949219 122.617188 C 415.273438 119.480469 413.519531 116.382812 411.6875 113.328125 C 409.859375 110.277344 407.953125 107.269531 405.976562 104.308594 C 404 101.351562 401.949219 98.441406 399.828125 95.582031 C 397.707031 92.722656 395.519531 89.917969 393.261719 87.167969 C 391.003906 84.414062 388.679688 81.722656 386.289062 79.082031 C 383.898438 76.445312 381.445312 73.867188 378.925781 71.351562 C 376.410156 68.835938 373.832031 66.382812 371.195312 63.992188 C 368.558594 61.601562 365.863281 59.277344 363.113281 57.019531 C 360.363281 54.761719 357.554688 52.570312 354.699219 50.449219 C 351.839844 48.332031 348.929688 46.28125 345.96875 44.304688 C 343.011719 42.328125 340.003906 40.421875 336.953125 38.59375 C 333.898438 36.761719 330.804688 35.007812 327.664062 33.332031 C 324.527344 31.652344 321.347656 30.054688 318.128906 28.53125 C 314.914062 27.011719 311.660156 25.566406 308.371094 24.207031 C 305.082031 22.84375 301.765625 21.5625 298.414062 20.363281 C 295.0625 19.164062 291.683594 18.050781 288.277344 17.015625 C 284.871094 15.984375 281.441406 15.035156 277.992188 14.167969 C 274.539062 13.304688 271.066406 12.523438 267.578125 11.828125 C 264.085938 11.136719 260.582031 10.527344 257.058594 10.003906 C 253.539062 9.484375 250.007812 9.046875 246.464844 8.699219 C 242.925781 8.347656 239.375 8.085938 235.820312 7.914062 C 232.265625 7.738281 228.710938 7.652344 225.152344 7.652344 Z M 289.722656 361.292969 L 160.582031 361.292969 C 136.65625 361.222656 122.109375 337.027344 125.167969 313.78125 L 139.171875 188.175781 C 139.296875 187.089844 139.46875 186.015625 139.691406 184.945312 C 139.914062 183.875 140.183594 182.820312 140.5 181.773438 C 140.816406 180.726562 141.179688 179.699219 141.589844 178.6875 C 141.996094 177.675781 142.449219 176.683594 142.949219 175.710938 C 143.445312 174.738281 143.984375 173.789062 144.570312 172.867188 C 145.152344 171.945312 145.773438 171.046875 146.4375 170.179688 C 147.101562 169.3125 147.800781 168.476562 148.539062 167.671875 C 149.277344 166.867188 150.050781 166.09375 150.855469 165.359375 C 151.664062 164.625 152.5 163.925781 153.371094 163.265625 C 154.238281 162.605469 155.136719 161.984375 156.0625 161.402344 C 156.988281 160.824219 157.9375 160.285156 158.910156 159.789062 C 159.882812 159.292969 160.875 158.84375 161.890625 158.4375 C 162.902344 158.03125 163.933594 157.671875 164.980469 157.355469 C 166.023438 157.042969 167.082031 156.777344 168.152344 156.558594 C 169.222656 156.339844 170.300781 156.167969 171.386719 156.042969 C 172.46875 155.921875 173.558594 155.847656 174.648438 155.824219 L 174.921875 155.824219 L 174.921875 139.304688 C 177.707031 72.695312 272.660156 72.832031 275.378906 139.304688 L 275.378906 155.824219 C 278.6875 155.792969 281.925781 156.246094 285.097656 157.183594 C 286.8125 157.695312 288.480469 158.328125 290.101562 159.085938 C 291.722656 159.839844 293.28125 160.707031 294.773438 161.691406 C 296.269531 162.671875 297.6875 163.757812 299.023438 164.945312 C 300.359375 166.136719 301.601562 167.414062 302.753906 168.785156 C 303.902344 170.152344 304.949219 171.597656 305.886719 173.121094 C 306.828125 174.644531 307.652344 176.226562 308.363281 177.867188 C 309.070312 179.507812 309.65625 181.191406 310.121094 182.921875 C 310.585938 184.648438 310.921875 186.398438 311.132812 188.175781 L 325.132812 313.78125 C 328.191406 337.027344 313.644531 361.222656 289.722656 361.292969 Z M 289.722656 361.292969 " fill-opacity="1" fill-rule="nonzero"/></g></svg>