<svg xmlns="http://www.w3.org/2000/svg" xmlns:xlink="http://www.w3.org/1999/xlink" width="600" zoomAndPan="magnify" viewBox="0 0 450 449.999984" height="600" preserveAspectRatio="xMidYMid meet" version="1.0"><defs><g/><clipPath id="19b1f022c2"><path d="M 52 295.796875 L 134.238281 295.796875 L 134.238281 378 L 52 378 Z M 52 295.796875 " clip-rule="nonzero"/></clipPath><clipPath id="f3bb0c0087"><path d="M 26.542969 336 L 68 336 L 68 378.296875 L 26.542969 378.296875 Z M 26.542969 336 " clip-rule="nonzero"/></clipPath><clipPath id="42e99cf2b3"><path d="M 315.75 295.796875 L 398 295.796875 L 398 378 L 315.75 378 Z M 315.75 295.796875 " clip-rule="nonzero"/></clipPath><clipPath id="fb2bafaf10"><path d="M 382 336 L 423.75 336 L 423.75 378.296875 L 382 378.296875 Z M 382 336 " clip-rule="nonzero"/></clipPath></defs><g clip-path="url(#19b1f022c2)"><path fill="#c2c1fe" d="M 92.238281 317.773438 C 92.113281 318.917969 91.890625 320.042969 91.574219 321.148438 C 91.257812 322.257812 90.851562 323.328125 90.355469 324.363281 C 89.855469 325.402344 89.273438 326.390625 88.605469 327.328125 C 87.941406 328.269531 87.199219 329.144531 86.382812 329.957031 C 85.570312 330.769531 84.691406 331.511719 83.75 332.175781 C 82.808594 332.839844 81.820312 333.421875 80.78125 333.917969 C 79.742188 334.414062 78.667969 334.824219 77.558594 335.136719 C 76.449219 335.453125 75.320312 335.671875 74.175781 335.796875 C 66.878906 336.523438 59.566406 336.855469 52.234375 336.796875 C 59.566406 336.738281 66.878906 337.070312 74.175781 337.792969 C 75.320312 337.917969 76.449219 338.140625 77.558594 338.457031 C 78.667969 338.769531 79.742188 339.175781 80.78125 339.675781 C 81.820312 340.171875 82.808594 340.753906 83.75 341.417969 C 84.691406 342.082031 85.570312 342.824219 86.382812 343.636719 C 87.199219 344.449219 87.941406 345.324219 88.605469 346.265625 C 89.273438 347.203125 89.855469 348.191406 90.355469 349.226562 C 90.851562 350.265625 91.257812 351.335938 91.574219 352.445312 C 91.890625 353.550781 92.113281 354.675781 92.238281 355.820312 C 92.964844 363.097656 93.296875 370.398438 93.238281 377.710938 C 93.179688 370.398438 93.511719 363.097656 94.238281 355.820312 C 94.363281 354.675781 94.585938 353.550781 94.898438 352.445312 C 95.214844 351.335938 95.625 350.265625 96.121094 349.226562 C 96.621094 348.191406 97.203125 347.203125 97.871094 346.265625 C 98.535156 345.324219 99.277344 344.449219 100.089844 343.636719 C 100.90625 342.820312 101.785156 342.082031 102.726562 341.417969 C 103.664062 340.753906 104.65625 340.171875 105.695312 339.675781 C 106.734375 339.175781 107.808594 338.769531 108.917969 338.457031 C 110.027344 338.140625 111.152344 337.917969 112.300781 337.792969 C 119.59375 337.070312 126.910156 336.738281 134.238281 336.796875 C 126.910156 336.855469 119.59375 336.523438 112.300781 335.796875 C 111.152344 335.671875 110.027344 335.453125 108.917969 335.136719 C 107.808594 334.820312 106.734375 334.414062 105.695312 333.917969 C 104.65625 333.421875 103.667969 332.839844 102.726562 332.175781 C 101.785156 331.511719 100.90625 330.769531 100.089844 329.957031 C 99.277344 329.144531 98.535156 328.269531 97.871094 327.328125 C 97.203125 326.390625 96.621094 325.402344 96.121094 324.363281 C 95.625 323.328125 95.214844 322.257812 94.902344 321.148438 C 94.585938 320.042969 94.363281 318.917969 94.238281 317.773438 C 93.511719 310.496094 93.179688 303.195312 93.238281 295.878906 C 93.296875 303.195312 92.964844 310.496094 92.238281 317.773438 Z M 92.238281 317.773438 " fill-opacity="1" fill-rule="nonzero"/></g><g clip-path="url(#f3bb0c0087)"><path fill="#c2c1fe" d="M 46.460938 347.875 C 46.398438 348.453125 46.285156 349.023438 46.125 349.582031 C 45.964844 350.144531 45.757812 350.6875 45.507812 351.210938 C 45.253906 351.734375 44.960938 352.234375 44.625 352.710938 C 44.285156 353.1875 43.910156 353.628906 43.5 354.039062 C 43.085938 354.453125 42.640625 354.828125 42.164062 355.164062 C 41.691406 355.5 41.1875 355.792969 40.664062 356.046875 C 40.136719 356.296875 39.59375 356.503906 39.03125 356.664062 C 38.472656 356.820312 37.902344 356.933594 37.320312 356.996094 C 33.628906 357.363281 29.929688 357.53125 26.21875 357.5 C 29.929688 357.472656 33.628906 357.640625 37.320312 358.007812 C 37.902344 358.070312 38.472656 358.179688 39.03125 358.339844 C 39.59375 358.5 40.136719 358.707031 40.664062 358.957031 C 41.1875 359.210938 41.691406 359.503906 42.164062 359.839844 C 42.640625 360.175781 43.085938 360.550781 43.5 360.960938 C 43.910156 361.375 44.285156 361.816406 44.625 362.292969 C 44.960938 362.765625 45.253906 363.265625 45.507812 363.792969 C 45.757812 364.316406 45.964844 364.859375 46.125 365.417969 C 46.285156 365.980469 46.398438 366.546875 46.460938 367.128906 C 46.828125 370.8125 46.996094 374.503906 46.96875 378.207031 C 46.9375 374.503906 47.105469 370.8125 47.472656 367.128906 C 47.535156 366.546875 47.648438 365.980469 47.808594 365.417969 C 47.96875 364.859375 48.175781 364.316406 48.425781 363.792969 C 48.679688 363.265625 48.972656 362.765625 49.3125 362.292969 C 49.648438 361.816406 50.023438 361.375 50.433594 360.960938 C 50.847656 360.550781 51.292969 360.175781 51.769531 359.839844 C 52.246094 359.503906 52.746094 359.210938 53.269531 358.957031 C 53.796875 358.707031 54.339844 358.5 54.902344 358.339844 C 55.464844 358.179688 56.035156 358.070312 56.613281 358.007812 C 60.304688 357.640625 64.007812 357.472656 67.714844 357.5 C 64.007812 357.53125 60.304688 357.363281 56.613281 356.996094 C 56.035156 356.933594 55.464844 356.820312 54.902344 356.664062 C 54.339844 356.503906 53.796875 356.296875 53.269531 356.046875 C 52.746094 355.792969 52.246094 355.5 51.769531 355.164062 C 51.292969 354.828125 50.847656 354.453125 50.433594 354.039062 C 50.023438 353.628906 49.648438 353.1875 49.3125 352.710938 C 48.972656 352.234375 48.679688 351.734375 48.425781 351.210938 C 48.175781 350.6875 47.96875 350.144531 47.808594 349.582031 C 47.648438 349.023438 47.535156 348.453125 47.472656 347.875 C 47.105469 344.191406 46.933594 340.5 46.964844 336.796875 C 46.996094 340.5 46.828125 344.191406 46.460938 347.875 Z M 46.460938 347.875 " fill-opacity="1" fill-rule="nonzero"/></g><path fill="#c2c1fe" d="M 62.058594 307.015625 C 61.980469 307.730469 61.785156 308.40625 61.476562 309.054688 C 61.164062 309.699219 60.757812 310.273438 60.25 310.78125 C 59.742188 311.289062 59.164062 311.695312 58.519531 312.003906 C 57.871094 312.3125 57.191406 312.507812 56.476562 312.585938 C 54.222656 312.808594 51.964844 312.914062 49.699219 312.894531 C 51.964844 312.875 54.222656 312.976562 56.476562 313.203125 C 57.191406 313.28125 57.871094 313.472656 58.519531 313.78125 C 59.164062 314.09375 59.742188 314.5 60.25 315.007812 C 60.757812 315.511719 61.164062 316.089844 61.476562 316.734375 C 61.785156 317.378906 61.980469 318.058594 62.058594 318.769531 C 62.28125 321.019531 62.386719 323.273438 62.367188 325.535156 C 62.347656 323.273438 62.453125 321.019531 62.675781 318.769531 C 62.753906 318.058594 62.949219 317.378906 63.257812 316.734375 C 63.566406 316.089844 63.976562 315.511719 64.484375 315.007812 C 64.992188 314.5 65.570312 314.09375 66.214844 313.78125 C 66.863281 313.472656 67.542969 313.28125 68.257812 313.203125 C 70.511719 312.976562 72.769531 312.875 75.035156 312.894531 C 72.769531 312.914062 70.511719 312.808594 68.257812 312.585938 C 67.542969 312.507812 66.863281 312.3125 66.214844 312.003906 C 65.570312 311.695312 64.992188 311.285156 64.484375 310.78125 C 63.976562 310.273438 63.570312 309.699219 63.261719 309.050781 C 62.949219 308.40625 62.753906 307.726562 62.679688 307.015625 C 62.453125 304.765625 62.347656 302.511719 62.367188 300.25 C 62.386719 302.511719 62.28125 304.765625 62.058594 307.015625 Z M 62.058594 307.015625 " fill-opacity="1" fill-rule="nonzero"/><g fill="#d099e2" fill-opacity="0.4"><g transform="translate(210.101065, 255.96521)"><g><path d="M 17.304688 -1.722656 C 14.601562 -1.550781 12.359375 -3.21875 14.140625 -15.0625 C 14.890625 -20.121094 15.464844 -25.0625 12.703125 -28.570312 C 7.816406 -34.664062 -2.128906 -30.238281 -6.035156 -25.179688 L -5.117188 -24.257812 C -3.335938 -26.042969 -1.4375 -26.5 0.113281 -25.179688 C 2.355469 -23.222656 2.011719 -20.003906 1.320312 -15.40625 C -0.113281 -6.4375 4.886719 0.230469 14.945312 0.230469 C 18.339844 0.230469 21.269531 -1.207031 23.683594 -3.507812 C 23.339844 3.277344 21.15625 7.933594 16.957031 7.933594 C 12.933594 7.933594 12.589844 1.035156 5.230469 1.035156 C -2.242188 1.035156 -4.3125 8.96875 -3.449219 15.234375 L -2.183594 15.234375 C -2.183594 12.703125 -1.722656 11.152344 0.863281 11.152344 C 3.738281 11.152344 4.886719 15.695312 10.578125 15.695312 C 19.144531 15.695312 25.695312 2.703125 29.089844 -9.027344 C 30.699219 -14.601562 33.570312 -26.097656 30.582031 -31.101562 L 13.910156 -31.101562 C 22.820312 -26.328125 27.078125 -2.300781 17.304688 -1.722656 Z M 17.304688 -1.722656 "/></g></g></g><g fill="#d099e2" fill-opacity="0.4"><g transform="translate(249.765688, 255.96521)"><g><path d="M 18.222656 -31.503906 C 7.933594 -31.503906 1.035156 -24.949219 1.035156 -15.578125 C 1.035156 -6.152344 7.933594 0.402344 18.222656 0.402344 C 28.457031 0.402344 35.355469 -6.152344 35.355469 -15.578125 C 35.355469 -24.949219 28.457031 -31.503906 18.222656 -31.503906 Z M 26.386719 -2.644531 C 23.109375 -0.574219 18.796875 -5.171875 13.910156 -12.820312 C 9.027344 -20.523438 6.726562 -26.386719 10.003906 -28.511719 C 13.28125 -30.582031 17.589844 -25.984375 22.476562 -18.28125 C 27.304688 -10.636719 29.71875 -4.714844 26.386719 -2.644531 Z M 26.386719 -2.644531 "/></g></g></g><g fill="#d099e2" fill-opacity="0.4"><g transform="translate(292.821833, 255.96521)"><g><path d="M 33.457031 0 L 33.457031 -31.101562 L 20.867188 -31.101562 L 20.867188 -6.496094 C 20.753906 -4.542969 20.234375 -3.160156 18.683594 -2.644531 C 15.292969 -1.609375 12.300781 -3.21875 14.085938 -15.0625 C 14.832031 -20.121094 15.40625 -25.0625 12.648438 -28.570312 C 7.816406 -34.664062 -2.183594 -30.238281 -6.035156 -25.179688 L -5.171875 -24.257812 C -3.335938 -26.042969 -1.4375 -26.5 0.0585938 -25.179688 C 2.300781 -23.222656 2.011719 -20.003906 1.265625 -15.40625 C -0.171875 -6.4375 4.945312 0.230469 14.890625 0.230469 C 20.582031 0.230469 23.453125 -5.632812 29.375 -4.425781 C 30.929688 -4.082031 32.019531 -2.875 32.019531 0 Z M 33.457031 0 "/></g></g></g><g fill="#d099e2" fill-opacity="0.4"><g transform="translate(334.268441, 255.96521)"><g><path d="M 1.320312 -31.101562 L 1.320312 0 L 13.910156 0 L 13.796875 -25.292969 C 13.796875 -27.363281 14.3125 -28.859375 15.808594 -28.628906 C 19.371094 -28.109375 17.417969 -18.566406 24.890625 -18.566406 C 29.777344 -18.566406 32.480469 -21.558594 31.90625 -31.101562 L 30.410156 -31.101562 C 30.410156 -28.972656 29.777344 -27.363281 27.882812 -27.363281 C 25.0625 -27.363281 25.292969 -31.503906 18.566406 -31.503906 C 13.796875 -31.503906 12.246094 -27.535156 8.449219 -26.847656 C 5.289062 -26.269531 2.757812 -26.671875 2.757812 -31.101562 Z M 1.320312 -31.101562 "/></g></g></g><g fill="#d099e2" fill-opacity="1"><g transform="translate(203.731427, 254.84207)"><g><path d="M 17.304688 -1.722656 C 14.601562 -1.550781 12.359375 -3.21875 14.140625 -15.0625 C 14.890625 -20.121094 15.464844 -25.0625 12.703125 -28.570312 C 7.816406 -34.664062 -2.128906 -30.238281 -6.035156 -25.179688 L -5.117188 -24.257812 C -3.335938 -26.042969 -1.4375 -26.5 0.113281 -25.179688 C 2.355469 -23.222656 2.011719 -20.003906 1.320312 -15.40625 C -0.113281 -6.4375 4.886719 0.230469 14.945312 0.230469 C 18.339844 0.230469 21.269531 -1.207031 23.683594 -3.507812 C 23.339844 3.277344 21.15625 7.933594 16.957031 7.933594 C 12.933594 7.933594 12.589844 1.035156 5.230469 1.035156 C -2.242188 1.035156 -4.3125 8.96875 -3.449219 15.234375 L -2.183594 15.234375 C -2.183594 12.703125 -1.722656 11.152344 0.863281 11.152344 C 3.738281 11.152344 4.886719 15.695312 10.578125 15.695312 C 19.144531 15.695312 25.695312 2.703125 29.089844 -9.027344 C 30.699219 -14.601562 33.570312 -26.097656 30.582031 -31.101562 L 13.910156 -31.101562 C 22.820312 -26.328125 27.078125 -2.300781 17.304688 -1.722656 Z M 17.304688 -1.722656 "/></g></g></g><g fill="#d099e2" fill-opacity="1"><g transform="translate(243.39605, 254.84207)"><g><path d="M 18.222656 -31.503906 C 7.933594 -31.503906 1.035156 -24.949219 1.035156 -15.578125 C 1.035156 -6.152344 7.933594 0.402344 18.222656 0.402344 C 28.457031 0.402344 35.355469 -6.152344 35.355469 -15.578125 C 35.355469 -24.949219 28.457031 -31.503906 18.222656 -31.503906 Z M 26.386719 -2.644531 C 23.109375 -0.574219 18.796875 -5.171875 13.910156 -12.820312 C 9.027344 -20.523438 6.726562 -26.386719 10.003906 -28.511719 C 13.28125 -30.582031 17.589844 -25.984375 22.476562 -18.28125 C 27.304688 -10.636719 29.71875 -4.714844 26.386719 -2.644531 Z M 26.386719 -2.644531 "/></g></g></g><g fill="#d099e2" fill-opacity="1"><g transform="translate(286.452196, 254.84207)"><g><path d="M 33.457031 0 L 33.457031 -31.101562 L 20.867188 -31.101562 L 20.867188 -6.496094 C 20.753906 -4.542969 20.234375 -3.160156 18.683594 -2.644531 C 15.292969 -1.609375 12.300781 -3.21875 14.085938 -15.0625 C 14.832031 -20.121094 15.40625 -25.0625 12.648438 -28.570312 C 7.816406 -34.664062 -2.183594 -30.238281 -6.035156 -25.179688 L -5.171875 -24.257812 C -3.335938 -26.042969 -1.4375 -26.5 0.0585938 -25.179688 C 2.300781 -23.222656 2.011719 -20.003906 1.265625 -15.40625 C -0.171875 -6.4375 4.945312 0.230469 14.890625 0.230469 C 20.582031 0.230469 23.453125 -5.632812 29.375 -4.425781 C 30.929688 -4.082031 32.019531 -2.875 32.019531 0 Z M 33.457031 0 "/></g></g></g><g fill="#d099e2" fill-opacity="1"><g transform="translate(327.898803, 254.84207)"><g><path d="M 1.320312 -31.101562 L 1.320312 0 L 13.910156 0 L 13.796875 -25.292969 C 13.796875 -27.363281 14.3125 -28.859375 15.808594 -28.628906 C 19.371094 -28.109375 17.417969 -18.566406 24.890625 -18.566406 C 29.777344 -18.566406 32.480469 -21.558594 31.90625 -31.101562 L 30.410156 -31.101562 C 30.410156 -28.972656 29.777344 -27.363281 27.882812 -27.363281 C 25.0625 -27.363281 25.292969 -31.503906 18.566406 -31.503906 C 13.796875 -31.503906 12.246094 -27.535156 8.449219 -26.847656 C 5.289062 -26.269531 2.757812 -26.671875 2.757812 -31.101562 Z M 1.320312 -31.101562 "/></g></g></g><g fill="#d099e2" fill-opacity="0.4"><g transform="translate(129.662048, 198.104898)"><g><path d="M 18.796875 -31.503906 C 17.015625 -31.503906 15.40625 -30.8125 13.855469 -30.007812 L 13.855469 -38.976562 L 12.417969 -38.976562 C 12.417969 -30.984375 1.320312 -37.195312 1.320312 -29.71875 L 1.320312 0 L 2.757812 0 C 2.757812 -1.035156 4.425781 -4.023438 6.496094 -4.3125 C 12.070312 -5.117188 14.542969 0.402344 20.40625 0.402344 C 26.960938 0.402344 35.8125 -6.152344 35.8125 -15.578125 C 35.8125 -24.949219 29.03125 -31.503906 18.796875 -31.503906 Z M 13.855469 -24.375 C 13.855469 -26.847656 14.140625 -28.570312 15.347656 -29.203125 C 17.992188 -30.527344 22.707031 -24.316406 24.257812 -17.535156 C 25.867188 -10.921875 26.445312 -4.714844 23.109375 -2.644531 C 20.582031 -1.035156 16.957031 -1.898438 13.855469 -5.691406 Z M 13.855469 -24.375 "/></g></g></g><g fill="#d099e2" fill-opacity="0.4"><g transform="translate(173.120581, 198.104898)"><g><path d="M 13.105469 -14.027344 C 33.800781 -19.085938 33.34375 -31.503906 18.164062 -31.503906 C 7.875 -31.503906 0.976562 -24.949219 0.976562 -15.578125 C 0.976562 -6.152344 7.875 0.402344 18.164062 0.402344 C 26.902344 0.402344 30.527344 -2.53125 35.410156 -8.105469 C 35.066406 -8.449219 34.722656 -8.851562 34.320312 -9.199219 C 27.707031 -1.898438 20.523438 -2.300781 13.855469 -12.820312 C 13.566406 -13.222656 13.335938 -13.625 13.105469 -14.027344 Z M 17.992188 -24.949219 C 20.984375 -20.121094 17.1875 -16.210938 12.359375 -15.234375 C 8.566406 -21.730469 7.011719 -26.617188 9.945312 -28.511719 C 12.128906 -29.894531 15.578125 -28.859375 17.992188 -24.949219 Z M 17.992188 -24.949219 "/></g></g></g><g fill="#d099e2" fill-opacity="1"><g transform="translate(123.29241, 196.981758)"><g><path d="M 18.796875 -31.503906 C 17.015625 -31.503906 15.40625 -30.8125 13.855469 -30.007812 L 13.855469 -38.976562 L 12.417969 -38.976562 C 12.417969 -30.984375 1.320312 -37.195312 1.320312 -29.71875 L 1.320312 0 L 2.757812 0 C 2.757812 -1.035156 4.425781 -4.023438 6.496094 -4.3125 C 12.070312 -5.117188 14.542969 0.402344 20.40625 0.402344 C 26.960938 0.402344 35.8125 -6.152344 35.8125 -15.578125 C 35.8125 -24.949219 29.03125 -31.503906 18.796875 -31.503906 Z M 13.855469 -24.375 C 13.855469 -26.847656 14.140625 -28.570312 15.347656 -29.203125 C 17.992188 -30.527344 22.707031 -24.316406 24.257812 -17.535156 C 25.867188 -10.921875 26.445312 -4.714844 23.109375 -2.644531 C 20.582031 -1.035156 16.957031 -1.898438 13.855469 -5.691406 Z M 13.855469 -24.375 "/></g></g></g><g fill="#d099e2" fill-opacity="1"><g transform="translate(166.750943, 196.981758)"><g><path d="M 13.105469 -14.027344 C 33.800781 -19.085938 33.34375 -31.503906 18.164062 -31.503906 C 7.875 -31.503906 0.976562 -24.949219 0.976562 -15.578125 C 0.976562 -6.152344 7.875 0.402344 18.164062 0.402344 C 26.902344 0.402344 30.527344 -2.53125 35.410156 -8.105469 C 35.066406 -8.449219 34.722656 -8.851562 34.320312 -9.199219 C 27.707031 -1.898438 20.523438 -2.300781 13.855469 -12.820312 C 13.566406 -13.222656 13.335938 -13.625 13.105469 -14.027344 Z M 17.992188 -24.949219 C 20.984375 -20.121094 17.1875 -16.210938 12.359375 -15.234375 C 8.566406 -21.730469 7.011719 -26.617188 9.945312 -28.511719 C 12.128906 -29.894531 15.578125 -28.859375 17.992188 -24.949219 Z M 17.992188 -24.949219 "/></g></g></g><g fill="#d099e2" fill-opacity="0.4"><g transform="translate(210.101065, 144.375202)"><g><path d="M 1.320312 -31.101562 L 1.320312 0 L 13.910156 0 L 13.910156 -22.996094 C 13.96875 -25.8125 14.3125 -27.9375 16.097656 -28.628906 C 18.742188 -29.605469 21.097656 -28.054688 19.316406 -16.269531 C 18.566406 -11.210938 18.050781 -6.265625 20.808594 -2.757812 C 25.121094 2.703125 32.191406 0.0585938 36.445312 -3.738281 L 35.8125 -4.886719 C 30.871094 -2.011719 31.042969 -8.738281 32.191406 -15.921875 C 32.59375 -18.453125 32.539062 -20.808594 32.019531 -22.878906 C 31.789062 -25.464844 32.25 -27.707031 34.722656 -28.628906 C 37.367188 -29.605469 39.722656 -28.054688 37.941406 -16.269531 C 37.195312 -11.210938 36.617188 -6.265625 39.378906 -2.757812 C 44.265625 3.335938 54.210938 -1.09375 58.0625 -6.152344 L 57.199219 -7.070312 C 55.359375 -5.230469 53.460938 -4.828125 51.96875 -6.152344 C 49.726562 -8.105469 50.070312 -11.324219 50.761719 -15.921875 C 52.199219 -24.890625 48.058594 -31.503906 38.113281 -31.503906 C 34.492188 -31.503906 32.191406 -29.203125 29.433594 -27.824219 C 27.304688 -30.121094 23.972656 -31.503906 19.546875 -31.503906 C 14.832031 -31.503906 12.359375 -27.652344 8.394531 -26.789062 C 5.230469 -26.386719 2.757812 -26.730469 2.757812 -31.101562 Z M 1.320312 -31.101562 "/></g></g></g><g fill="#d099e2" fill-opacity="0.4"><g transform="translate(268.907679, 144.375202)"><g><path d="M 13.105469 -14.027344 C 33.800781 -19.085938 33.34375 -31.503906 18.164062 -31.503906 C 7.875 -31.503906 0.976562 -24.949219 0.976562 -15.578125 C 0.976562 -6.152344 7.875 0.402344 18.164062 0.402344 C 26.902344 0.402344 30.527344 -2.53125 35.410156 -8.105469 C 35.066406 -8.449219 34.722656 -8.851562 34.320312 -9.199219 C 27.707031 -1.898438 20.523438 -2.300781 13.855469 -12.820312 C 13.566406 -13.222656 13.335938 -13.625 13.105469 -14.027344 Z M 17.992188 -24.949219 C 20.984375 -20.121094 17.1875 -16.210938 12.359375 -15.234375 C 8.566406 -21.730469 7.011719 -26.617188 9.945312 -28.511719 C 12.128906 -29.894531 15.578125 -28.859375 17.992188 -24.949219 Z M 17.992188 -24.949219 "/></g></g></g><g fill="#d099e2" fill-opacity="1"><g transform="translate(203.731427, 143.252063)"><g><path d="M 1.320312 -31.101562 L 1.320312 0 L 13.910156 0 L 13.910156 -22.996094 C 13.96875 -25.8125 14.3125 -27.9375 16.097656 -28.628906 C 18.742188 -29.605469 21.097656 -28.054688 19.316406 -16.269531 C 18.566406 -11.210938 18.050781 -6.265625 20.808594 -2.757812 C 25.121094 2.703125 32.191406 0.0585938 36.445312 -3.738281 L 35.8125 -4.886719 C 30.871094 -2.011719 31.042969 -8.738281 32.191406 -15.921875 C 32.59375 -18.453125 32.539062 -20.808594 32.019531 -22.878906 C 31.789062 -25.464844 32.25 -27.707031 34.722656 -28.628906 C 37.367188 -29.605469 39.722656 -28.054688 37.941406 -16.269531 C 37.195312 -11.210938 36.617188 -6.265625 39.378906 -2.757812 C 44.265625 3.335938 54.210938 -1.09375 58.0625 -6.152344 L 57.199219 -7.070312 C 55.359375 -5.230469 53.460938 -4.828125 51.96875 -6.152344 C 49.726562 -8.105469 50.070312 -11.324219 50.761719 -15.921875 C 52.199219 -24.890625 48.058594 -31.503906 38.113281 -31.503906 C 34.492188 -31.503906 32.191406 -29.203125 29.433594 -27.824219 C 27.304688 -30.121094 23.972656 -31.503906 19.546875 -31.503906 C 14.832031 -31.503906 12.359375 -27.652344 8.394531 -26.789062 C 5.230469 -26.386719 2.757812 -26.730469 2.757812 -31.101562 Z M 1.320312 -31.101562 "/></g></g></g><g fill="#d099e2" fill-opacity="1"><g transform="translate(262.538041, 143.252063)"><g><path d="M 13.105469 -14.027344 C 33.800781 -19.085938 33.34375 -31.503906 18.164062 -31.503906 C 7.875 -31.503906 0.976562 -24.949219 0.976562 -15.578125 C 0.976562 -6.152344 7.875 0.402344 18.164062 0.402344 C 26.902344 0.402344 30.527344 -2.53125 35.410156 -8.105469 C 35.066406 -8.449219 34.722656 -8.851562 34.320312 -9.199219 C 27.707031 -1.898438 20.523438 -2.300781 13.855469 -12.820312 C 13.566406 -13.222656 13.335938 -13.625 13.105469 -14.027344 Z M 17.992188 -24.949219 C 20.984375 -20.121094 17.1875 -16.210938 12.359375 -15.234375 C 8.566406 -21.730469 7.011719 -26.617188 9.945312 -28.511719 C 12.128906 -29.894531 15.578125 -28.859375 17.992188 -24.949219 Z M 17.992188 -24.949219 "/></g></g></g><g fill="#d099e2" fill-opacity="0.4"><g transform="translate(115.799193, 94.704167)"><g><path d="M 1.148438 -38.976562 L 1.148438 0 L 13.738281 0 L 13.738281 -29.71875 C 13.738281 -37.195312 2.585938 -30.984375 2.585938 -38.976562 Z M 1.148438 -38.976562 "/></g></g></g><g fill="#d099e2" fill-opacity="0.4"><g transform="translate(137.356525, 94.704167)"><g><path d="M 13.105469 -14.027344 C 33.800781 -19.085938 33.34375 -31.503906 18.164062 -31.503906 C 7.875 -31.503906 0.976562 -24.949219 0.976562 -15.578125 C 0.976562 -6.152344 7.875 0.402344 18.164062 0.402344 C 26.902344 0.402344 30.527344 -2.53125 35.410156 -8.105469 C 35.066406 -8.449219 34.722656 -8.851562 34.320312 -9.199219 C 27.707031 -1.898438 20.523438 -2.300781 13.855469 -12.820312 C 13.566406 -13.222656 13.335938 -13.625 13.105469 -14.027344 Z M 17.992188 -24.949219 C 20.984375 -20.121094 17.1875 -16.210938 12.359375 -15.234375 C 8.566406 -21.730469 7.011719 -26.617188 9.945312 -28.511719 C 12.128906 -29.894531 15.578125 -28.859375 17.992188 -24.949219 Z M 17.992188 -24.949219 "/></g></g></g><g fill="#d099e2" fill-opacity="0.4"><g transform="translate(174.319429, 94.704167)"><g><path d="M 17.589844 -20.984375 L 17.589844 -29.777344 L 26.15625 -29.777344 L 26.15625 -31.101562 L 17.589844 -31.101562 L 17.589844 -39.035156 L 16.210938 -39.035156 C 16.210938 -35.238281 13.105469 -31.101562 5.058594 -31.101562 L 1.035156 -31.101562 L 1.035156 -29.777344 L 5.058594 -29.777344 L 5.058594 -12.128906 C 5.058594 -2.242188 10.175781 0.402344 15.0625 0.402344 C 20.121094 0.402344 20.40625 -4.195312 23.222656 -4.195312 C 25.8125 -4.195312 25.867188 -2.585938 25.867188 -0.0585938 L 27.191406 -0.0585938 C 27.996094 -6.382812 27.535156 -14.3125 20.0625 -14.3125 C 14.890625 -14.3125 13.453125 -7.359375 9.484375 -7.359375 C 7.128906 -7.359375 6.496094 -8.96875 6.726562 -10.519531 C 7.300781 -14.199219 17.589844 -13.566406 17.589844 -20.984375 Z M 17.589844 -20.984375 "/></g></g></g><g fill="#d099e2" fill-opacity="1"><g transform="translate(109.429562, 93.581029)"><g><path d="M 1.148438 -38.976562 L 1.148438 0 L 13.738281 0 L 13.738281 -29.71875 C 13.738281 -37.195312 2.585938 -30.984375 2.585938 -38.976562 Z M 1.148438 -38.976562 "/></g></g></g><g fill="#d099e2" fill-opacity="1"><g transform="translate(130.986894, 93.581029)"><g><path d="M 13.105469 -14.027344 C 33.800781 -19.085938 33.34375 -31.503906 18.164062 -31.503906 C 7.875 -31.503906 0.976562 -24.949219 0.976562 -15.578125 C 0.976562 -6.152344 7.875 0.402344 18.164062 0.402344 C 26.902344 0.402344 30.527344 -2.53125 35.410156 -8.105469 C 35.066406 -8.449219 34.722656 -8.851562 34.320312 -9.199219 C 27.707031 -1.898438 20.523438 -2.300781 13.855469 -12.820312 C 13.566406 -13.222656 13.335938 -13.625 13.105469 -14.027344 Z M 17.992188 -24.949219 C 20.984375 -20.121094 17.1875 -16.210938 12.359375 -15.234375 C 8.566406 -21.730469 7.011719 -26.617188 9.945312 -28.511719 C 12.128906 -29.894531 15.578125 -28.859375 17.992188 -24.949219 Z M 17.992188 -24.949219 "/></g></g></g><g fill="#d099e2" fill-opacity="1"><g transform="translate(167.949798, 93.581029)"><g><path d="M 17.589844 -20.984375 L 17.589844 -29.777344 L 26.15625 -29.777344 L 26.15625 -31.101562 L 17.589844 -31.101562 L 17.589844 -39.035156 L 16.210938 -39.035156 C 16.210938 -35.238281 13.105469 -31.101562 5.058594 -31.101562 L 1.035156 -31.101562 L 1.035156 -29.777344 L 5.058594 -29.777344 L 5.058594 -12.128906 C 5.058594 -2.242188 10.175781 0.402344 15.0625 0.402344 C 20.121094 0.402344 20.40625 -4.195312 23.222656 -4.195312 C 25.8125 -4.195312 25.867188 -2.585938 25.867188 -0.0585938 L 27.191406 -0.0585938 C 27.996094 -6.382812 27.535156 -14.3125 20.0625 -14.3125 C 14.890625 -14.3125 13.453125 -7.359375 9.484375 -7.359375 C 7.128906 -7.359375 6.496094 -8.96875 6.726562 -10.519531 C 7.300781 -14.199219 17.589844 -13.566406 17.589844 -20.984375 Z M 17.589844 -20.984375 "/></g></g></g><g fill="#d099e2" fill-opacity="0.4"><g transform="translate(209.489279, 94.704167)"><g/></g></g><g fill="#d099e2" fill-opacity="1"><g transform="translate(203.119649, 93.581029)"><g/></g></g><g fill="#d099e2" fill-opacity="0.4"><g transform="translate(140.619724, 359.242033)"><g><path d="M 27.765625 -21.328125 L 16.730469 -21.328125 C 14.257812 -25.351562 7.242188 -25.464844 6.785156 -28.511719 C 6.554688 -30.066406 7.128906 -31.675781 9.542969 -31.675781 C 13.507812 -31.675781 13.855469 -24.71875 21.210938 -24.71875 C 28.742188 -24.71875 30.8125 -32.652344 29.949219 -38.976562 L 28.628906 -38.976562 C 28.628906 -36.445312 28.167969 -34.835938 25.582031 -34.835938 C 22.765625 -34.835938 21.558594 -39.4375 15.867188 -39.4375 C 10.175781 -39.4375 5.058594 -36.734375 5.058594 -26.902344 L 5.058594 -21.328125 L 1.035156 -21.328125 L 1.035156 -19.949219 L 5.058594 -19.949219 L 5.058594 0 L 17.648438 0 L 17.648438 -17.992188 C 17.648438 -18.683594 17.535156 -19.371094 17.359375 -19.949219 L 27.765625 -19.949219 Z M 27.765625 -21.328125 "/></g></g></g><g fill="#d099e2" fill-opacity="0.4"><g transform="translate(178.38739, 359.242033)"><g><path d="M 20.925781 -31.503906 C 14.3125 -31.503906 10.691406 -27.363281 7.070312 -27.363281 C 5.171875 -27.363281 4.542969 -28.972656 4.542969 -31.101562 L 3.046875 -31.101562 C 2.011719 -21.558594 4.367188 -18.566406 9.253906 -18.566406 C 16.730469 -18.566406 14.085938 -28.628906 17.878906 -29.71875 C 21.5 -30.753906 23.28125 -28.226562 21.902344 -17.820312 C 20.40625 -17.992188 18.796875 -18.050781 17.015625 -18.050781 C 6.265625 -18.050781 1.035156 -14.890625 1.035156 -8.910156 C 1.035156 -2.988281 5.691406 0.230469 15.921875 0.230469 C 20.753906 0.230469 22.246094 -1.320312 22.59375 -3.507812 C 27.078125 3.621094 37.828125 -0.804688 41.851562 -6.152344 L 40.988281 -7.070312 C 39.148438 -5.230469 37.25 -4.828125 35.757812 -6.152344 C 33.515625 -8.105469 33.800781 -11.324219 34.550781 -15.921875 C 35.988281 -24.890625 30.8125 -31.503906 20.925781 -31.503906 Z M 21.097656 -10.058594 C 21.097656 -6.554688 21.558594 -2.585938 20.179688 -1.953125 C 17.9375 -0.863281 15.464844 -2.53125 13.394531 -7.761719 C 11.785156 -11.726562 12.070312 -14.945312 14.3125 -16.039062 C 15.921875 -16.84375 18.742188 -16.902344 21.730469 -16.5 L 21.730469 -16.269531 C 21.386719 -14.140625 21.15625 -12.015625 21.097656 -10.058594 Z M 21.097656 -10.058594 "/></g></g></g><g fill="#d099e2" fill-opacity="0.4"><g transform="translate(220.8687, 359.242033)"><g><path d="M 1.320312 0 L 13.910156 0 L 13.910156 -19.777344 C 13.910156 -23.855469 10.460938 -23.855469 7.414062 -24.316406 C 4.140625 -24.835938 2.242188 -25.8125 1.320312 -27.019531 Z M 15.003906 -32.539062 C 15.003906 -36.617188 12.070312 -39.4375 7.644531 -39.4375 C 3.21875 -39.4375 0.289062 -36.617188 0.289062 -32.539062 C 0.289062 -28.511719 3.21875 -25.695312 7.644531 -25.695312 C 12.070312 -25.695312 15.003906 -28.511719 15.003906 -32.539062 Z M 15.003906 -32.539062 "/></g></g></g><g fill="#d099e2" fill-opacity="0.4"><g transform="translate(242.770941, 359.242033)"><g><path d="M 1.320312 -31.101562 L 1.320312 0 L 13.910156 0 L 13.796875 -25.292969 C 13.796875 -27.363281 14.3125 -28.859375 15.808594 -28.628906 C 19.371094 -28.109375 17.417969 -18.566406 24.890625 -18.566406 C 29.777344 -18.566406 32.480469 -21.558594 31.90625 -31.101562 L 30.410156 -31.101562 C 30.410156 -28.972656 29.777344 -27.363281 27.882812 -27.363281 C 25.0625 -27.363281 25.292969 -31.503906 18.566406 -31.503906 C 13.796875 -31.503906 12.246094 -27.535156 8.449219 -26.847656 C 5.289062 -26.269531 2.757812 -26.671875 2.757812 -31.101562 Z M 1.320312 -31.101562 "/></g></g></g><g fill="#d099e2" fill-opacity="0.4"><g transform="translate(282.435564, 359.242033)"><g><path d="M 17.304688 -1.722656 C 14.601562 -1.550781 12.359375 -3.21875 14.140625 -15.0625 C 14.890625 -20.121094 15.464844 -25.0625 12.703125 -28.570312 C 7.816406 -34.664062 -2.128906 -30.238281 -6.035156 -25.179688 L -5.117188 -24.257812 C -3.335938 -26.042969 -1.4375 -26.5 0.113281 -25.179688 C 2.355469 -23.222656 2.011719 -20.003906 1.320312 -15.40625 C -0.113281 -6.4375 4.886719 0.230469 14.945312 0.230469 C 18.339844 0.230469 21.269531 -1.207031 23.683594 -3.507812 C 23.339844 3.277344 21.15625 7.933594 16.957031 7.933594 C 12.933594 7.933594 12.589844 1.035156 5.230469 1.035156 C -2.242188 1.035156 -4.3125 8.96875 -3.449219 15.234375 L -2.183594 15.234375 C -2.183594 12.703125 -1.722656 11.152344 0.863281 11.152344 C 3.738281 11.152344 4.886719 15.695312 10.578125 15.695312 C 19.144531 15.695312 25.695312 2.703125 29.089844 -9.027344 C 30.699219 -14.601562 33.570312 -26.097656 30.582031 -31.101562 L 13.910156 -31.101562 C 22.820312 -26.328125 27.078125 -2.300781 17.304688 -1.722656 Z M 17.304688 -1.722656 "/></g></g></g><g fill="#d099e2" fill-opacity="1"><g transform="translate(134.250086, 358.118907)"><g><path d="M 27.765625 -21.328125 L 16.730469 -21.328125 C 14.257812 -25.351562 7.242188 -25.464844 6.785156 -28.511719 C 6.554688 -30.066406 7.128906 -31.675781 9.542969 -31.675781 C 13.507812 -31.675781 13.855469 -24.71875 21.210938 -24.71875 C 28.742188 -24.71875 30.8125 -32.652344 29.949219 -38.976562 L 28.628906 -38.976562 C 28.628906 -36.445312 28.167969 -34.835938 25.582031 -34.835938 C 22.765625 -34.835938 21.558594 -39.4375 15.867188 -39.4375 C 10.175781 -39.4375 5.058594 -36.734375 5.058594 -26.902344 L 5.058594 -21.328125 L 1.035156 -21.328125 L 1.035156 -19.949219 L 5.058594 -19.949219 L 5.058594 0 L 17.648438 0 L 17.648438 -17.992188 C 17.648438 -18.683594 17.535156 -19.371094 17.359375 -19.949219 L 27.765625 -19.949219 Z M 27.765625 -21.328125 "/></g></g></g><g fill="#d099e2" fill-opacity="1"><g transform="translate(172.017752, 358.118907)"><g><path d="M 20.925781 -31.503906 C 14.3125 -31.503906 10.691406 -27.363281 7.070312 -27.363281 C 5.171875 -27.363281 4.542969 -28.972656 4.542969 -31.101562 L 3.046875 -31.101562 C 2.011719 -21.558594 4.367188 -18.566406 9.253906 -18.566406 C 16.730469 -18.566406 14.085938 -28.628906 17.878906 -29.71875 C 21.5 -30.753906 23.28125 -28.226562 21.902344 -17.820312 C 20.40625 -17.992188 18.796875 -18.050781 17.015625 -18.050781 C 6.265625 -18.050781 1.035156 -14.890625 1.035156 -8.910156 C 1.035156 -2.988281 5.691406 0.230469 15.921875 0.230469 C 20.753906 0.230469 22.246094 -1.320312 22.59375 -3.507812 C 27.078125 3.621094 37.828125 -0.804688 41.851562 -6.152344 L 40.988281 -7.070312 C 39.148438 -5.230469 37.25 -4.828125 35.757812 -6.152344 C 33.515625 -8.105469 33.800781 -11.324219 34.550781 -15.921875 C 35.988281 -24.890625 30.8125 -31.503906 20.925781 -31.503906 Z M 21.097656 -10.058594 C 21.097656 -6.554688 21.558594 -2.585938 20.179688 -1.953125 C 17.9375 -0.863281 15.464844 -2.53125 13.394531 -7.761719 C 11.785156 -11.726562 12.070312 -14.945312 14.3125 -16.039062 C 15.921875 -16.84375 18.742188 -16.902344 21.730469 -16.5 L 21.730469 -16.269531 C 21.386719 -14.140625 21.15625 -12.015625 21.097656 -10.058594 Z M 21.097656 -10.058594 "/></g></g></g><g fill="#d099e2" fill-opacity="1"><g transform="translate(214.499062, 358.118907)"><g><path d="M 1.320312 0 L 13.910156 0 L 13.910156 -19.777344 C 13.910156 -23.855469 10.460938 -23.855469 7.414062 -24.316406 C 4.140625 -24.835938 2.242188 -25.8125 1.320312 -27.019531 Z M 15.003906 -32.539062 C 15.003906 -36.617188 12.070312 -39.4375 7.644531 -39.4375 C 3.21875 -39.4375 0.289062 -36.617188 0.289062 -32.539062 C 0.289062 -28.511719 3.21875 -25.695312 7.644531 -25.695312 C 12.070312 -25.695312 15.003906 -28.511719 15.003906 -32.539062 Z M 15.003906 -32.539062 "/></g></g></g><g fill="#d099e2" fill-opacity="1"><g transform="translate(236.401304, 358.118907)"><g><path d="M 1.320312 -31.101562 L 1.320312 0 L 13.910156 0 L 13.796875 -25.292969 C 13.796875 -27.363281 14.3125 -28.859375 15.808594 -28.628906 C 19.371094 -28.109375 17.417969 -18.566406 24.890625 -18.566406 C 29.777344 -18.566406 32.480469 -21.558594 31.90625 -31.101562 L 30.410156 -31.101562 C 30.410156 -28.972656 29.777344 -27.363281 27.882812 -27.363281 C 25.0625 -27.363281 25.292969 -31.503906 18.566406 -31.503906 C 13.796875 -31.503906 12.246094 -27.535156 8.449219 -26.847656 C 5.289062 -26.269531 2.757812 -26.671875 2.757812 -31.101562 Z M 1.320312 -31.101562 "/></g></g></g><g fill="#d099e2" fill-opacity="1"><g transform="translate(276.065926, 358.118907)"><g><path d="M 17.304688 -1.722656 C 14.601562 -1.550781 12.359375 -3.21875 14.140625 -15.0625 C 14.890625 -20.121094 15.464844 -25.0625 12.703125 -28.570312 C 7.816406 -34.664062 -2.128906 -30.238281 -6.035156 -25.179688 L -5.117188 -24.257812 C -3.335938 -26.042969 -1.4375 -26.5 0.113281 -25.179688 C 2.355469 -23.222656 2.011719 -20.003906 1.320312 -15.40625 C -0.113281 -6.4375 4.886719 0.230469 14.945312 0.230469 C 18.339844 0.230469 21.269531 -1.207031 23.683594 -3.507812 C 23.339844 3.277344 21.15625 7.933594 16.957031 7.933594 C 12.933594 7.933594 12.589844 1.035156 5.230469 1.035156 C -2.242188 1.035156 -4.3125 8.96875 -3.449219 15.234375 L -2.183594 15.234375 C -2.183594 12.703125 -1.722656 11.152344 0.863281 11.152344 C 3.738281 11.152344 4.886719 15.695312 10.578125 15.695312 C 19.144531 15.695312 25.695312 2.703125 29.089844 -9.027344 C 30.699219 -14.601562 33.570312 -26.097656 30.582031 -31.101562 L 13.910156 -31.101562 C 22.820312 -26.328125 27.078125 -2.300781 17.304688 -1.722656 Z M 17.304688 -1.722656 "/></g></g></g><g clip-path="url(#42e99cf2b3)"><path fill="#c2c1fe" d="M 357.753906 317.773438 C 357.878906 318.917969 358.097656 320.042969 358.414062 321.148438 C 358.730469 322.257812 359.136719 323.328125 359.636719 324.363281 C 360.132812 325.402344 360.71875 326.390625 361.382812 327.328125 C 362.050781 328.269531 362.789062 329.144531 363.605469 329.957031 C 364.421875 330.769531 365.296875 331.511719 366.238281 332.175781 C 367.179688 332.839844 368.171875 333.421875 369.210938 333.917969 C 370.25 334.414062 371.324219 334.824219 372.433594 335.136719 C 373.539062 335.453125 374.667969 335.671875 375.8125 335.796875 C 383.109375 336.523438 390.421875 336.855469 397.753906 336.796875 C 390.421875 336.738281 383.109375 337.070312 375.8125 337.792969 C 374.667969 337.917969 373.539062 338.140625 372.433594 338.457031 C 371.324219 338.769531 370.25 339.175781 369.210938 339.675781 C 368.171875 340.171875 367.179688 340.753906 366.238281 341.417969 C 365.296875 342.082031 364.421875 342.824219 363.605469 343.636719 C 362.789062 344.449219 362.050781 345.324219 361.382812 346.265625 C 360.71875 347.203125 360.136719 348.191406 359.636719 349.226562 C 359.136719 350.265625 358.730469 351.335938 358.414062 352.445312 C 358.097656 353.550781 357.878906 354.675781 357.753906 355.820312 C 357.023438 363.097656 356.691406 370.398438 356.75 377.710938 C 356.8125 370.398438 356.480469 363.097656 355.75 355.820312 C 355.625 354.675781 355.40625 353.550781 355.089844 352.445312 C 354.773438 351.335938 354.367188 350.265625 353.867188 349.226562 C 353.371094 348.191406 352.789062 347.203125 352.121094 346.265625 C 351.453125 345.324219 350.714844 344.449219 349.898438 343.636719 C 349.082031 342.820312 348.207031 342.082031 347.265625 341.417969 C 346.324219 340.753906 345.332031 340.171875 344.292969 339.675781 C 343.253906 339.175781 342.179688 338.769531 341.074219 338.457031 C 339.964844 338.140625 338.835938 337.917969 337.691406 337.792969 C 330.394531 337.070312 323.082031 336.738281 315.75 336.796875 C 323.082031 336.855469 330.394531 336.523438 337.691406 335.796875 C 338.835938 335.671875 339.964844 335.453125 341.070312 335.136719 C 342.179688 334.820312 343.253906 334.414062 344.292969 333.917969 C 345.332031 333.421875 346.324219 332.839844 347.265625 332.175781 C 348.207031 331.511719 349.082031 330.769531 349.898438 329.957031 C 350.714844 329.144531 351.453125 328.269531 352.121094 327.328125 C 352.785156 326.390625 353.371094 325.402344 353.867188 324.363281 C 354.367188 323.328125 354.773438 322.257812 355.089844 321.148438 C 355.40625 320.042969 355.625 318.917969 355.75 317.773438 C 356.480469 310.496094 356.8125 303.195312 356.75 295.878906 C 356.691406 303.195312 357.023438 310.496094 357.753906 317.773438 Z M 357.753906 317.773438 " fill-opacity="1" fill-rule="nonzero"/></g><g clip-path="url(#fb2bafaf10)"><path fill="#c2c1fe" d="M 403.527344 347.875 C 403.59375 348.453125 403.703125 349.023438 403.863281 349.582031 C 404.023438 350.144531 404.230469 350.6875 404.484375 351.210938 C 404.734375 351.734375 405.03125 352.234375 405.367188 352.710938 C 405.703125 353.1875 406.078125 353.628906 406.492188 354.039062 C 406.902344 354.453125 407.347656 354.828125 407.824219 355.164062 C 408.300781 355.5 408.800781 355.792969 409.328125 356.046875 C 409.851562 356.296875 410.398438 356.503906 410.957031 356.664062 C 411.519531 356.820312 412.089844 356.933594 412.667969 356.996094 C 416.359375 357.363281 420.0625 357.53125 423.773438 357.5 C 420.0625 357.472656 416.359375 357.640625 412.667969 358.007812 C 412.089844 358.070312 411.519531 358.179688 410.957031 358.339844 C 410.398438 358.5 409.851562 358.707031 409.328125 358.957031 C 408.800781 359.210938 408.300781 359.503906 407.824219 359.839844 C 407.347656 360.175781 406.902344 360.550781 406.492188 360.960938 C 406.078125 361.375 405.703125 361.816406 405.367188 362.292969 C 405.03125 362.765625 404.734375 363.265625 404.484375 363.792969 C 404.230469 364.316406 404.023438 364.859375 403.863281 365.417969 C 403.703125 365.980469 403.59375 366.546875 403.527344 367.128906 C 403.160156 370.8125 402.992188 374.503906 403.023438 378.207031 C 403.054688 374.503906 402.882812 370.8125 402.515625 367.128906 C 402.453125 366.546875 402.339844 365.980469 402.183594 365.417969 C 402.023438 364.859375 401.816406 364.316406 401.5625 363.792969 C 401.3125 363.265625 401.015625 362.765625 400.679688 362.292969 C 400.34375 361.816406 399.96875 361.375 399.554688 360.960938 C 399.140625 360.550781 398.699219 360.175781 398.222656 359.839844 C 397.746094 359.503906 397.246094 359.210938 396.71875 358.957031 C 396.191406 358.707031 395.648438 358.5 395.089844 358.339844 C 394.527344 358.179688 393.957031 358.070312 393.375 358.007812 C 389.683594 357.640625 385.984375 357.472656 382.273438 357.5 C 385.984375 357.53125 389.683594 357.363281 393.375 356.996094 C 393.957031 356.933594 394.527344 356.820312 395.089844 356.664062 C 395.648438 356.503906 396.191406 356.296875 396.71875 356.046875 C 397.246094 355.792969 397.746094 355.5 398.222656 355.164062 C 398.699219 354.828125 399.140625 354.453125 399.554688 354.039062 C 399.96875 353.628906 400.34375 353.1875 400.679688 352.710938 C 401.015625 352.234375 401.3125 351.734375 401.5625 351.210938 C 401.816406 350.6875 402.023438 350.144531 402.183594 349.582031 C 402.339844 349.023438 402.453125 348.453125 402.515625 347.875 C 402.886719 344.191406 403.054688 340.5 403.027344 336.796875 C 402.996094 340.5 403.160156 344.191406 403.527344 347.875 Z M 403.527344 347.875 " fill-opacity="1" fill-rule="nonzero"/></g><path fill="#c2c1fe" d="M 387.933594 307.015625 C 388.011719 307.730469 388.203125 308.40625 388.515625 309.054688 C 388.824219 309.699219 389.234375 310.273438 389.742188 310.78125 C 390.25 311.289062 390.824219 311.695312 391.472656 312.003906 C 392.121094 312.3125 392.800781 312.507812 393.511719 312.585938 C 395.765625 312.808594 398.027344 312.914062 400.292969 312.894531 C 398.027344 312.875 395.765625 312.976562 393.511719 313.203125 C 392.800781 313.28125 392.121094 313.472656 391.472656 313.78125 C 390.824219 314.09375 390.25 314.5 389.742188 315.007812 C 389.234375 315.511719 388.824219 316.089844 388.515625 316.734375 C 388.203125 317.378906 388.011719 318.058594 387.933594 318.769531 C 387.707031 321.019531 387.605469 323.273438 387.625 325.535156 C 387.640625 323.273438 387.539062 321.019531 387.3125 318.769531 C 387.234375 318.058594 387.042969 317.378906 386.730469 316.734375 C 386.421875 316.089844 386.011719 315.511719 385.503906 315.007812 C 385 314.5 384.421875 314.09375 383.773438 313.78125 C 383.128906 313.472656 382.445312 313.28125 381.734375 313.203125 C 379.480469 312.976562 377.21875 312.875 374.953125 312.894531 C 377.21875 312.914062 379.480469 312.808594 381.734375 312.585938 C 382.445312 312.507812 383.125 312.3125 383.773438 312.003906 C 384.421875 311.695312 384.996094 311.285156 385.503906 310.78125 C 386.011719 310.273438 386.421875 309.699219 386.730469 309.050781 C 387.039062 308.40625 387.234375 307.726562 387.3125 307.015625 C 387.539062 304.765625 387.640625 302.511719 387.625 300.25 C 387.605469 302.511719 387.707031 304.765625 387.933594 307.015625 Z M 387.933594 307.015625 " fill-opacity="1" fill-rule="nonzero"/></svg>