<svg xmlns="http://www.w3.org/2000/svg" xmlns:xlink="http://www.w3.org/1999/xlink" width="600" zoomAndPan="magnify" viewBox="0 0 450 449.999984" height="600" preserveAspectRatio="xMidYMid meet" version="1.0"><defs><clipPath id="e140d95c7f"><path d="M 6.34375 6.34375 L 443.59375 6.34375 L 443.59375 443.59375 L 6.34375 443.59375 Z M 6.34375 6.34375 " clip-rule="nonzero"/></clipPath></defs><g clip-path="url(#e140d95c7f)"><path fill="#ffffff" d="M 224.96875 6.34375 C 104.203125 6.34375 6.34375 104.203125 6.34375 224.96875 C 6.34375 345.730469 104.203125 443.59375 224.96875 443.59375 C 345.730469 443.59375 443.59375 345.730469 443.59375 224.96875 C 443.402344 104.203125 345.542969 6.34375 224.96875 6.34375 Z M 160.800781 341.378906 L 109.503906 341.378906 L 109.503906 175.941406 L 160.800781 175.941406 Z M 135.246094 153.984375 C 118.777344 153.984375 105.339844 140.546875 105.339844 124.078125 C 105.339844 107.609375 118.777344 94.171875 135.246094 94.171875 C 151.714844 94.171875 165.152344 107.609375 165.152344 124.078125 C 165.152344 140.546875 151.714844 153.984375 135.246094 153.984375 Z M 353.492188 341.378906 L 302.195312 341.378906 L 302.195312 258.660156 C 302.195312 246.925781 302.195312 217.773438 276.074219 217.773438 C 246.355469 217.773438 244.464844 247.871094 244.464844 247.871094 L 244.464844 341.378906 L 193.355469 341.378906 L 193.355469 175.941406 L 244.652344 175.941406 L 244.652344 198.65625 C 256.765625 174.050781 281.753906 172.15625 298.03125 172.15625 C 316.582031 172.15625 333.238281 179.347656 342.703125 195.25 C 350.84375 208.6875 353.492188 228.183594 353.492188 258.660156 Z M 353.492188 341.378906 " fill-opacity="1" fill-rule="nonzero"/></g></svg>