<svg xmlns="http://www.w3.org/2000/svg" xmlns:xlink="http://www.w3.org/1999/xlink" width="600" zoomAndPan="magnify" viewBox="0 0 450 449.999984" height="600" preserveAspectRatio="xMidYMid meet" version="1.0"><defs><clipPath id="aeea51f8a0"><path d="M 48.074219 258 L 85 258 L 85 297 L 48.074219 297 Z M 48.074219 258 " clip-rule="nonzero"/></clipPath><clipPath id="01ac8484a5"><path d="M 354.410156 41.75 L 388.574219 41.75 L 388.574219 78 L 354.410156 78 Z M 354.410156 41.75 " clip-rule="nonzero"/></clipPath><clipPath id="1d2d26d454"><path d="M 354 41.75 L 388.574219 41.75 L 388.574219 78 L 354 78 Z M 354 41.75 " clip-rule="nonzero"/></clipPath><clipPath id="3cfec5ab7b"><path d="M 67.160156 371.21875 L 102.472656 371.21875 L 102.472656 408.328125 L 67.160156 408.328125 Z M 67.160156 371.21875 " clip-rule="nonzero"/></clipPath><clipPath id="7987727685"><path d="M 67.160156 371.21875 L 103 371.21875 L 103 408.328125 L 67.160156 408.328125 Z M 67.160156 371.21875 " clip-rule="nonzero"/></clipPath><clipPath id="34e3695c56"><path d="M 96 203 L 192 203 L 192 232 L 96 232 Z M 96 203 " clip-rule="nonzero"/></clipPath><clipPath id="4211ca5222"><path d="M 26.917969 126.480469 L 203.4375 70.28125 L 283.980469 323.273438 L 107.460938 379.46875 Z M 26.917969 126.480469 " clip-rule="nonzero"/></clipPath><clipPath id="03cc120fc1"><path d="M 203.171875 70.367188 L 26.652344 126.566406 L 107.191406 379.554688 L 283.710938 323.355469 Z M 203.171875 70.367188 " clip-rule="nonzero"/></clipPath><clipPath id="7da33bf4f6"><path d="M 96 202 L 193 202 L 193 233 L 96 233 Z M 96 202 " clip-rule="nonzero"/></clipPath><clipPath id="9411137e53"><path d="M 26.917969 126.480469 L 203.4375 70.28125 L 283.980469 323.273438 L 107.460938 379.46875 Z M 26.917969 126.480469 " clip-rule="nonzero"/></clipPath><clipPath id="ae40562783"><path d="M 203.171875 70.367188 L 26.652344 126.566406 L 107.191406 379.554688 L 283.710938 323.355469 Z M 203.171875 70.367188 " clip-rule="nonzero"/></clipPath><clipPath id="e063346d45"><path d="M 102 203 L 192 203 L 192 219 L 102 219 Z M 102 203 " clip-rule="nonzero"/></clipPath><clipPath id="6dc2ca2614"><path d="M 26.917969 126.480469 L 203.4375 70.28125 L 283.980469 323.273438 L 107.460938 379.46875 Z M 26.917969 126.480469 " clip-rule="nonzero"/></clipPath><clipPath id="26be1443fb"><path d="M 203.171875 70.367188 L 26.652344 126.566406 L 107.191406 379.554688 L 283.710938 323.355469 Z M 203.171875 70.367188 " clip-rule="nonzero"/></clipPath><clipPath id="ef7b2d5b8f"><path d="M 106 218 L 121 218 L 121 226 L 106 226 Z M 106 218 " clip-rule="nonzero"/></clipPath><clipPath id="79edc3bf9e"><path d="M 26.917969 126.480469 L 203.4375 70.28125 L 283.980469 323.273438 L 107.460938 379.46875 Z M 26.917969 126.480469 " clip-rule="nonzero"/></clipPath><clipPath id="64820b23eb"><path d="M 203.171875 70.367188 L 26.652344 126.566406 L 107.191406 379.554688 L 283.710938 323.355469 Z M 203.171875 70.367188 " clip-rule="nonzero"/></clipPath><clipPath id="9c42656e1d"><path d="M 123 212 L 149 212 L 149 232 L 123 232 Z M 123 212 " clip-rule="nonzero"/></clipPath><clipPath id="8b5250c2bf"><path d="M 26.917969 126.480469 L 203.4375 70.28125 L 283.980469 323.273438 L 107.460938 379.46875 Z M 26.917969 126.480469 " clip-rule="nonzero"/></clipPath><clipPath id="92e6f32280"><path d="M 203.171875 70.367188 L 26.652344 126.566406 L 107.191406 379.554688 L 283.710938 323.355469 Z M 203.171875 70.367188 " clip-rule="nonzero"/></clipPath><clipPath id="0b49628e21"><path d="M 130 205 L 162 205 L 162 211 L 130 211 Z M 130 205 " clip-rule="nonzero"/></clipPath><clipPath id="e3acbfc551"><path d="M 26.917969 126.480469 L 203.4375 70.28125 L 283.980469 323.273438 L 107.460938 379.46875 Z M 26.917969 126.480469 " clip-rule="nonzero"/></clipPath><clipPath id="affded0e08"><path d="M 203.171875 70.367188 L 26.652344 126.566406 L 107.191406 379.554688 L 283.710938 323.355469 Z M 203.171875 70.367188 " clip-rule="nonzero"/></clipPath><clipPath id="f0cd014a45"><path d="M 142 208 L 169 208 L 169 231 L 142 231 Z M 142 208 " clip-rule="nonzero"/></clipPath><clipPath id="0a5cb9ae5a"><path d="M 26.917969 126.480469 L 203.4375 70.28125 L 283.980469 323.273438 L 107.460938 379.46875 Z M 26.917969 126.480469 " clip-rule="nonzero"/></clipPath><clipPath id="430ffc3c4a"><path d="M 203.171875 70.367188 L 26.652344 126.566406 L 107.191406 379.554688 L 283.710938 323.355469 Z M 203.171875 70.367188 " clip-rule="nonzero"/></clipPath><clipPath id="075ffb3f4d"><path d="M 163 205 L 184 205 L 184 224 L 163 224 Z M 163 205 " clip-rule="nonzero"/></clipPath><clipPath id="0726480843"><path d="M 26.917969 126.480469 L 203.4375 70.28125 L 283.980469 323.273438 L 107.460938 379.46875 Z M 26.917969 126.480469 " clip-rule="nonzero"/></clipPath><clipPath id="5d527259b0"><path d="M 203.171875 70.367188 L 26.652344 126.566406 L 107.191406 379.554688 L 283.710938 323.355469 Z M 203.171875 70.367188 " clip-rule="nonzero"/></clipPath><clipPath id="9969f01c4c"><path d="M 131 220 L 151 220 L 151 224 L 131 224 Z M 131 220 " clip-rule="nonzero"/></clipPath><clipPath id="4063c1c45c"><path d="M 26.917969 126.480469 L 203.4375 70.28125 L 283.980469 323.273438 L 107.460938 379.46875 Z M 26.917969 126.480469 " clip-rule="nonzero"/></clipPath><clipPath id="ebe447f128"><path d="M 203.171875 70.367188 L 26.652344 126.566406 L 107.191406 379.554688 L 283.710938 323.355469 Z M 203.171875 70.367188 " clip-rule="nonzero"/></clipPath><clipPath id="39683f60a9"><path d="M 153 212 L 174 212 L 174 219 L 153 219 Z M 153 212 " clip-rule="nonzero"/></clipPath><clipPath id="8709764291"><path d="M 26.917969 126.480469 L 203.4375 70.28125 L 283.980469 323.273438 L 107.460938 379.46875 Z M 26.917969 126.480469 " clip-rule="nonzero"/></clipPath><clipPath id="1ea26d6aa6"><path d="M 203.171875 70.367188 L 26.652344 126.566406 L 107.191406 379.554688 L 283.710938 323.355469 Z M 203.171875 70.367188 " clip-rule="nonzero"/></clipPath><clipPath id="aa7ff35c7a"><path d="M 117 208 L 134 208 L 134 217 L 117 217 Z M 117 208 " clip-rule="nonzero"/></clipPath><clipPath id="9ae50e0fb1"><path d="M 26.917969 126.480469 L 203.4375 70.28125 L 283.980469 323.273438 L 107.460938 379.46875 Z M 26.917969 126.480469 " clip-rule="nonzero"/></clipPath><clipPath id="217d08baca"><path d="M 203.171875 70.367188 L 26.652344 126.566406 L 107.191406 379.554688 L 283.710938 323.355469 Z M 203.171875 70.367188 " clip-rule="nonzero"/></clipPath><clipPath id="f89461d724"><path d="M 159 203 L 171 203 L 171 209 L 159 209 Z M 159 203 " clip-rule="nonzero"/></clipPath><clipPath id="6e6a22e92e"><path d="M 26.917969 126.480469 L 203.4375 70.28125 L 283.980469 323.273438 L 107.460938 379.46875 Z M 26.917969 126.480469 " clip-rule="nonzero"/></clipPath><clipPath id="7867b97be5"><path d="M 203.171875 70.367188 L 26.652344 126.566406 L 107.191406 379.554688 L 283.710938 323.355469 Z M 203.171875 70.367188 " clip-rule="nonzero"/></clipPath><clipPath id="98d65d5674"><path d="M 111 221 L 129 221 L 129 227 L 111 227 Z M 111 221 " clip-rule="nonzero"/></clipPath><clipPath id="fb7a57e5d1"><path d="M 26.917969 126.480469 L 203.4375 70.28125 L 283.980469 323.273438 L 107.460938 379.46875 Z M 26.917969 126.480469 " clip-rule="nonzero"/></clipPath><clipPath id="0a1c5f328a"><path d="M 203.171875 70.367188 L 26.652344 126.566406 L 107.191406 379.554688 L 283.710938 323.355469 Z M 203.171875 70.367188 " clip-rule="nonzero"/></clipPath><clipPath id="e1ad3d9e41"><path d="M 87 107 L 195 107 L 195 205 L 87 205 Z M 87 107 " clip-rule="nonzero"/></clipPath><clipPath id="11b6e31076"><path d="M 26.917969 126.480469 L 203.4375 70.28125 L 283.980469 323.273438 L 107.460938 379.46875 Z M 26.917969 126.480469 " clip-rule="nonzero"/></clipPath><clipPath id="5c0c5d0c48"><path d="M 203.171875 70.367188 L 26.652344 126.566406 L 107.191406 379.554688 L 283.710938 323.355469 Z M 203.171875 70.367188 " clip-rule="nonzero"/></clipPath><clipPath id="d59110f19e"><path d="M 87 107 L 195 107 L 195 206 L 87 206 Z M 87 107 " clip-rule="nonzero"/></clipPath><clipPath id="9a3351d289"><path d="M 26.917969 126.480469 L 203.4375 70.28125 L 283.980469 323.273438 L 107.460938 379.46875 Z M 26.917969 126.480469 " clip-rule="nonzero"/></clipPath><clipPath id="b0ffe9efc6"><path d="M 203.171875 70.367188 L 26.652344 126.566406 L 107.191406 379.554688 L 283.710938 323.355469 Z M 203.171875 70.367188 " clip-rule="nonzero"/></clipPath><clipPath id="f8d4d1b81c"><path d="M 97 110 L 195 110 L 195 205 L 97 205 Z M 97 110 " clip-rule="nonzero"/></clipPath><clipPath id="decdd181df"><path d="M 26.917969 126.480469 L 203.4375 70.28125 L 283.980469 323.273438 L 107.460938 379.46875 Z M 26.917969 126.480469 " clip-rule="nonzero"/></clipPath><clipPath id="0ba87b1528"><path d="M 203.171875 70.367188 L 26.652344 126.566406 L 107.191406 379.554688 L 283.710938 323.355469 Z M 203.171875 70.367188 " clip-rule="nonzero"/></clipPath><clipPath id="c640be3168"><path d="M 88 124 L 111 124 L 111 136 L 88 136 Z M 88 124 " clip-rule="nonzero"/></clipPath><clipPath id="b393e4f554"><path d="M 26.917969 126.480469 L 203.4375 70.28125 L 283.980469 323.273438 L 107.460938 379.46875 Z M 26.917969 126.480469 " clip-rule="nonzero"/></clipPath><clipPath id="cb09d7803c"><path d="M 203.171875 70.367188 L 26.652344 126.566406 L 107.191406 379.554688 L 283.710938 323.355469 Z M 203.171875 70.367188 " clip-rule="nonzero"/></clipPath><clipPath id="c201e0485d"><path d="M 98 151 L 143 151 L 143 163 L 98 163 Z M 98 151 " clip-rule="nonzero"/></clipPath><clipPath id="576666aa94"><path d="M 26.917969 126.480469 L 203.4375 70.28125 L 283.980469 323.273438 L 107.460938 379.46875 Z M 26.917969 126.480469 " clip-rule="nonzero"/></clipPath><clipPath id="a21da25552"><path d="M 203.171875 70.367188 L 26.652344 126.566406 L 107.191406 379.554688 L 283.710938 323.355469 Z M 203.171875 70.367188 " clip-rule="nonzero"/></clipPath><clipPath id="86aa692407"><path d="M 133 134 L 159 134 L 159 176 L 133 176 Z M 133 134 " clip-rule="nonzero"/></clipPath><clipPath id="2ee5701884"><path d="M 26.917969 126.480469 L 203.4375 70.28125 L 283.980469 323.273438 L 107.460938 379.46875 Z M 26.917969 126.480469 " clip-rule="nonzero"/></clipPath><clipPath id="650bde39d9"><path d="M 203.171875 70.367188 L 26.652344 126.566406 L 107.191406 379.554688 L 283.710938 323.355469 Z M 203.171875 70.367188 " clip-rule="nonzero"/></clipPath><clipPath id="9c9d393727"><path d="M 116 171 L 167 171 L 167 183 L 116 183 Z M 116 171 " clip-rule="nonzero"/></clipPath><clipPath id="14ebd5d055"><path d="M 26.917969 126.480469 L 203.4375 70.28125 L 283.980469 323.273438 L 107.460938 379.46875 Z M 26.917969 126.480469 " clip-rule="nonzero"/></clipPath><clipPath id="1a4b4e9ef4"><path d="M 203.171875 70.367188 L 26.652344 126.566406 L 107.191406 379.554688 L 283.710938 323.355469 Z M 203.171875 70.367188 " clip-rule="nonzero"/></clipPath><clipPath id="91d1c6cdec"><path d="M 144 190 L 184 190 L 184 197 L 144 197 Z M 144 190 " clip-rule="nonzero"/></clipPath><clipPath id="571dff02ce"><path d="M 26.917969 126.480469 L 203.4375 70.28125 L 283.980469 323.273438 L 107.460938 379.46875 Z M 26.917969 126.480469 " clip-rule="nonzero"/></clipPath><clipPath id="8488bb0a2a"><path d="M 203.171875 70.367188 L 26.652344 126.566406 L 107.191406 379.554688 L 283.710938 323.355469 Z M 203.171875 70.367188 " clip-rule="nonzero"/></clipPath><clipPath id="b9ec3c3b6a"><path d="M 115 152 L 136 152 L 136 173 L 115 173 Z M 115 152 " clip-rule="nonzero"/></clipPath><clipPath id="dffd704ef8"><path d="M 26.917969 126.480469 L 203.4375 70.28125 L 283.980469 323.273438 L 107.460938 379.46875 Z M 26.917969 126.480469 " clip-rule="nonzero"/></clipPath><clipPath id="f82610c7a4"><path d="M 203.171875 70.367188 L 26.652344 126.566406 L 107.191406 379.554688 L 283.710938 323.355469 Z M 203.171875 70.367188 " clip-rule="nonzero"/></clipPath><clipPath id="5ead9ccd08"><path d="M 140 172 L 167 172 L 167 193 L 140 193 Z M 140 172 " clip-rule="nonzero"/></clipPath><clipPath id="b74a288abf"><path d="M 26.917969 126.480469 L 203.4375 70.28125 L 283.980469 323.273438 L 107.460938 379.46875 Z M 26.917969 126.480469 " clip-rule="nonzero"/></clipPath><clipPath id="2e91fef52e"><path d="M 203.171875 70.367188 L 26.652344 126.566406 L 107.191406 379.554688 L 283.710938 323.355469 Z M 203.171875 70.367188 " clip-rule="nonzero"/></clipPath><clipPath id="92f5aa3d39"><path d="M 118 122 L 126 122 L 126 149 L 118 149 Z M 118 122 " clip-rule="nonzero"/></clipPath><clipPath id="e4b1eb6dbe"><path d="M 26.917969 126.480469 L 203.4375 70.28125 L 283.980469 323.273438 L 107.460938 379.46875 Z M 26.917969 126.480469 " clip-rule="nonzero"/></clipPath><clipPath id="f59c5e49d7"><path d="M 203.171875 70.367188 L 26.652344 126.566406 L 107.191406 379.554688 L 283.710938 323.355469 Z M 203.171875 70.367188 " clip-rule="nonzero"/></clipPath><clipPath id="1c0d8e83aa"><path d="M 164 166 L 169 166 L 169 185 L 164 185 Z M 164 166 " clip-rule="nonzero"/></clipPath><clipPath id="1abdb9ac97"><path d="M 26.917969 126.480469 L 203.4375 70.28125 L 283.980469 323.273438 L 107.460938 379.46875 Z M 26.917969 126.480469 " clip-rule="nonzero"/></clipPath><clipPath id="000e6e589e"><path d="M 203.171875 70.367188 L 26.652344 126.566406 L 107.191406 379.554688 L 283.710938 323.355469 Z M 203.171875 70.367188 " clip-rule="nonzero"/></clipPath><clipPath id="41bdbf9934"><path d="M 97 128 L 110 128 L 110 152 L 97 152 Z M 97 128 " clip-rule="nonzero"/></clipPath><clipPath id="1502b6f20c"><path d="M 26.917969 126.480469 L 203.4375 70.28125 L 283.980469 323.273438 L 107.460938 379.46875 Z M 26.917969 126.480469 " clip-rule="nonzero"/></clipPath><clipPath id="b1fbf03118"><path d="M 203.171875 70.367188 L 26.652344 126.566406 L 107.191406 379.554688 L 283.710938 323.355469 Z M 203.171875 70.367188 " clip-rule="nonzero"/></clipPath><clipPath id="16adb62951"><path d="M 79 118 L 195 118 L 195 205 L 79 205 Z M 79 118 " clip-rule="nonzero"/></clipPath><clipPath id="21d7d7d263"><path d="M 26.917969 126.480469 L 203.4375 70.28125 L 283.980469 323.273438 L 107.460938 379.46875 Z M 26.917969 126.480469 " clip-rule="nonzero"/></clipPath><clipPath id="fa2f3f0809"><path d="M 203.171875 70.367188 L 26.652344 126.566406 L 107.191406 379.554688 L 283.710938 323.355469 Z M 203.171875 70.367188 " clip-rule="nonzero"/></clipPath><clipPath id="9acadd6d79"><path d="M 79 117 L 196 117 L 196 206 L 79 206 Z M 79 117 " clip-rule="nonzero"/></clipPath><clipPath id="6b4b5268d8"><path d="M 26.917969 126.480469 L 203.4375 70.28125 L 283.980469 323.273438 L 107.460938 379.46875 Z M 26.917969 126.480469 " clip-rule="nonzero"/></clipPath><clipPath id="e1bb98e4e2"><path d="M 203.171875 70.367188 L 26.652344 126.566406 L 107.191406 379.554688 L 283.710938 323.355469 Z M 203.171875 70.367188 " clip-rule="nonzero"/></clipPath><clipPath id="2fad8cdba4"><path d="M 88 120 L 195 120 L 195 205 L 88 205 Z M 88 120 " clip-rule="nonzero"/></clipPath><clipPath id="78b96e6065"><path d="M 26.917969 126.480469 L 203.4375 70.28125 L 283.980469 323.273438 L 107.460938 379.46875 Z M 26.917969 126.480469 " clip-rule="nonzero"/></clipPath><clipPath id="6068232913"><path d="M 203.171875 70.367188 L 26.652344 126.566406 L 107.191406 379.554688 L 283.710938 323.355469 Z M 203.171875 70.367188 " clip-rule="nonzero"/></clipPath><clipPath id="a279885576"><path d="M 81 135 L 105 135 L 105 144 L 81 144 Z M 81 135 " clip-rule="nonzero"/></clipPath><clipPath id="81c858efe8"><path d="M 26.917969 126.480469 L 203.4375 70.28125 L 283.980469 323.273438 L 107.460938 379.46875 Z M 26.917969 126.480469 " clip-rule="nonzero"/></clipPath><clipPath id="ddc7ca0d94"><path d="M 203.171875 70.367188 L 26.652344 126.566406 L 107.191406 379.554688 L 283.710938 323.355469 Z M 203.171875 70.367188 " clip-rule="nonzero"/></clipPath><clipPath id="9e0e3eec9b"><path d="M 93 160 L 140 160 L 140 168 L 93 168 Z M 93 160 " clip-rule="nonzero"/></clipPath><clipPath id="41aa28df5f"><path d="M 26.917969 126.480469 L 203.4375 70.28125 L 283.980469 323.273438 L 107.460938 379.46875 Z M 26.917969 126.480469 " clip-rule="nonzero"/></clipPath><clipPath id="c3ce9f10cb"><path d="M 203.171875 70.367188 L 26.652344 126.566406 L 107.191406 379.554688 L 283.710938 323.355469 Z M 203.171875 70.367188 " clip-rule="nonzero"/></clipPath><clipPath id="4733b41b14"><path d="M 127 140 L 156 140 L 156 179 L 127 179 Z M 127 140 " clip-rule="nonzero"/></clipPath><clipPath id="4423d1d71a"><path d="M 26.917969 126.480469 L 203.4375 70.28125 L 283.980469 323.273438 L 107.460938 379.46875 Z M 26.917969 126.480469 " clip-rule="nonzero"/></clipPath><clipPath id="f86e57e54a"><path d="M 203.171875 70.367188 L 26.652344 126.566406 L 107.191406 379.554688 L 283.710938 323.355469 Z M 203.171875 70.367188 " clip-rule="nonzero"/></clipPath><clipPath id="7a2edae8ac"><path d="M 113 178 L 165 178 L 165 185 L 113 185 Z M 113 178 " clip-rule="nonzero"/></clipPath><clipPath id="638e0cfce2"><path d="M 26.917969 126.480469 L 203.4375 70.28125 L 283.980469 323.273438 L 107.460938 379.46875 Z M 26.917969 126.480469 " clip-rule="nonzero"/></clipPath><clipPath id="3458963c20"><path d="M 203.171875 70.367188 L 26.652344 126.566406 L 107.191406 379.554688 L 283.710938 323.355469 Z M 203.171875 70.367188 " clip-rule="nonzero"/></clipPath><clipPath id="6bbe2fa23d"><path d="M 143 194 L 184 194 L 184 198 L 143 198 Z M 143 194 " clip-rule="nonzero"/></clipPath><clipPath id="db34adc7e7"><path d="M 26.917969 126.480469 L 203.4375 70.28125 L 283.980469 323.273438 L 107.460938 379.46875 Z M 26.917969 126.480469 " clip-rule="nonzero"/></clipPath><clipPath id="468d7bc655"><path d="M 203.171875 70.367188 L 26.652344 126.566406 L 107.191406 379.554688 L 283.710938 323.355469 Z M 203.171875 70.367188 " clip-rule="nonzero"/></clipPath><clipPath id="03e72e941d"><path d="M 110 160 L 134 160 L 134 179 L 110 179 Z M 110 160 " clip-rule="nonzero"/></clipPath><clipPath id="8e4c9444cc"><path d="M 26.917969 126.480469 L 203.4375 70.28125 L 283.980469 323.273438 L 107.460938 379.46875 Z M 26.917969 126.480469 " clip-rule="nonzero"/></clipPath><clipPath id="ddcd1edc34"><path d="M 203.171875 70.367188 L 26.652344 126.566406 L 107.191406 379.554688 L 283.710938 323.355469 Z M 203.171875 70.367188 " clip-rule="nonzero"/></clipPath><clipPath id="b7dc62421d"><path d="M 138 178 L 166 178 L 166 196 L 138 196 Z M 138 178 " clip-rule="nonzero"/></clipPath><clipPath id="79748f6fb7"><path d="M 26.917969 126.480469 L 203.4375 70.28125 L 283.980469 323.273438 L 107.460938 379.46875 Z M 26.917969 126.480469 " clip-rule="nonzero"/></clipPath><clipPath id="ae1b4a6208"><path d="M 203.171875 70.367188 L 26.652344 126.566406 L 107.191406 379.554688 L 283.710938 323.355469 Z M 203.171875 70.367188 " clip-rule="nonzero"/></clipPath><clipPath id="a01047fe90"><path d="M 111 130 L 121 130 L 121 156 L 111 156 Z M 111 130 " clip-rule="nonzero"/></clipPath><clipPath id="55bbf51ed4"><path d="M 26.917969 126.480469 L 203.4375 70.28125 L 283.980469 323.273438 L 107.460938 379.46875 Z M 26.917969 126.480469 " clip-rule="nonzero"/></clipPath><clipPath id="36a42eb36c"><path d="M 203.171875 70.367188 L 26.652344 126.566406 L 107.191406 379.554688 L 283.710938 323.355469 Z M 203.171875 70.367188 " clip-rule="nonzero"/></clipPath><clipPath id="e5cafe0802"><path d="M 160 169 L 168 169 L 168 187 L 160 187 Z M 160 169 " clip-rule="nonzero"/></clipPath><clipPath id="76f9d6b25e"><path d="M 26.917969 126.480469 L 203.4375 70.28125 L 283.980469 323.273438 L 107.460938 379.46875 Z M 26.917969 126.480469 " clip-rule="nonzero"/></clipPath><clipPath id="97a57abc6f"><path d="M 203.171875 70.367188 L 26.652344 126.566406 L 107.191406 379.554688 L 283.710938 323.355469 Z M 203.171875 70.367188 " clip-rule="nonzero"/></clipPath><clipPath id="bf0611ea6e"><path d="M 91 137 L 105 137 L 105 161 L 91 161 Z M 91 137 " clip-rule="nonzero"/></clipPath><clipPath id="58d7ed9e85"><path d="M 26.917969 126.480469 L 203.4375 70.28125 L 283.980469 323.273438 L 107.460938 379.46875 Z M 26.917969 126.480469 " clip-rule="nonzero"/></clipPath><clipPath id="417ec03585"><path d="M 203.171875 70.367188 L 26.652344 126.566406 L 107.191406 379.554688 L 283.710938 323.355469 Z M 203.171875 70.367188 " clip-rule="nonzero"/></clipPath><clipPath id="80d49eed48"><path d="M 98 204 L 193 204 L 193 239 L 98 239 Z M 98 204 " clip-rule="nonzero"/></clipPath><clipPath id="7e2231c311"><path d="M 26.917969 126.480469 L 203.4375 70.28125 L 283.980469 323.273438 L 107.460938 379.46875 Z M 26.917969 126.480469 " clip-rule="nonzero"/></clipPath><clipPath id="71b2d9860b"><path d="M 203.171875 70.367188 L 26.652344 126.566406 L 107.191406 379.554688 L 283.710938 323.355469 Z M 203.171875 70.367188 " clip-rule="nonzero"/></clipPath><clipPath id="7873fdfca3"><path d="M 98 203 L 193 203 L 193 239 L 98 239 Z M 98 203 " clip-rule="nonzero"/></clipPath><clipPath id="5f6d37c494"><path d="M 26.917969 126.480469 L 203.4375 70.28125 L 283.980469 323.273438 L 107.460938 379.46875 Z M 26.917969 126.480469 " clip-rule="nonzero"/></clipPath><clipPath id="f241dd63e1"><path d="M 203.171875 70.367188 L 26.652344 126.566406 L 107.191406 379.554688 L 283.710938 323.355469 Z M 203.171875 70.367188 " clip-rule="nonzero"/></clipPath><clipPath id="1d799eab9c"><path d="M 103 204 L 193 204 L 193 226 L 103 226 Z M 103 204 " clip-rule="nonzero"/></clipPath><clipPath id="1f77708361"><path d="M 26.917969 126.480469 L 203.4375 70.28125 L 283.980469 323.273438 L 107.460938 379.46875 Z M 26.917969 126.480469 " clip-rule="nonzero"/></clipPath><clipPath id="e5d4b29abe"><path d="M 203.171875 70.367188 L 26.652344 126.566406 L 107.191406 379.554688 L 283.710938 323.355469 Z M 203.171875 70.367188 " clip-rule="nonzero"/></clipPath><clipPath id="f127477681"><path d="M 108 225 L 123 225 L 123 234 L 108 234 Z M 108 225 " clip-rule="nonzero"/></clipPath><clipPath id="a34d097bc2"><path d="M 26.917969 126.480469 L 203.4375 70.28125 L 283.980469 323.273438 L 107.460938 379.46875 Z M 26.917969 126.480469 " clip-rule="nonzero"/></clipPath><clipPath id="d1a7be28f5"><path d="M 203.171875 70.367188 L 26.652344 126.566406 L 107.191406 379.554688 L 283.710938 323.355469 Z M 203.171875 70.367188 " clip-rule="nonzero"/></clipPath><clipPath id="aeae35c02b"><path d="M 126 217 L 150 217 L 150 239 L 126 239 Z M 126 217 " clip-rule="nonzero"/></clipPath><clipPath id="adc18104d7"><path d="M 26.917969 126.480469 L 203.4375 70.28125 L 283.980469 323.273438 L 107.460938 379.46875 Z M 26.917969 126.480469 " clip-rule="nonzero"/></clipPath><clipPath id="c87b0bf309"><path d="M 203.171875 70.367188 L 26.652344 126.566406 L 107.191406 379.554688 L 283.710938 323.355469 Z M 203.171875 70.367188 " clip-rule="nonzero"/></clipPath><clipPath id="2b6c1fbe84"><path d="M 130 212 L 163 212 L 163 215 L 130 215 Z M 130 212 " clip-rule="nonzero"/></clipPath><clipPath id="0ac78639d0"><path d="M 26.917969 126.480469 L 203.4375 70.28125 L 283.980469 323.273438 L 107.460938 379.46875 Z M 26.917969 126.480469 " clip-rule="nonzero"/></clipPath><clipPath id="2f28542c94"><path d="M 203.171875 70.367188 L 26.652344 126.566406 L 107.191406 379.554688 L 283.710938 323.355469 Z M 203.171875 70.367188 " clip-rule="nonzero"/></clipPath><clipPath id="eca24e3048"><path d="M 145 211 L 170 211 L 170 236 L 145 236 Z M 145 211 " clip-rule="nonzero"/></clipPath><clipPath id="bbbfb518f1"><path d="M 26.917969 126.480469 L 203.4375 70.28125 L 283.980469 323.273438 L 107.460938 379.46875 Z M 26.917969 126.480469 " clip-rule="nonzero"/></clipPath><clipPath id="8ea42457bb"><path d="M 203.171875 70.367188 L 26.652344 126.566406 L 107.191406 379.554688 L 283.710938 323.355469 Z M 203.171875 70.367188 " clip-rule="nonzero"/></clipPath><clipPath id="1cf1140c49"><path d="M 165 206 L 184 206 L 184 227 L 165 227 Z M 165 206 " clip-rule="nonzero"/></clipPath><clipPath id="1e31c2afab"><path d="M 26.917969 126.480469 L 203.4375 70.28125 L 283.980469 323.273438 L 107.460938 379.46875 Z M 26.917969 126.480469 " clip-rule="nonzero"/></clipPath><clipPath id="77a4839609"><path d="M 203.171875 70.367188 L 26.652344 126.566406 L 107.191406 379.554688 L 283.710938 323.355469 Z M 203.171875 70.367188 " clip-rule="nonzero"/></clipPath><clipPath id="6b2bc1a2dd"><path d="M 133 224 L 153 224 L 153 230 L 133 230 Z M 133 224 " clip-rule="nonzero"/></clipPath><clipPath id="26b330ac7e"><path d="M 26.917969 126.480469 L 203.4375 70.28125 L 283.980469 323.273438 L 107.460938 379.46875 Z M 26.917969 126.480469 " clip-rule="nonzero"/></clipPath><clipPath id="1d5623a3a2"><path d="M 203.171875 70.367188 L 26.652344 126.566406 L 107.191406 379.554688 L 283.710938 323.355469 Z M 203.171875 70.367188 " clip-rule="nonzero"/></clipPath><clipPath id="1d66a2161d"><path d="M 154 215 L 176 215 L 176 223 L 154 223 Z M 154 215 " clip-rule="nonzero"/></clipPath><clipPath id="b0dffdc440"><path d="M 26.917969 126.480469 L 203.4375 70.28125 L 283.980469 323.273438 L 107.460938 379.46875 Z M 26.917969 126.480469 " clip-rule="nonzero"/></clipPath><clipPath id="908fb70f96"><path d="M 203.171875 70.367188 L 26.652344 126.566406 L 107.191406 379.554688 L 283.710938 323.355469 Z M 203.171875 70.367188 " clip-rule="nonzero"/></clipPath><clipPath id="f524e1a086"><path d="M 118 216 L 136 216 L 136 223 L 118 223 Z M 118 216 " clip-rule="nonzero"/></clipPath><clipPath id="1408bb4073"><path d="M 26.917969 126.480469 L 203.4375 70.28125 L 283.980469 323.273438 L 107.460938 379.46875 Z M 26.917969 126.480469 " clip-rule="nonzero"/></clipPath><clipPath id="e0cb824ceb"><path d="M 203.171875 70.367188 L 26.652344 126.566406 L 107.191406 379.554688 L 283.710938 323.355469 Z M 203.171875 70.367188 " clip-rule="nonzero"/></clipPath><clipPath id="7c70b1d70d"><path d="M 159 206 L 172 206 L 172 212 L 159 212 Z M 159 206 " clip-rule="nonzero"/></clipPath><clipPath id="054e32109d"><path d="M 26.917969 126.480469 L 203.4375 70.28125 L 283.980469 323.273438 L 107.460938 379.46875 Z M 26.917969 126.480469 " clip-rule="nonzero"/></clipPath><clipPath id="cacf1d5b79"><path d="M 203.171875 70.367188 L 26.652344 126.566406 L 107.191406 379.554688 L 283.710938 323.355469 Z M 203.171875 70.367188 " clip-rule="nonzero"/></clipPath><clipPath id="043a034be2"><path d="M 113 229 L 132 229 L 132 233 L 113 233 Z M 113 229 " clip-rule="nonzero"/></clipPath><clipPath id="1b248a7599"><path d="M 26.917969 126.480469 L 203.4375 70.28125 L 283.980469 323.273438 L 107.460938 379.46875 Z M 26.917969 126.480469 " clip-rule="nonzero"/></clipPath><clipPath id="621c473bd5"><path d="M 203.171875 70.367188 L 26.652344 126.566406 L 107.191406 379.554688 L 283.710938 323.355469 Z M 203.171875 70.367188 " clip-rule="nonzero"/></clipPath><clipPath id="df9c58c6e1"><path d="M 171 143 L 235 143 L 235 206 L 171 206 Z M 171 143 " clip-rule="nonzero"/></clipPath><clipPath id="054f1d3485"><path d="M 26.917969 126.480469 L 203.4375 70.28125 L 283.980469 323.273438 L 107.460938 379.46875 Z M 26.917969 126.480469 " clip-rule="nonzero"/></clipPath><clipPath id="0e405b30fb"><path d="M 203.171875 70.367188 L 26.652344 126.566406 L 107.191406 379.554688 L 283.710938 323.355469 Z M 203.171875 70.367188 " clip-rule="nonzero"/></clipPath><clipPath id="e809e3fd03"><path d="M 106 197 L 220 197 L 220 380 L 106 380 Z M 106 197 " clip-rule="nonzero"/></clipPath><clipPath id="383e852c46"><path d="M 26.917969 126.480469 L 203.4375 70.28125 L 283.980469 323.273438 L 107.460938 379.46875 Z M 26.917969 126.480469 " clip-rule="nonzero"/></clipPath><clipPath id="b6a53f3562"><path d="M 203.171875 70.367188 L 26.652344 126.566406 L 107.191406 379.554688 L 283.710938 323.355469 Z M 203.171875 70.367188 " clip-rule="nonzero"/></clipPath><clipPath id="c4cad4dfa1"><path d="M 208.894531 193.921875 L 62.480469 240.535156 L 106.863281 379.949219 L 253.277344 333.335938 Z M 208.894531 193.921875 " clip-rule="nonzero"/></clipPath><clipPath id="7ef2ff1170"><path d="M 208.894531 193.921875 L 62.914062 240.398438 L 107.167969 379.414062 L 253.148438 332.941406 Z M 208.894531 193.921875 " clip-rule="nonzero"/></clipPath><clipPath id="9274f15a27"><path d="M 199 244 L 244 244 L 244 286 L 199 286 Z M 199 244 " clip-rule="nonzero"/></clipPath><clipPath id="f47233a904"><path d="M 26.917969 126.480469 L 203.4375 70.28125 L 283.980469 323.273438 L 107.460938 379.46875 Z M 26.917969 126.480469 " clip-rule="nonzero"/></clipPath><clipPath id="9eefb2a3da"><path d="M 203.171875 70.367188 L 26.652344 126.566406 L 107.191406 379.554688 L 283.710938 323.355469 Z M 203.171875 70.367188 " clip-rule="nonzero"/></clipPath><clipPath id="3ce58d2046"><path d="M 115 198 L 200 198 L 200 270 L 115 270 Z M 115 198 " clip-rule="nonzero"/></clipPath><clipPath id="d54b582614"><path d="M 26.917969 126.480469 L 203.4375 70.28125 L 283.980469 323.273438 L 107.460938 379.46875 Z M 26.917969 126.480469 " clip-rule="nonzero"/></clipPath><clipPath id="4734d8f729"><path d="M 203.171875 70.367188 L 26.652344 126.566406 L 107.191406 379.554688 L 283.710938 323.355469 Z M 203.171875 70.367188 " clip-rule="nonzero"/></clipPath></defs><path fill="#c2c1fe" d="M 72.621094 174.625 C 75.703125 191.3125 74.949219 192.707031 59.683594 198.613281 C 75.671875 195.394531 77.007812 196.183594 82.667969 212.117188 C 79.589844 195.429688 80.339844 194.035156 95.609375 188.128906 C 79.621094 191.34375 78.28125 190.558594 72.621094 174.625 " fill-opacity="1" fill-rule="nonzero"/><path fill="#c2c1fe" d="M 70.308594 196.625 C 75.992188 196.625 78.273438 199.292969 81.316406 207.070312 C 79.679688 196.355469 81.195312 193.613281 90.910156 189.5 C 80.5625 191.238281 77.902344 189.710938 73.976562 179.671875 C 75.613281 190.386719 74.09375 193.128906 64.378906 197.242188 C 66.714844 196.851562 68.65625 196.625 70.308594 196.625 Z M 82.21875 212.277344 C 76.621094 196.519531 75.570312 195.902344 59.777344 199.082031 L 59.511719 198.167969 C 74.609375 192.324219 75.203125 191.230469 72.152344 174.714844 L 73.074219 174.46875 C 78.667969 190.21875 79.714844 190.835938 95.515625 187.660156 L 95.78125 188.574219 C 80.679688 194.414062 80.089844 195.511719 83.140625 212.03125 L 82.21875 212.277344 " fill-opacity="1" fill-rule="nonzero"/><path fill="#c2c1fe" d="M 172.074219 247.882812 C 176.132812 264.332031 175.464844 265.777344 160.574219 272.652344 C 176.339844 268.417969 177.722656 269.117188 184.3125 284.652344 C 180.253906 268.199219 180.921875 266.757812 195.8125 259.878906 C 180.042969 264.117188 178.664062 263.417969 172.074219 247.882812 " fill-opacity="1" fill-rule="nonzero"/><path fill="#c2c1fe" d="M 172.078125 269.953125 C 177.039062 269.953125 179.386719 272.609375 182.667969 279.710938 C 180.398438 269.117188 181.746094 266.28125 191.195312 261.550781 C 180.980469 263.953125 178.230469 262.59375 173.71875 252.820312 C 175.988281 263.417969 174.636719 266.25 165.1875 270.980469 C 167.980469 270.324219 170.210938 269.953125 172.078125 269.953125 Z M 183.871094 284.839844 C 177.359375 269.476562 176.277344 268.929688 160.699219 273.113281 L 160.375 272.21875 C 175.105469 265.417969 175.628906 264.285156 171.609375 247.996094 L 172.511719 247.695312 C 179.023438 263.054688 180.109375 263.601562 195.6875 259.421875 L 196.011719 260.316406 C 181.285156 267.117188 180.757812 268.246094 184.773438 284.539062 L 183.871094 284.839844 " fill-opacity="1" fill-rule="nonzero"/><g clip-path="url(#aeea51f8a0)"><path fill="#c2c1fe" d="M 71.007812 258.484375 C 65.597656 274.511719 64.277344 275.324219 48.238281 272.378906 C 63.597656 278.023438 64.375 279.40625 61.554688 296.144531 C 66.964844 280.113281 68.289062 279.308594 84.324219 282.246094 C 68.964844 276.601562 68.195312 275.21875 71.007812 258.484375 " fill-opacity="1" fill-rule="nonzero"/><path fill="#c2c1fe" d="M 52.957031 273.671875 C 62.738281 277.617188 64.292969 280.328125 62.828125 291.074219 C 66.597656 280.96875 69.234375 279.398438 79.605469 280.957031 C 69.828125 277.007812 68.269531 274.296875 69.738281 263.554688 C 65.964844 273.660156 63.332031 275.230469 52.957031 273.671875 Z M 62.007812 296.296875 L 61.085938 296.0625 C 63.875 279.496094 63.265625 278.410156 48.074219 272.828125 L 48.324219 271.910156 C 64.167969 274.816406 65.207031 274.183594 70.558594 258.335938 L 71.480469 258.566406 C 68.691406 275.132812 69.296875 276.21875 84.488281 281.800781 L 84.238281 282.71875 C 68.394531 279.8125 67.355469 280.445312 62.007812 296.296875 " fill-opacity="1" fill-rule="nonzero"/></g><path fill="#c2c1fe" d="M 283.894531 59.863281 C 279.863281 76.324219 278.613281 77.253906 262.390625 75.800781 C 278.164062 80.007812 279.054688 81.3125 277.660156 98.242188 C 281.691406 81.777344 282.945312 80.855469 299.167969 82.308594 C 283.390625 78.097656 282.503906 76.792969 283.894531 59.863281 " fill-opacity="1" fill-rule="nonzero"/><path fill="#c2c1fe" d="M 267.191406 76.648438 C 277.269531 79.679688 279.054688 82.238281 278.5 93.070312 C 281.402344 82.660156 283.886719 80.855469 294.363281 81.457031 C 284.285156 78.425781 282.5 75.867188 283.058594 65.035156 C 280.15625 75.445312 277.660156 77.253906 267.191406 76.648438 Z M 278.125 98.355469 L 277.1875 98.203125 C 278.5625 81.445312 277.863281 80.421875 262.265625 76.261719 L 262.429688 75.320312 C 278.460938 76.757812 279.441406 76.035156 283.433594 59.75 L 284.371094 59.902344 C 282.992188 76.660156 283.691406 77.683594 299.292969 81.847656 L 299.125 82.78125 C 283.09375 81.347656 282.113281 82.074219 278.125 98.355469 " fill-opacity="1" fill-rule="nonzero"/><g clip-path="url(#01ac8484a5)"><path fill="#c2c1fe" d="M 363.535156 41.984375 C 369.238281 57.898438 368.722656 59.40625 354.613281 67.882812 C 369.863281 61.933594 371.304688 62.472656 379.433594 77.199219 C 373.726562 61.28125 374.246094 59.777344 388.355469 51.292969 C 373.105469 57.25 371.664062 56.703125 363.535156 41.984375 " fill-opacity="1" fill-rule="nonzero"/></g><g clip-path="url(#1d2d26d454)"><path fill="#c2c1fe" d="M 367.074219 63.855469 C 371.199219 63.855469 373.679688 66.375 377.300781 72.476562 C 373.964844 62.183594 375.015625 59.214844 383.925781 53.472656 C 374.011719 56.980469 371.148438 55.925781 365.667969 46.707031 C 369 57 367.953125 59.964844 359.042969 65.707031 C 362.402344 64.519531 364.957031 63.855469 367.074219 63.855469 Z M 379.019531 77.429688 C 370.980469 62.875 369.851562 62.449219 354.789062 68.332031 L 354.367188 67.476562 C 368.328125 59.082031 368.738281 57.902344 363.085938 42.144531 L 363.953125 41.753906 C 371.988281 56.304688 373.121094 56.730469 388.183594 50.851562 L 388.601562 51.703125 C 374.640625 60.09375 374.234375 61.277344 379.882812 77.035156 L 379.019531 77.429688 " fill-opacity="1" fill-rule="nonzero"/></g><path fill="#c2c1fe" d="M 166.640625 166.429688 C 159.226562 181.554688 157.808594 182.171875 142.296875 177.019531 C 156.789062 184.757812 157.378906 186.234375 152.441406 202.425781 C 159.855469 187.296875 161.273438 186.683594 176.789062 191.835938 C 162.292969 184.097656 161.703125 182.621094 166.640625 166.429688 " fill-opacity="1" fill-rule="nonzero"/><path fill="#c2c1fe" d="M 146.816406 178.960938 C 155.996094 184.234375 157.1875 187.140625 154.347656 197.59375 C 159.382812 188.097656 162.199219 186.90625 172.265625 189.894531 C 163.085938 184.617188 161.894531 181.714844 164.734375 171.261719 C 159.699219 180.753906 156.886719 181.949219 146.816406 178.960938 Z M 152.871094 202.636719 L 151.984375 202.285156 C 156.875 186.257812 156.414062 185.097656 142.066406 177.4375 L 142.445312 176.566406 C 157.769531 181.65625 158.878906 181.171875 166.210938 166.21875 L 167.097656 166.566406 C 162.210938 182.597656 162.671875 183.761719 177.011719 191.414062 L 176.640625 192.289062 C 161.316406 187.199219 160.199219 187.679688 152.871094 202.636719 " fill-opacity="1" fill-rule="nonzero"/><path fill="#c2c1fe" d="M 265.308594 219.3125 C 267.21875 236.183594 266.371094 237.519531 250.734375 242.253906 C 266.90625 240.257812 268.183594 241.144531 272.714844 257.460938 C 270.808594 240.589844 271.652344 239.253906 287.296875 234.519531 C 271.125 236.515625 269.84375 235.628906 265.308594 219.3125 " fill-opacity="1" fill-rule="nonzero"/><path fill="#c2c1fe" d="M 259.761719 241.015625 C 266.742188 241.015625 268.992188 243.585938 271.71875 252.324219 C 270.832031 241.515625 272.535156 238.894531 282.515625 235.53125 C 272.074219 236.480469 269.523438 234.757812 266.308594 224.453125 C 267.191406 235.257812 265.488281 237.878906 255.507812 241.242188 C 257.101562 241.101562 258.507812 241.015625 259.761719 241.015625 Z M 272.257812 257.589844 C 267.773438 241.453125 266.769531 240.757812 250.792969 242.726562 L 250.59375 241.796875 C 266.0625 237.117188 266.726562 236.070312 264.835938 219.363281 L 265.765625 219.183594 C 270.25 235.324219 271.261719 236.015625 287.234375 234.046875 L 287.429688 234.980469 C 271.964844 239.65625 271.300781 240.707031 273.191406 257.410156 L 272.257812 257.589844 " fill-opacity="1" fill-rule="nonzero"/><path fill="#c2c1fe" d="M 272.539062 129.351562 C 262.367188 142.621094 260.863281 142.929688 246.652344 134.636719 C 259.367188 145.25 259.660156 146.820312 251.714844 161.648438 C 261.882812 148.378906 263.390625 148.070312 277.597656 156.367188 C 264.882812 145.75 264.59375 144.179688 272.539062 129.351562 " fill-opacity="1" fill-rule="nonzero"/><path fill="#c2c1fe" d="M 250.734375 137.5 C 258.699219 144.582031 259.292969 147.679688 254.5 157.335938 C 261.257812 149.074219 264.242188 148.480469 273.515625 153.503906 C 265.554688 146.421875 264.957031 143.324219 269.757812 133.660156 C 262.996094 141.929688 260.007812 142.519531 250.734375 137.5 Z M 252.089844 161.9375 L 251.292969 161.421875 C 259.160156 146.742188 258.929688 145.503906 246.34375 135 L 246.894531 134.222656 C 260.929688 142.417969 262.109375 142.175781 272.160156 129.0625 L 272.957031 129.578125 C 265.089844 144.257812 265.320312 145.496094 277.910156 156 L 277.359375 156.777344 C 263.324219 148.585938 262.144531 148.824219 252.089844 161.9375 " fill-opacity="1" fill-rule="nonzero"/><path fill="#c2c1fe" d="M 200.183594 87.726562 C 202.929688 104.472656 202.152344 105.851562 186.773438 111.425781 C 202.820312 108.554688 204.140625 109.371094 209.480469 125.421875 C 206.734375 108.675781 207.511719 107.296875 222.898438 101.722656 C 206.847656 104.589844 205.527344 103.773438 200.183594 87.726562 " fill-opacity="1" fill-rule="nonzero"/><path fill="#c2c1fe" d="M 197.019531 109.664062 C 203.011719 109.664062 205.273438 112.320312 208.230469 120.347656 C 206.808594 109.601562 208.378906 106.890625 218.171875 102.992188 C 207.792969 104.503906 205.160156 102.921875 201.4375 92.800781 C 202.855469 103.550781 201.292969 106.253906 191.496094 110.15625 C 193.640625 109.84375 195.457031 109.664062 197.019531 109.664062 Z M 209.027344 125.574219 C 203.746094 109.703125 202.707031 109.0625 186.855469 111.894531 L 186.609375 110.976562 C 201.820312 105.464844 202.433594 104.382812 199.714844 87.804688 L 200.636719 87.574219 C 205.917969 103.445312 206.953125 104.085938 222.8125 101.25 L 223.058594 102.171875 C 207.84375 107.683594 207.234375 108.769531 209.949219 125.347656 L 209.027344 125.574219 " fill-opacity="1" fill-rule="nonzero"/><path fill="#c2c1fe" d="M 240.03125 342.105469 C 225.019531 348.683594 223.554688 348.199219 214.878906 333.820312 C 221.179688 349.488281 220.71875 351.015625 206.9375 360.070312 C 221.949219 353.496094 223.414062 353.976562 232.089844 368.355469 C 225.789062 352.6875 226.257812 351.160156 240.03125 342.105469 " fill-opacity="1" fill-rule="nonzero"/><path fill="#c2c1fe" d="M 219.632812 355.523438 C 223.53125 355.523438 226.058594 357.976562 229.78125 363.730469 C 226.0625 353.578125 227 350.570312 235.683594 344.460938 C 225.914062 348.375 223.007812 347.445312 217.1875 338.449219 C 220.90625 348.601562 219.976562 351.605469 211.285156 357.714844 C 214.808594 356.304688 217.441406 355.523438 219.632812 355.523438 Z M 231.683594 368.601562 C 223.105469 354.394531 221.957031 354.011719 207.128906 360.507812 L 206.675781 359.671875 C 220.3125 350.710938 220.671875 349.511719 214.4375 334 L 215.285156 333.574219 C 223.859375 347.785156 225.007812 348.164062 239.839844 341.667969 L 240.296875 342.503906 C 226.660156 351.464844 226.296875 352.664062 232.535156 368.175781 L 231.683594 368.601562 " fill-opacity="1" fill-rule="nonzero"/><g clip-path="url(#3cfec5ab7b)"><path fill="#c2c1fe" d="M 78.09375 371.90625 C 82.800781 388.175781 82.1875 389.644531 67.582031 397.152344 C 83.167969 392.242188 84.578125 392.878906 91.773438 408.121094 C 87.066406 391.859375 87.679688 390.386719 102.285156 382.878906 C 86.699219 387.789062 85.289062 387.148438 78.09375 371.90625 " fill-opacity="1" fill-rule="nonzero"/></g><g clip-path="url(#7987727685)"><path fill="#c2c1fe" d="M 79.523438 393.945312 C 84.117188 393.945312 86.511719 396.566406 89.933594 403.261719 C 87.25 392.769531 88.484375 389.875 97.738281 384.746094 C 87.628906 387.578125 84.828125 386.34375 79.933594 376.773438 C 82.617188 387.265625 81.386719 390.152344 72.128906 395.285156 C 75.171875 394.429688 77.550781 393.945312 79.523438 393.945312 Z M 91.34375 408.328125 C 84.226562 393.257812 83.125 392.757812 67.722656 397.609375 L 67.363281 396.730469 C 81.8125 389.296875 82.292969 388.144531 77.636719 372.042969 L 78.523438 371.703125 C 85.640625 386.773438 86.742188 387.273438 102.144531 382.421875 L 102.503906 383.304688 C 88.054688 390.730469 87.574219 391.882812 92.230469 407.992188 L 91.34375 408.328125 " fill-opacity="1" fill-rule="nonzero"/></g><g clip-path="url(#34e3695c56)"><g clip-path="url(#4211ca5222)"><g clip-path="url(#03cc120fc1)"><path fill="#f2f3f5" d="M 191.90625 203.785156 C 191.90625 203.785156 122.164062 198.09375 96.882812 218.609375 C 139.707031 255.640625 191.90625 203.785156 191.90625 203.785156 " fill-opacity="1" fill-rule="nonzero"/></g></g></g><g clip-path="url(#7da33bf4f6)"><g clip-path="url(#9411137e53)"><g clip-path="url(#ae40562783)"><path fill="#9a67cd" d="M 191.03125 204.097656 C 187.386719 207.519531 167.914062 224.949219 144.460938 230.105469 C 126.777344 233.988281 110.972656 230.125 97.476562 218.617188 C 103.453125 213.902344 112.371094 210.21875 123.984375 207.664062 C 151.175781 201.6875 185.261719 203.699219 191.03125 204.097656 Z M 144.625 230.839844 C 170.753906 225.097656 191.960938 204.261719 192.171875 204.054688 L 192.753906 203.476562 L 191.9375 203.410156 C 191.558594 203.378906 153.589844 200.382812 123.824219 206.925781 C 111.859375 209.558594 102.714844 213.386719 96.644531 218.3125 L 96.292969 218.597656 L 96.632812 218.894531 C 110.398438 230.792969 126.542969 234.8125 144.625 230.839844 " fill-opacity="1" fill-rule="nonzero"/></g></g></g><g clip-path="url(#e063346d45)"><g clip-path="url(#6dc2ca2614)"><g clip-path="url(#26be1443fb)"><path fill="#9a67cd" d="M 191.925781 203.878906 L 191.886719 203.695312 C 191.296875 203.820312 133.023438 216.285156 123.828125 217.804688 C 113.542969 219.511719 102.371094 214.957031 102.261719 214.914062 L 102.1875 215.085938 C 102.300781 215.132812 113.523438 219.707031 123.859375 217.992188 C 133.058594 216.46875 191.335938 204.003906 191.925781 203.878906 " fill-opacity="1" fill-rule="nonzero"/></g></g></g><g clip-path="url(#ef7b2d5b8f)"><g clip-path="url(#79edc3bf9e)"><g clip-path="url(#64820b23eb)"><path fill="#9a67cd" d="M 106.1875 225.390625 C 106.296875 225.316406 116.976562 218.097656 120.667969 218.332031 L 120.679688 218.144531 C 116.933594 217.902344 106.523438 224.933594 106.082031 225.234375 L 106.1875 225.390625 " fill-opacity="1" fill-rule="nonzero"/></g></g></g><g clip-path="url(#9c42656e1d)"><g clip-path="url(#8b5250c2bf)"><g clip-path="url(#92e6f32280)"><path fill="#9a67cd" d="M 123.863281 231.433594 C 123.992188 231.273438 137.023438 215.570312 147.859375 213.1875 C 147.996094 213.15625 148.128906 213.128906 148.261719 213.105469 L 148.226562 212.917969 C 148.089844 212.945312 147.957031 212.972656 147.820312 213 C 136.917969 215.398438 123.847656 231.152344 123.714844 231.3125 L 123.863281 231.433594 " fill-opacity="1" fill-rule="nonzero"/></g></g></g><g clip-path="url(#0b49628e21)"><g clip-path="url(#e3acbfc551)"><g clip-path="url(#affded0e08)"><path fill="#9a67cd" d="M 161.441406 210.34375 L 161.417969 210.15625 C 148.699219 211.65625 130.3125 206.050781 130.125 205.996094 L 130.070312 206.175781 C 130.253906 206.230469 148.679688 211.847656 161.441406 210.34375 " fill-opacity="1" fill-rule="nonzero"/></g></g></g><g clip-path="url(#f0cd014a45)"><g clip-path="url(#0a5cb9ae5a)"><g clip-path="url(#430ffc3c4a)"><path fill="#9a67cd" d="M 142.457031 230.960938 C 142.585938 230.769531 155.269531 211.761719 168.351562 208.890625 C 168.394531 208.878906 168.433594 208.871094 168.472656 208.859375 L 168.433594 208.675781 C 168.394531 208.683594 168.351562 208.695312 168.3125 208.703125 C 155.152344 211.597656 142.425781 230.664062 142.300781 230.859375 L 142.457031 230.960938 " fill-opacity="1" fill-rule="nonzero"/></g></g></g><g clip-path="url(#075ffb3f4d)"><g clip-path="url(#0726480843)"><g clip-path="url(#5d527259b0)"><path fill="#9a67cd" d="M 163.835938 223.570312 C 163.96875 223.414062 177.5625 207.707031 183.320312 205.710938 L 183.257812 205.535156 C 177.453125 207.546875 163.828125 223.285156 163.691406 223.445312 L 163.835938 223.570312 " fill-opacity="1" fill-rule="nonzero"/></g></g></g><g clip-path="url(#9969f01c4c)"><g clip-path="url(#4063c1c45c)"><g clip-path="url(#ebe447f128)"><path fill="#9a67cd" d="M 146.738281 222.128906 C 148.3125 221.785156 149.695312 221.335938 150.683594 220.75 L 150.589844 220.589844 C 145.832031 223.394531 131.808594 223.070312 131.667969 223.066406 L 131.664062 223.257812 C 131.777344 223.257812 140.671875 223.464844 146.738281 222.128906 " fill-opacity="1" fill-rule="nonzero"/></g></g></g><g clip-path="url(#39683f60a9)"><g clip-path="url(#8709764291)"><g clip-path="url(#1ea26d6aa6)"><path fill="#9a67cd" d="M 163.566406 217.398438 C 166.996094 216.644531 170.722656 215.308594 173.851562 212.957031 L 173.738281 212.808594 C 165.554688 218.957031 153.210938 218.121094 153.085938 218.113281 L 153.070312 218.300781 C 153.148438 218.304688 157.957031 218.632812 163.566406 217.398438 " fill-opacity="1" fill-rule="nonzero"/></g></g></g><g clip-path="url(#aa7ff35c7a)"><g clip-path="url(#9ae50e0fb1)"><g clip-path="url(#217d08baca)"><path fill="#9a67cd" d="M 133.617188 216.113281 L 133.609375 215.921875 C 128.226562 216.144531 117.710938 208.875 117.605469 208.800781 L 117.496094 208.957031 C 117.601562 209.03125 128.171875 216.335938 133.617188 216.113281 " fill-opacity="1" fill-rule="nonzero"/></g></g></g><g clip-path="url(#f89461d724)"><g clip-path="url(#6e6a22e92e)"><g clip-path="url(#7867b97be5)"><path fill="#9a67cd" d="M 170.507812 208.433594 L 170.46875 208.25 C 167.554688 208.863281 159.464844 203.234375 159.382812 203.179688 L 159.273438 203.332031 C 159.609375 203.566406 167.511719 209.066406 170.507812 208.433594 " fill-opacity="1" fill-rule="nonzero"/></g></g></g><g clip-path="url(#98d65d5674)"><g clip-path="url(#fb7a57e5d1)"><g clip-path="url(#0a1c5f328a)"><path fill="#9a67cd" d="M 128.800781 226.027344 L 128.773438 225.839844 C 122.066406 226.816406 111.867188 221.808594 111.765625 221.753906 L 111.679688 221.925781 C 111.785156 221.976562 122.035156 227.011719 128.800781 226.027344 " fill-opacity="1" fill-rule="nonzero"/></g></g></g><g clip-path="url(#e1ad3d9e41)"><g clip-path="url(#11b6e31076)"><g clip-path="url(#5c0c5d0c48)"><path fill="#f2f3f5" d="M 194.050781 204.851562 C 194.050781 204.851562 135.613281 118.089844 87.984375 107.78125 C 84.566406 192.457031 194.050781 204.851562 194.050781 204.851562 " fill-opacity="1" fill-rule="nonzero"/></g></g></g><g clip-path="url(#d59110f19e)"><g clip-path="url(#9a3351d289)"><g clip-path="url(#b0ffe9efc6)"><path fill="#9a67cd" d="M 88.347656 108.246094 C 132.953125 118.335938 187.601562 196.15625 193.261719 204.371094 C 188.472656 203.71875 163.867188 199.90625 139.890625 187.722656 C 115.5 175.332031 86.804688 151.492188 88.347656 108.246094 Z M 194.820312 205.320312 L 194.363281 204.640625 C 194.21875 204.425781 179.507812 182.667969 159.160156 159.933594 C 140.363281 138.921875 112.769531 112.757812 88.066406 107.410156 L 87.625 107.316406 L 87.609375 107.765625 C 86.824219 127.167969 91.941406 144.371094 102.8125 158.894531 C 111.503906 170.507812 123.867188 180.433594 139.566406 188.40625 C 166.257812 201.964844 193.730469 205.199219 194.003906 205.230469 L 194.820312 205.320312 " fill-opacity="1" fill-rule="nonzero"/></g></g></g><g clip-path="url(#f8d4d1b81c)"><g clip-path="url(#decdd181df)"><g clip-path="url(#0ba87b1528)"><path fill="#9a67cd" d="M 193.988281 204.925781 L 194.109375 204.78125 C 193.414062 204.210938 124.414062 147.839844 114.042969 138.53125 C 102.433594 128.105469 97.339844 110.789062 97.289062 110.613281 L 97.105469 110.664062 C 97.160156 110.839844 102.269531 128.210938 113.917969 138.667969 C 124.289062 147.984375 193.292969 204.359375 193.988281 204.925781 " fill-opacity="1" fill-rule="nonzero"/></g></g></g><g clip-path="url(#c640be3168)"><g clip-path="url(#b393e4f554)"><g clip-path="url(#cb09d7803c)"><path fill="#9a67cd" d="M 110.546875 135.269531 L 110.699219 135.160156 C 107.488281 130.570312 89.554688 125.007812 88.792969 124.773438 L 88.738281 124.953125 C 88.921875 125.011719 107.371094 130.734375 110.546875 135.269531 " fill-opacity="1" fill-rule="nonzero"/></g></g></g><g clip-path="url(#c201e0485d)"><g clip-path="url(#576666aa94)"><g clip-path="url(#a21da25552)"><path fill="#9a67cd" d="M 142.421875 162.582031 L 142.546875 162.441406 C 129.863281 151.582031 98.457031 151.058594 98.140625 151.054688 L 98.136719 151.242188 C 98.453125 151.25 129.792969 151.769531 142.421875 162.582031 " fill-opacity="1" fill-rule="nonzero"/></g></g></g><g clip-path="url(#86aa692407)"><g clip-path="url(#2ee5701884)"><g clip-path="url(#650bde39d9)"><path fill="#9a67cd" d="M 157.957031 175.386719 L 158.089844 175.253906 C 144.457031 161.796875 133.855469 135.074219 133.753906 134.804688 L 133.578125 134.875 C 133.683594 135.144531 144.296875 161.90625 157.957031 175.386719 " fill-opacity="1" fill-rule="nonzero"/></g></g></g><g clip-path="url(#9c9d393727)"><g clip-path="url(#14ebd5d055)"><g clip-path="url(#1a4b4e9ef4)"><path fill="#9a67cd" d="M 166.257812 182.210938 L 166.378906 182.0625 C 158.230469 175.382812 144.972656 173.089844 135.285156 172.347656 C 124.792969 171.539062 116.113281 172.320312 116.027344 172.328125 L 116.046875 172.515625 C 116.132812 172.507812 124.796875 171.726562 135.273438 172.535156 C 144.929688 173.277344 158.148438 175.558594 166.257812 182.210938 " fill-opacity="1" fill-rule="nonzero"/></g></g></g><g clip-path="url(#91d1c6cdec)"><g clip-path="url(#571dff02ce)"><g clip-path="url(#8488bb0a2a)"><path fill="#9a67cd" d="M 183.800781 196.59375 L 183.902344 196.433594 C 176.136719 191.542969 144.988281 190.375 144.671875 190.367188 L 144.667969 190.554688 C 144.980469 190.566406 176.078125 191.730469 183.800781 196.59375 " fill-opacity="1" fill-rule="nonzero"/></g></g></g><g clip-path="url(#b9ec3c3b6a)"><g clip-path="url(#dffd704ef8)"><g clip-path="url(#f82610c7a4)"><path fill="#9a67cd" d="M 135.707031 172.566406 L 135.777344 172.390625 C 128.039062 169.453125 115.320312 152.773438 115.191406 152.605469 L 115.042969 152.71875 C 115.167969 152.886719 127.921875 169.609375 135.707031 172.566406 " fill-opacity="1" fill-rule="nonzero"/></g></g></g><g clip-path="url(#5ead9ccd08)"><g clip-path="url(#b74a288abf)"><g clip-path="url(#2e91fef52e)"><path fill="#9a67cd" d="M 166.460938 192.320312 L 166.507812 192.136719 C 151.640625 188.328125 141.09375 173.121094 140.988281 172.964844 L 140.832031 173.074219 C 140.9375 173.226562 151.523438 188.492188 166.460938 192.320312 " fill-opacity="1" fill-rule="nonzero"/></g></g></g><g clip-path="url(#92f5aa3d39)"><g clip-path="url(#e4b1eb6dbe)"><g clip-path="url(#f59c5e49d7)"><path fill="#9a67cd" d="M 125.234375 148.304688 L 125.375 148.183594 C 120.082031 142.089844 118.78125 122.992188 118.769531 122.796875 L 118.578125 122.808594 C 118.59375 123.003906 119.898438 142.167969 125.234375 148.304688 " fill-opacity="1" fill-rule="nonzero"/></g></g></g><g clip-path="url(#1c0d8e83aa)"><g clip-path="url(#1abdb9ac97)"><g clip-path="url(#000e6e589e)"><path fill="#9a67cd" d="M 168.65625 184.179688 L 168.777344 184.035156 C 165.324219 181.199219 164.363281 166.460938 164.355469 166.3125 L 164.164062 166.324219 C 164.203125 166.933594 165.136719 181.292969 168.65625 184.179688 " fill-opacity="1" fill-rule="nonzero"/></g></g></g><g clip-path="url(#41bdbf9934)"><g clip-path="url(#1502b6f20c)"><g clip-path="url(#b1fbf03118)"><path fill="#9a67cd" d="M 109.117188 151.964844 L 109.246094 151.828125 C 101.828125 144.898438 98.179688 128.28125 98.144531 128.117188 L 97.957031 128.15625 C 97.992188 128.324219 101.65625 144.996094 109.117188 151.964844 " fill-opacity="1" fill-rule="nonzero"/></g></g></g><g clip-path="url(#16adb62951)"><g clip-path="url(#21d7d7d263)"><g clip-path="url(#fa2f3f0809)"><path fill="#f2f3f5" d="M 194.40625 204.855469 C 194.40625 204.855469 127.929688 124.074219 79.523438 118.355469 C 84.222656 202.957031 194.40625 204.855469 194.40625 204.855469 " fill-opacity="1" fill-rule="nonzero"/></g></g></g><g clip-path="url(#9acadd6d79)"><g clip-path="url(#6b4b5268d8)"><g clip-path="url(#e1bb98e4e2)"><path fill="#9a67cd" d="M 79.929688 118.785156 C 125.300781 124.570312 187.15625 196.816406 193.574219 204.449219 C 188.746094 204.257812 163.882812 202.808594 138.847656 192.972656 C 113.382812 182.964844 82.535156 161.972656 79.929688 118.785156 Z M 195.21875 205.246094 L 194.699219 204.613281 C 194.53125 204.414062 177.804688 184.160156 155.375 163.472656 C 134.648438 144.355469 104.675781 120.945312 79.570312 117.980469 L 79.121094 117.925781 L 79.144531 118.378906 C 80.226562 137.761719 86.964844 154.394531 99.175781 167.816406 C 108.941406 178.542969 122.203125 187.246094 138.589844 193.683594 C 166.464844 204.632812 194.125 205.226562 194.398438 205.234375 L 195.21875 205.246094 " fill-opacity="1" fill-rule="nonzero"/></g></g></g><g clip-path="url(#2fad8cdba4)"><g clip-path="url(#78b96e6065)"><g clip-path="url(#6068232913)"><path fill="#9a67cd" d="M 194.351562 204.933594 L 194.457031 204.777344 C 193.710938 204.277344 119.621094 154.753906 108.40625 146.472656 C 95.855469 137.207031 89.125 120.457031 89.058594 120.285156 L 88.878906 120.355469 C 88.949219 120.523438 95.699219 137.328125 108.296875 146.625 C 119.511719 154.90625 193.605469 204.433594 194.351562 204.933594 " fill-opacity="1" fill-rule="nonzero"/></g></g></g><g clip-path="url(#a279885576)"><g clip-path="url(#81c858efe8)"><g clip-path="url(#ddc7ca0d94)"><path fill="#9a67cd" d="M 104.617188 143.5625 L 104.757812 143.4375 C 101.121094 139.175781 82.734375 135.351562 81.957031 135.191406 L 81.914062 135.375 C 82.109375 135.414062 101.019531 139.347656 104.617188 143.5625 " fill-opacity="1" fill-rule="nonzero"/></g></g></g><g clip-path="url(#9e0e3eec9b)"><g clip-path="url(#41aa28df5f)"><g clip-path="url(#c3ce9f10cb)"><path fill="#9a67cd" d="M 138.964844 167.707031 L 139.070312 167.554688 C 125.410156 157.957031 94.09375 160.433594 93.777344 160.457031 L 93.792969 160.644531 C 94.109375 160.621094 125.355469 158.152344 138.964844 167.707031 " fill-opacity="1" fill-rule="nonzero"/></g></g></g><g clip-path="url(#4733b41b14)"><g clip-path="url(#4423d1d71a)"><g clip-path="url(#f86e57e54a)"><path fill="#9a67cd" d="M 155.65625 178.972656 L 155.773438 178.824219 C 140.914062 166.730469 127.804688 141.144531 127.671875 140.886719 L 127.503906 140.972656 C 127.636719 141.230469 140.765625 166.855469 155.65625 178.972656 " fill-opacity="1" fill-rule="nonzero"/></g></g></g><g clip-path="url(#7a2edae8ac)"><g clip-path="url(#638e0cfce2)"><g clip-path="url(#3458963c20)"><path fill="#9a67cd" d="M 164.574219 184.96875 L 164.679688 184.8125 C 155.925781 178.9375 142.507812 177.921875 132.792969 178.105469 C 122.269531 178.304688 113.707031 179.90625 113.621094 179.925781 L 113.65625 180.109375 C 113.742188 180.09375 122.292969 178.492188 132.796875 178.292969 C 142.484375 178.113281 155.859375 179.121094 164.574219 184.96875 " fill-opacity="1" fill-rule="nonzero"/></g></g></g><g clip-path="url(#6bbe2fa23d)"><g clip-path="url(#db34adc7e7)"><g clip-path="url(#468d7bc655)"><path fill="#9a67cd" d="M 183.414062 197.609375 L 183.5 197.441406 C 175.300781 193.316406 144.175781 195.125 143.863281 195.144531 L 143.875 195.332031 C 144.1875 195.316406 175.261719 193.507812 183.414062 197.609375 " fill-opacity="1" fill-rule="nonzero"/></g></g></g><g clip-path="url(#03e72e941d)"><g clip-path="url(#8e4c9444cc)"><g clip-path="url(#ddcd1edc34)"><path fill="#9a67cd" d="M 133.234375 178.285156 L 133.285156 178.101562 C 125.300781 175.917969 111.042969 160.527344 110.902344 160.375 L 110.761719 160.5 C 110.90625 160.65625 125.199219 176.085938 133.234375 178.285156 " fill-opacity="1" fill-rule="nonzero"/></g></g></g><g clip-path="url(#b7dc62421d)"><g clip-path="url(#79748f6fb7)"><g clip-path="url(#ae1b4a6208)"><path fill="#9a67cd" d="M 165.742188 195.011719 L 165.769531 194.824219 C 150.605469 192.453125 138.648438 178.320312 138.53125 178.179688 L 138.386719 178.300781 C 138.503906 178.445312 150.503906 192.628906 165.742188 195.011719 " fill-opacity="1" fill-rule="nonzero"/></g></g></g><g clip-path="url(#a01047fe90)"><g clip-path="url(#55bbf51ed4)"><g clip-path="url(#36a42eb36c)"><path fill="#9a67cd" d="M 120.484375 155.136719 L 120.613281 155 C 114.761719 149.441406 111.636719 130.554688 111.609375 130.367188 L 111.417969 130.394531 C 111.453125 130.585938 114.585938 149.535156 120.484375 155.136719 " fill-opacity="1" fill-rule="nonzero"/></g></g></g><g clip-path="url(#e5cafe0802)"><g clip-path="url(#76f9d6b25e)"><g clip-path="url(#97a57abc6f)"><path fill="#9a67cd" d="M 167.148438 186.699219 L 167.257812 186.546875 C 163.542969 184.050781 161.175781 169.472656 161.15625 169.328125 L 160.96875 169.359375 C 161.0625 169.960938 163.371094 184.164062 167.148438 186.699219 " fill-opacity="1" fill-rule="nonzero"/></g></g></g><g clip-path="url(#bf0611ea6e)"><g clip-path="url(#58d7ed9e85)"><g clip-path="url(#417ec03585)"><path fill="#9a67cd" d="M 104.789062 160.316406 L 104.902344 160.167969 C 96.859375 153.976562 91.632812 137.789062 91.582031 137.625 L 91.402344 137.683594 C 91.453125 137.847656 96.695312 154.089844 104.789062 160.316406 " fill-opacity="1" fill-rule="nonzero"/></g></g></g><g clip-path="url(#80d49eed48)"><g clip-path="url(#7e2231c311)"><g clip-path="url(#71b2d9860b)"><path fill="#f2f3f5" d="M 192.140625 204.359375 C 192.140625 204.359375 122.160156 205.089844 98.875 227.832031 C 144.933594 260.777344 192.140625 204.359375 192.140625 204.359375 " fill-opacity="1" fill-rule="nonzero"/></g></g></g><g clip-path="url(#7873fdfca3)"><g clip-path="url(#5f6d37c494)"><g clip-path="url(#f241dd63e1)"><path fill="#9a67cd" d="M 191.296875 204.75 C 187.988281 208.488281 170.195312 227.628906 147.316406 234.914062 C 130.0625 240.40625 113.96875 238.007812 99.464844 227.789062 C 104.984375 222.546875 113.523438 218.058594 124.855469 214.453125 C 151.382812 206.007812 185.519531 204.882812 191.296875 204.75 Z M 147.546875 235.636719 C 173.035156 227.519531 192.242188 204.828125 192.433594 204.601562 L 192.957031 203.96875 L 192.136719 203.980469 C 191.757812 203.984375 153.671875 204.484375 124.628906 213.730469 C 112.957031 217.449219 104.203125 222.101562 98.609375 227.5625 L 98.289062 227.878906 L 98.652344 228.140625 C 113.457031 238.726562 129.90625 241.25 147.546875 235.636719 " fill-opacity="1" fill-rule="nonzero"/></g></g></g><g clip-path="url(#1d799eab9c)"><g clip-path="url(#1f77708361)"><g clip-path="url(#e5d4b29abe)"><path fill="#9a67cd" d="M 192.171875 204.445312 L 192.113281 204.265625 C 191.539062 204.445312 134.652344 222.203125 125.632812 224.566406 C 115.550781 227.207031 104.003906 223.699219 103.886719 223.660156 L 103.832031 223.84375 C 103.949219 223.878906 115.546875 227.402344 125.679688 224.75 C 134.703125 222.386719 191.597656 204.628906 192.171875 204.445312 " fill-opacity="1" fill-rule="nonzero"/></g></g></g><g clip-path="url(#f127477681)"><g clip-path="url(#a34d097bc2)"><g clip-path="url(#d1a7be28f5)"><path fill="#9a67cd" d="M 108.765625 233.734375 C 108.867188 233.652344 118.835938 225.484375 122.539062 225.378906 L 122.53125 225.1875 C 118.777344 225.292969 109.058594 233.25 108.644531 233.589844 L 108.765625 233.734375 " fill-opacity="1" fill-rule="nonzero"/></g></g></g><g clip-path="url(#aeae35c02b)"><g clip-path="url(#adc18104d7)"><g clip-path="url(#c87b0bf309)"><path fill="#9a67cd" d="M 126.921875 238.128906 C 127.039062 237.957031 138.570312 221.125 149.140625 217.757812 C 149.273438 217.71875 149.402344 217.679688 149.53125 217.640625 L 149.480469 217.457031 C 149.347656 217.496094 149.21875 217.535156 149.085938 217.578125 C 138.453125 220.964844 126.882812 237.851562 126.769531 238.023438 L 126.921875 238.128906 " fill-opacity="1" fill-rule="nonzero"/></g></g></g><g clip-path="url(#2b6c1fbe84)"><g clip-path="url(#0ac78639d0)"><g clip-path="url(#2f28542c94)"><path fill="#9a67cd" d="M 162.402344 213.683594 L 162.363281 213.5 C 149.835938 216.15625 131.007812 212.265625 130.820312 212.226562 L 130.78125 212.410156 C 130.96875 212.449219 149.835938 216.351562 162.402344 213.683594 " fill-opacity="1" fill-rule="nonzero"/></g></g></g><g clip-path="url(#eca24e3048)"><g clip-path="url(#bbbfb518f1)"><g clip-path="url(#8ea42457bb)"><path fill="#9a67cd" d="M 145.398438 235.953125 C 145.507812 235.75 156.386719 215.664062 169.152344 211.597656 C 169.195312 211.585938 169.234375 211.574219 169.273438 211.5625 L 169.21875 211.382812 C 169.179688 211.394531 169.136719 211.40625 169.097656 211.421875 C 156.257812 215.507812 145.34375 235.660156 145.230469 235.863281 L 145.398438 235.953125 " fill-opacity="1" fill-rule="nonzero"/></g></g></g><g clip-path="url(#1cf1140c49)"><g clip-path="url(#1e31c2afab)"><g clip-path="url(#77a4839609)"><path fill="#9a67cd" d="M 166.007812 226.632812 C 166.128906 226.460938 178.214844 209.578125 183.769531 207.0625 L 183.6875 206.890625 C 178.09375 209.425781 165.976562 226.351562 165.855469 226.523438 L 166.007812 226.632812 " fill-opacity="1" fill-rule="nonzero"/></g></g></g><g clip-path="url(#6b2bc1a2dd)"><g clip-path="url(#26b330ac7e)"><g clip-path="url(#1d5623a3a2)"><path fill="#9a67cd" d="M 148.851562 226.765625 C 150.386719 226.277344 151.722656 225.707031 152.652344 225.035156 L 152.542969 224.882812 C 148.0625 228.109375 134.070312 229.074219 133.929688 229.082031 L 133.941406 229.273438 C 134.054688 229.265625 142.933594 228.652344 148.851562 226.765625 " fill-opacity="1" fill-rule="nonzero"/></g></g></g><g clip-path="url(#1d66a2161d)"><g clip-path="url(#b0dffdc440)"><g clip-path="url(#908fb70f96)"><path fill="#9a67cd" d="M 165.171875 220.511719 C 168.515625 219.449219 172.105469 217.773438 175.007812 215.148438 L 174.878906 215.007812 C 167.292969 221.882812 154.921875 222.179688 154.800781 222.183594 L 154.800781 222.371094 C 154.882812 222.371094 159.699219 222.253906 165.171875 220.511719 " fill-opacity="1" fill-rule="nonzero"/></g></g></g><g clip-path="url(#f524e1a086)"><g clip-path="url(#1408bb4073)"><g clip-path="url(#e0cb824ceb)"><path fill="#9a67cd" d="M 135.226562 221.980469 L 135.203125 221.792969 C 129.859375 222.507812 118.71875 216.234375 118.609375 216.171875 L 118.515625 216.335938 C 118.628906 216.398438 129.824219 222.703125 135.226562 221.980469 " fill-opacity="1" fill-rule="nonzero"/></g></g></g><g clip-path="url(#7c70b1d70d)"><g clip-path="url(#054e32109d)"><g clip-path="url(#cacf1d5b79)"><path fill="#9a67cd" d="M 171.257812 210.945312 L 171.199219 210.769531 C 168.355469 211.648438 159.78125 206.789062 159.695312 206.738281 L 159.601562 206.902344 C 159.957031 207.105469 168.335938 211.851562 171.257812 210.945312 " fill-opacity="1" fill-rule="nonzero"/></g></g></g><g clip-path="url(#043a034be2)"><g clip-path="url(#1b248a7599)"><g clip-path="url(#621c473bd5)"><path fill="#9a67cd" d="M 131.347656 232.296875 L 131.300781 232.109375 C 124.710938 233.699219 114.09375 229.644531 113.988281 229.605469 L 113.917969 229.777344 C 114.023438 229.820312 124.695312 233.898438 131.347656 232.296875 " fill-opacity="1" fill-rule="nonzero"/></g></g></g><g clip-path="url(#df9c58c6e1)"><g clip-path="url(#054f1d3485)"><g clip-path="url(#0e405b30fb)"><path fill="#9a67cd" d="M 172.175781 166.328125 C 170.242188 161.390625 172.609375 155.847656 177.464844 153.949219 C 179.777344 153.042969 182.234375 153.128906 184.382812 154 C 185.894531 151.914062 188.066406 150.042969 191.0625 148.539062 C 205.785156 141.136719 210.988281 144.125 212.21875 145.183594 C 215.761719 144.316406 223.523438 143.375 226.285156 150.78125 C 227.515625 155.390625 226.53125 157.957031 226.53125 157.957031 C 226.53125 157.957031 225.074219 152.707031 222.859375 152.121094 C 223.277344 153.121094 223.480469 154.261719 223.5625 155.375 C 224.277344 156.910156 224.90625 158.71875 225.394531 160.84375 C 225.085938 166.949219 230.527344 166.132812 232.421875 167.15625 C 234.3125 168.175781 230.539062 171.324219 230.613281 171.890625 C 230.683594 172.457031 231.8125 173.09375 232.921875 173.257812 C 234.027344 173.417969 232.632812 175.527344 232.632812 175.527344 C 232.632812 175.527344 234.003906 175.90625 233.792969 176.878906 C 233.578125 177.855469 231.851562 178.097656 232.332031 178.953125 C 232.816406 179.804688 235.445312 180.800781 233.960938 183.109375 C 231.136719 187.488281 217.664062 186.777344 216.746094 189.050781 C 213.433594 197.253906 210.351562 205.277344 210.351562 205.277344 L 195.042969 202.457031 C 195.042969 202.457031 202.859375 191.90625 201.992188 190.460938 C 201.128906 189.011719 193.570312 186.714844 189.292969 182.636719 C 186.03125 179.527344 184.304688 176.503906 183.019531 172.265625 C 178.5625 173.222656 173.917969 170.78125 172.175781 166.328125 " fill-opacity="1" fill-rule="nonzero"/></g></g></g><g clip-path="url(#e809e3fd03)"><g clip-path="url(#383e852c46)"><g clip-path="url(#b6a53f3562)"><g clip-path="url(#c4cad4dfa1)"><g clip-path="url(#7ef2ff1170)"><path fill="#9a67cd" d="M 190.664062 319.464844 C 185.160156 312.941406 182.160156 306.078125 180.484375 301.984375 C 179.574219 303.777344 178.425781 305.574219 177.175781 306.421875 C 175.472656 304.238281 173.9375 302.476562 172.632812 301.078125 C 171.6875 304.210938 170.496094 308.097656 169.226562 312.09375 C 184.765625 314.03125 188.804688 317.289062 190.664062 319.464844 Z M 108.542969 372.660156 C 108.542969 372.660156 108.351562 368.359375 111.378906 366.011719 C 114.402344 363.664062 114.566406 363.230469 114.449219 359.640625 C 114.332031 356.050781 115.058594 349.195312 119.660156 350.359375 C 125.566406 351.855469 127.582031 349.550781 127.582031 349.550781 C 127.582031 349.550781 142.503906 330.582031 150.347656 326.867188 C 151.015625 325.714844 151.546875 323.613281 151.996094 320.925781 C 149.988281 321.984375 147.640625 322.9375 145.261719 323.84375 C 141.402344 325.316406 131.222656 326.949219 130.082031 329.132812 C 129.734375 330.238281 127.40625 325.953125 131.308594 324.222656 C 133.941406 323.058594 134.402344 323.457031 135.359375 321.292969 C 137.109375 317.351562 140.519531 317.246094 142.824219 315.339844 C 145.128906 313.433594 146.824219 306.65625 151.15625 306.28125 C 152.222656 306.1875 152.941406 306.410156 153.542969 306.808594 C 153.71875 304.738281 153.886719 302.644531 154.0625 300.578125 C 153.636719 300.597656 153.238281 300.601562 152.882812 300.574219 C 153.9375 295.175781 154.835938 290.929688 154.835938 290.929688 C 154.835938 290.929688 149.246094 295.078125 146.207031 293.574219 C 146.808594 291.753906 154.195312 284.921875 154.53125 279.964844 C 154.863281 275.011719 153.246094 255.316406 162.109375 251.390625 C 162.109375 251.390625 162.109375 251.390625 162.113281 251.390625 C 163.660156 250.039062 165.316406 249.160156 166.695312 248.464844 C 170.332031 246.636719 178.464844 241.375 180.25 236.109375 C 182.894531 228.300781 187.457031 211.511719 189.054688 206.667969 C 190.160156 203.308594 193.792969 197.617188 197.914062 197.820312 C 202.035156 198.027344 209.125 199.316406 209.125 199.316406 L 218.625 225.390625 C 218.625 225.390625 222.683594 238.136719 215.917969 242.488281 C 213.707031 243.910156 210.925781 245.625 208.957031 246.671875 C 208.957031 246.671875 192.878906 255.914062 189.460938 266.003906 C 195.148438 270.320312 204.933594 287.023438 205.871094 297.929688 C 200.367188 295.753906 199.238281 295.855469 199.238281 295.855469 C 199.238281 295.855469 209.910156 325.054688 205.726562 329.394531 C 201.542969 333.738281 180.546875 327.980469 173.425781 324.621094 C 171.125 323.535156 168.601562 322.390625 166.179688 321.390625 C 164.230469 327.109375 162.421875 331.875 161.367188 333.34375 C 155.714844 341.226562 130.476562 355.015625 125.101562 360.664062 C 122.496094 363.402344 119.464844 369.4375 116.203125 371.238281 C 112.941406 373.035156 109.441406 375.738281 108 379.148438 C 104.410156 377.566406 108.542969 372.660156 108.542969 372.660156 " fill-opacity="1" fill-rule="nonzero"/></g></g></g></g></g><g clip-path="url(#9274f15a27)"><g clip-path="url(#f47233a904)"><g clip-path="url(#9eefb2a3da)"><path fill="#9a67cd" d="M 199.613281 249.875 L 204.902344 244.609375 C 204.902344 244.609375 211.8125 257.269531 217.328125 276.289062 C 223.90625 276.140625 230.441406 275.394531 230.441406 275.394531 L 238.332031 279.171875 C 238.332031 279.171875 242.996094 283.09375 243.535156 283.195312 C 240.859375 283.433594 238.871094 282.246094 237.8125 281.390625 C 238.4375 282.523438 239.097656 283.78125 239.078125 284.042969 C 236.65625 283.101562 236.128906 282.382812 235.550781 281.152344 C 235.378906 280.792969 235.21875 280.484375 235.070312 280.21875 L 234.929688 280.1875 C 235.429688 281.53125 236.203125 283.695312 236.125 284.023438 C 233.882812 282.707031 233.476562 281.914062 233.105469 280.605469 C 233.015625 280.292969 232.949219 280.023438 232.902344 279.792969 L 230.695312 279.363281 L 226.730469 280.695312 L 230.183594 281.945312 L 233.984375 285.664062 C 231.523438 286.585938 227.945312 284.117188 227.296875 283.695312 C 226.648438 283.273438 220.40625 283.125 219.976562 283.132812 C 219.546875 283.136719 213.828125 281.265625 213.273438 279.339844 C 204.378906 265.246094 197.097656 251.664062 199.613281 249.875 " fill-opacity="1" fill-rule="nonzero"/></g></g></g><g clip-path="url(#3ce58d2046)"><g clip-path="url(#d54b582614)"><g clip-path="url(#4734d8f729)"><path fill="#9a67cd" d="M 115.464844 269.316406 C 115.960938 269.082031 119.492188 264.109375 119.492188 264.109375 L 126.183594 258.464844 C 126.183594 258.464844 132.695312 257.542969 139.097656 256.027344 C 149.15625 237.503906 155.191406 230.035156 155.191406 230.035156 L 158.441406 227.3125 C 165.515625 221.324219 182.695312 206.730469 194.933594 198.945312 C 195.339844 199.613281 198.722656 212.265625 199.894531 214.105469 L 165.5625 234.632812 C 165.5625 234.632812 159.167969 243.546875 143.789062 257.957031 C 143.734375 259.960938 138.667969 263.214844 138.25 263.316406 C 137.832031 263.421875 131.828125 265.136719 131.308594 265.707031 C 130.785156 266.28125 127.941406 269.570312 125.324219 269.296875 L 128.074219 264.742188 L 131.105469 262.660156 L 126.929688 262.371094 L 124.902344 263.34375 C 124.914062 263.578125 124.917969 263.855469 124.910156 264.179688 C 124.878906 265.542969 124.683594 266.414062 122.84375 268.25 C 122.6875 267.953125 122.894531 265.660156 123.039062 264.238281 L 122.910156 264.300781 C 122.835938 264.59375 122.753906 264.9375 122.683594 265.324219 C 122.429688 266.664062 122.097656 267.492188 119.988281 269.011719 C 119.90625 268.765625 120.226562 267.382812 120.550781 266.128906 C 119.738281 267.222656 118.113281 268.875 115.464844 269.316406 " fill-opacity="1" fill-rule="nonzero"/></g></g></g></svg>