<svg xmlns="http://www.w3.org/2000/svg" xmlns:xlink="http://www.w3.org/1999/xlink" width="600" zoomAndPan="magnify" viewBox="0 0 450 449.999984" height="600" preserveAspectRatio="xMidYMid meet" version="1.0"><defs><g/><clipPath id="416decb773"><path d="M 62 196.882812 L 118.453125 196.882812 L 118.453125 253 L 62 253 Z M 62 196.882812 " clip-rule="nonzero"/></clipPath><clipPath id="dbc4b15ccc"><path d="M 45 224 L 74 224 L 74 253.132812 L 45 253.132812 Z M 45 224 " clip-rule="nonzero"/></clipPath><clipPath id="4833a6cce1"><path d="M 331.535156 196.882812 L 388 196.882812 L 388 253 L 331.535156 253 Z M 331.535156 196.882812 " clip-rule="nonzero"/></clipPath><clipPath id="07261072c5"><path d="M 376 224 L 405.035156 224 L 405.035156 253.132812 L 376 253.132812 Z M 376 224 " clip-rule="nonzero"/></clipPath></defs><g clip-path="url(#416decb773)"><path fill="#c2c1fe" d="M 89.867188 211.867188 C 89.78125 212.648438 89.632812 213.414062 89.417969 214.167969 C 89.203125 214.921875 88.925781 215.652344 88.585938 216.359375 C 88.246094 217.066406 87.851562 217.742188 87.398438 218.382812 C 86.945312 219.023438 86.441406 219.621094 85.882812 220.175781 C 85.328125 220.730469 84.734375 221.234375 84.09375 221.6875 C 83.453125 222.140625 82.777344 222.535156 82.070312 222.875 C 81.363281 223.214844 80.632812 223.492188 79.878906 223.707031 C 79.125 223.921875 78.355469 224.070312 77.578125 224.15625 C 72.609375 224.652344 67.632812 224.878906 62.644531 224.835938 C 67.632812 224.796875 72.609375 225.023438 77.578125 225.519531 C 78.355469 225.601562 79.125 225.753906 79.878906 225.96875 C 80.632812 226.183594 81.363281 226.460938 82.070312 226.800781 C 82.777344 227.140625 83.453125 227.535156 84.09375 227.988281 C 84.730469 228.441406 85.328125 228.945312 85.882812 229.5 C 86.4375 230.054688 86.945312 230.652344 87.398438 231.292969 C 87.851562 231.933594 88.246094 232.605469 88.585938 233.3125 C 88.925781 234.019531 89.203125 234.75 89.417969 235.507812 C 89.632812 236.261719 89.78125 237.027344 89.867188 237.808594 C 90.363281 242.769531 90.589844 247.746094 90.550781 252.734375 C 90.507812 247.746094 90.734375 242.769531 91.230469 237.808594 C 91.316406 237.027344 91.464844 236.261719 91.679688 235.507812 C 91.894531 234.75 92.171875 234.019531 92.511719 233.3125 C 92.851562 232.605469 93.246094 231.933594 93.699219 231.292969 C 94.152344 230.652344 94.65625 230.054688 95.214844 229.5 C 95.769531 228.945312 96.363281 228.441406 97.003906 227.988281 C 97.644531 227.535156 98.320312 227.140625 99.027344 226.800781 C 99.734375 226.460938 100.464844 226.183594 101.21875 225.96875 C 101.972656 225.753906 102.742188 225.601562 103.519531 225.515625 C 108.488281 225.023438 113.464844 224.796875 118.453125 224.835938 C 113.464844 224.878906 108.488281 224.652344 103.519531 224.15625 C 102.742188 224.070312 101.972656 223.921875 101.21875 223.707031 C 100.464844 223.492188 99.734375 223.214844 99.027344 222.875 C 98.320312 222.535156 97.644531 222.140625 97.003906 221.6875 C 96.367188 221.234375 95.769531 220.726562 95.214844 220.175781 C 94.660156 219.621094 94.152344 219.023438 93.699219 218.382812 C 93.246094 217.742188 92.851562 217.066406 92.511719 216.359375 C 92.171875 215.652344 91.894531 214.921875 91.679688 214.167969 C 91.464844 213.414062 91.316406 212.648438 91.230469 211.867188 C 90.734375 206.902344 90.507812 201.925781 90.550781 196.9375 C 90.589844 201.925781 90.363281 206.902344 89.867188 211.867188 Z M 89.867188 211.867188 " fill-opacity="1" fill-rule="nonzero"/></g><g clip-path="url(#dbc4b15ccc)"><path fill="#c2c1fe" d="M 58.714844 232.390625 C 58.628906 233.1875 58.410156 233.945312 58.066406 234.664062 C 57.71875 235.386719 57.265625 236.03125 56.699219 236.59375 C 56.132812 237.160156 55.488281 237.617188 54.769531 237.960938 C 54.046875 238.308594 53.289062 238.523438 52.496094 238.609375 C 49.980469 238.859375 47.464844 238.976562 44.9375 238.953125 C 47.464844 238.933594 49.980469 239.050781 52.496094 239.300781 C 53.289062 239.386719 54.046875 239.601562 54.769531 239.949219 C 55.488281 240.292969 56.132812 240.75 56.699219 241.316406 C 57.265625 241.878906 57.71875 242.523438 58.066406 243.246094 C 58.410156 243.964844 58.628906 244.722656 58.714844 245.519531 C 58.964844 248.03125 59.078125 250.546875 59.058594 253.074219 C 59.039062 250.546875 59.152344 248.03125 59.402344 245.519531 C 59.492188 244.722656 59.707031 243.964844 60.050781 243.242188 C 60.398438 242.523438 60.855469 241.878906 61.417969 241.3125 C 61.984375 240.75 62.628906 240.292969 63.347656 239.949219 C 64.070312 239.601562 64.828125 239.386719 65.625 239.300781 C 68.136719 239.050781 70.65625 238.933594 73.179688 238.953125 C 70.65625 238.976562 68.136719 238.859375 65.625 238.609375 C 64.828125 238.523438 64.070312 238.308594 63.347656 237.960938 C 62.628906 237.617188 61.984375 237.160156 61.417969 236.59375 C 60.855469 236.03125 60.398438 235.386719 60.050781 234.664062 C 59.707031 233.945312 59.492188 233.1875 59.402344 232.390625 C 59.152344 229.878906 59.035156 227.363281 59.058594 224.835938 C 59.078125 227.359375 58.964844 229.878906 58.714844 232.390625 Z M 58.714844 232.390625 " fill-opacity="1" fill-rule="nonzero"/></g><path fill="#c2c1fe" d="M 69.328125 204.53125 C 69.277344 205.015625 69.144531 205.480469 68.933594 205.921875 C 68.722656 206.359375 68.445312 206.753906 68.097656 207.097656 C 67.753906 207.445312 67.359375 207.722656 66.917969 207.933594 C 66.480469 208.144531 66.015625 208.277344 65.53125 208.328125 C 63.996094 208.480469 62.460938 208.550781 60.917969 208.539062 C 62.460938 208.527344 63.996094 208.597656 65.53125 208.75 C 66.015625 208.800781 66.480469 208.933594 66.917969 209.144531 C 67.359375 209.355469 67.753906 209.632812 68.097656 209.980469 C 68.445312 210.324219 68.722656 210.71875 68.933594 211.160156 C 69.144531 211.597656 69.277344 212.0625 69.328125 212.546875 C 69.480469 214.082031 69.550781 215.617188 69.539062 217.160156 C 69.527344 215.617188 69.597656 214.082031 69.75 212.546875 C 69.804688 212.0625 69.933594 211.597656 70.144531 211.160156 C 70.355469 210.71875 70.636719 210.324219 70.980469 209.980469 C 71.324219 209.636719 71.71875 209.355469 72.160156 209.144531 C 72.597656 208.933594 73.0625 208.800781 73.546875 208.75 C 75.082031 208.597656 76.621094 208.527344 78.160156 208.539062 C 76.621094 208.550781 75.082031 208.480469 73.546875 208.328125 C 73.0625 208.277344 72.597656 208.144531 72.160156 207.933594 C 71.71875 207.722656 71.328125 207.441406 70.980469 207.097656 C 70.636719 206.753906 70.359375 206.359375 70.148438 205.921875 C 69.9375 205.480469 69.804688 205.015625 69.75 204.53125 C 69.597656 202.996094 69.527344 201.460938 69.539062 199.917969 C 69.550781 201.460938 69.480469 202.996094 69.328125 204.53125 Z M 69.328125 204.53125 " fill-opacity="1" fill-rule="nonzero"/><g fill="#d099e2" fill-opacity="0.4"><g transform="translate(145.192933, 165.953106)"><g><path d="M 9.777344 -35.0625 C -0.1875 -32.492188 -5.230469 -24.421875 -2.890625 -15.347656 C -0.535156 -6.214844 7.785156 -1.59375 17.75 -4.164062 C 27.660156 -6.71875 32.703125 -14.789062 30.347656 -23.917969 C 28.007812 -32.992188 19.6875 -37.617188 9.777344 -35.0625 Z M 24.894531 -9.152344 C 22.238281 -6.328125 16.914062 -9.707031 10.269531 -15.890625 C 3.613281 -22.128906 -0.078125 -27.234375 2.566406 -30.113281 C 5.222656 -32.933594 10.546875 -29.558594 17.203125 -23.320312 C 23.789062 -17.121094 27.605469 -11.988281 24.894531 -9.152344 Z M 24.894531 -9.152344 "/></g></g></g><g fill="#d099e2" fill-opacity="0.4"><g transform="translate(197.220222, 154.33573)"><g><path d="M -0.402344 -31.128906 L 1.320312 -0.0742188 L 13.890625 -0.769531 L 12.558594 -24.824219 C 12.488281 -27.125 12.851562 -28.871094 14.488281 -29.480469 C 17.8125 -30.757812 20.890625 -29.261719 19.765625 -17.394531 C 19.300781 -12.300781 19 -7.332031 21.949219 -3.980469 C 27.164062 1.832031 36.851562 -3.140625 40.417969 -8.40625 L 39.503906 -9.273438 C 37.769531 -7.335938 35.898438 -6.828125 34.332031 -8.066406 C 31.984375 -9.894531 32.152344 -13.128906 32.585938 -17.757812 C 33.523438 -26.792969 28.046875 -33.113281 18.117188 -32.5625 C 13.695312 -32.316406 10.808594 -28.355469 7.464844 -27.363281 C 4.179688 -26.375 1.289062 -26.558594 1.03125 -31.210938 Z M -0.402344 -31.128906 "/></g></g></g><g fill="#d099e2" fill-opacity="0.4"><g transform="translate(249.424976, 153.611002)"><g><path d="M 5.160156 -38.65625 L 1.144531 0.117188 L 13.667969 1.414062 L 16.730469 -28.152344 C 17.5 -35.585938 5.765625 -30.558594 6.589844 -38.507812 Z M 5.160156 -38.65625 "/></g></g></g><g fill="#d099e2" fill-opacity="0.4"><g transform="translate(281.560573, 157.596407)"><g><path d="M 17.171875 2.757812 C 14.515625 2.230469 12.773438 0.046875 17.523438 -10.949219 C 19.539062 -15.648438 21.359375 -20.28125 19.589844 -24.378906 C 16.421875 -31.519531 5.675781 -29.78125 0.601562 -25.890625 L 1.253906 -24.765625 C 3.433594 -26.03125 5.386719 -25.992188 6.546875 -24.316406 C 8.214844 -21.855469 7.058594 -18.828125 5.21875 -14.558594 C 1.535156 -6.253906 4.664062 1.472656 14.394531 4.042969 C 17.671875 4.910156 20.875 4.269531 23.796875 2.664062 C 21.730469 9.136719 18.425781 13.078125 14.371094 12.007812 C 10.476562 10.976562 11.910156 4.21875 4.792969 2.339844 C -2.433594 0.425781 -6.460938 7.570312 -7.230469 13.847656 L -6.007812 14.171875 C -5.359375 11.726562 -4.519531 10.34375 -2.015625 11.003906 C 0.761719 11.738281 0.710938 16.425781 6.214844 17.878906 C 14.496094 20.070312 24.15625 9.183594 30.433594 -1.289062 C 33.414062 -6.269531 39.132812 -16.652344 37.523438 -22.253906 L 21.402344 -26.515625 C 28.796875 -19.625 26.769531 4.699219 17.171875 2.757812 Z M 17.171875 2.757812 "/></g></g></g><g fill="#d099e2" fill-opacity="1"><g transform="translate(140.539725, 170.446676)"><g><path d="M 9.777344 -35.0625 C -0.1875 -32.492188 -5.230469 -24.421875 -2.890625 -15.347656 C -0.535156 -6.214844 7.785156 -1.59375 17.75 -4.164062 C 27.660156 -6.71875 32.703125 -14.789062 30.347656 -23.917969 C 28.007812 -32.992188 19.6875 -37.617188 9.777344 -35.0625 Z M 24.894531 -9.152344 C 22.238281 -6.328125 16.914062 -9.707031 10.269531 -15.890625 C 3.613281 -22.128906 -0.078125 -27.234375 2.566406 -30.113281 C 5.222656 -32.933594 10.546875 -29.558594 17.203125 -23.320312 C 23.789062 -17.121094 27.605469 -11.988281 24.894531 -9.152344 Z M 24.894531 -9.152344 "/></g></g></g><g fill="#d099e2" fill-opacity="1"><g transform="translate(192.56703, 158.829293)"><g><path d="M -0.402344 -31.128906 L 1.320312 -0.0742188 L 13.890625 -0.769531 L 12.558594 -24.824219 C 12.488281 -27.125 12.851562 -28.871094 14.488281 -29.480469 C 17.8125 -30.757812 20.890625 -29.261719 19.765625 -17.394531 C 19.300781 -12.300781 19 -7.332031 21.949219 -3.980469 C 27.164062 1.832031 36.851562 -3.140625 40.417969 -8.40625 L 39.503906 -9.273438 C 37.769531 -7.335938 35.898438 -6.828125 34.332031 -8.066406 C 31.984375 -9.894531 32.152344 -13.128906 32.585938 -17.757812 C 33.523438 -26.792969 28.046875 -33.113281 18.117188 -32.5625 C 13.695312 -32.316406 10.808594 -28.355469 7.464844 -27.363281 C 4.179688 -26.375 1.289062 -26.558594 1.03125 -31.210938 Z M -0.402344 -31.128906 "/></g></g></g><g fill="#d099e2" fill-opacity="1"><g transform="translate(244.771753, 158.104572)"><g><path d="M 5.160156 -38.65625 L 1.144531 0.117188 L 13.667969 1.414062 L 16.730469 -28.152344 C 17.5 -35.585938 5.765625 -30.558594 6.589844 -38.507812 Z M 5.160156 -38.65625 "/></g></g></g><g fill="#d099e2" fill-opacity="1"><g transform="translate(276.907382, 162.089977)"><g><path d="M 17.171875 2.757812 C 14.515625 2.230469 12.773438 0.046875 17.523438 -10.949219 C 19.539062 -15.648438 21.359375 -20.28125 19.589844 -24.378906 C 16.421875 -31.519531 5.675781 -29.78125 0.601562 -25.890625 L 1.253906 -24.765625 C 3.433594 -26.03125 5.386719 -25.992188 6.546875 -24.316406 C 8.214844 -21.855469 7.058594 -18.828125 5.21875 -14.558594 C 1.535156 -6.253906 4.664062 1.472656 14.394531 4.042969 C 17.671875 4.910156 20.875 4.269531 23.796875 2.664062 C 21.730469 9.136719 18.425781 13.078125 14.371094 12.007812 C 10.476562 10.976562 11.910156 4.21875 4.792969 2.339844 C -2.433594 0.425781 -6.460938 7.570312 -7.230469 13.847656 L -6.007812 14.171875 C -5.359375 11.726562 -4.519531 10.34375 -2.015625 11.003906 C 0.761719 11.738281 0.710938 16.425781 6.214844 17.878906 C 14.496094 20.070312 24.15625 9.183594 30.433594 -1.289062 C 33.414062 -6.269531 39.132812 -16.652344 37.523438 -22.253906 L 21.402344 -26.515625 C 28.796875 -19.625 26.769531 4.699219 17.171875 2.757812 Z M 17.171875 2.757812 "/></g></g></g><g fill="#d099e2" fill-opacity="0.4"><g transform="translate(132.560064, 299.856635)"><g><path d="M 36.664062 7.144531 C 32.058594 6.855469 29.039062 2.984375 33.507812 -4.6875 C 38.070312 -11.03125 40.472656 -18.96875 39.085938 -22.5 L 22.882812 -26.445312 C 30.414062 -19.699219 28.867188 4.65625 19.179688 2.890625 C 16.566406 2.433594 14.785156 0.285156 19.316406 -10.804688 C 21.238281 -15.542969 22.910156 -20.226562 21.058594 -24.285156 C 17.804688 -31.347656 7.039062 -29.414062 2.097656 -25.40625 L 2.777344 -24.296875 C 4.929688 -25.605469 6.882812 -25.605469 8.078125 -23.953125 C 9.792969 -21.523438 8.695312 -18.476562 6.882812 -14.183594 C 3.367188 -5.808594 6.707031 1.867188 16.425781 4.234375 C 21.230469 5.402344 25.75 3.367188 29.480469 -0.046875 C 28.445312 4.199219 29.945312 7.523438 33.910156 8.488281 C 47.765625 11.859375 57.597656 -10.066406 58.636719 -17.746094 L 42.4375 -21.6875 C 47.308594 -14.230469 46.332031 7.78125 36.664062 7.144531 Z M 36.664062 7.144531 "/></g></g></g><g fill="#d099e2" fill-opacity="0.4"><g transform="translate(207.161186, 313.988885)"><g><path d="M 1.320312 0.0664062 L 13.898438 0.691406 L 14.882812 -19.058594 C 15.085938 -23.136719 11.640625 -23.308594 8.621094 -23.921875 C 5.371094 -24.601562 3.527344 -25.671875 2.667969 -26.921875 Z M 16.609375 -31.753906 C 16.8125 -35.832031 14.023438 -38.789062 9.601562 -39.011719 C 5.179688 -39.230469 2.113281 -36.566406 1.910156 -32.488281 C 1.707031 -28.46875 4.496094 -25.507812 8.917969 -25.289062 C 13.339844 -25.066406 16.410156 -27.734375 16.609375 -31.753906 Z M 16.609375 -31.753906 "/></g></g></g><g fill="#d099e2" fill-opacity="0.4"><g transform="translate(243.896865, 314.738846)"><g><path d="M 10.839844 -24.644531 C 2.402344 -25.925781 3.296875 -30.515625 6.675781 -30.835938 C 10.625 -31.207031 13.722656 -23.472656 18.246094 -23.898438 C 23.167969 -24.363281 23.664062 -30.707031 23.40625 -33.453125 L 21.917969 -33.3125 C 22.078125 -31.597656 20.273438 -30.558594 18.097656 -30.355469 C 14.089844 -29.976562 11.75 -32.757812 6.539062 -32.265625 C 1.960938 -31.832031 -1.601562 -26.761719 -0.96875 -21.855469 C -0.179688 -15.34375 5.886719 -12.28125 11.363281 -11.757812 C 17.832031 -11.15625 20.125 -8.886719 20.84375 -6.761719 C 21.492188 -4.800781 20.363281 -3.308594 18.941406 -3.058594 C 14.96875 -2.335938 14.101562 -12.132812 6.660156 -11.429688 C 0.589844 -10.855469 1.167969 -2.941406 1.429688 -0.136719 L 2.863281 -0.269531 C 2.660156 -2.386719 3.691406 -3.699219 6.097656 -3.925781 C 10.046875 -4.296875 11.886719 -0.71875 17.09375 -1.210938 C 24.308594 -1.890625 26.433594 -7.519531 26.085938 -13.03125 C 25.628906 -20.324219 19.75 -23.234375 10.839844 -24.644531 Z M 10.839844 -24.644531 "/></g></g></g><g fill="#d099e2" fill-opacity="0.4"><g transform="translate(293.693359, 308.360641)"><g><path d="M 1.480469 -40.886719 C 3.628906 -33.1875 -8.726562 -36.183594 -6.71875 -28.984375 L 1.273438 -0.355469 L 13.402344 -3.742188 L 6.925781 -26.945312 C 6.363281 -29.175781 6.339844 -30.960938 7.808594 -31.90625 C 10.78125 -33.871094 14.109375 -33.066406 15.5625 -21.238281 C 16.203125 -16.164062 16.976562 -11.246094 20.578125 -8.609375 C 26.867188 -4.039062 35.316406 -10.992188 37.664062 -16.898438 L 36.53125 -17.539062 C 35.308594 -15.289062 33.589844 -14.390625 31.792969 -15.261719 C 29.109375 -16.542969 28.519531 -19.71875 28.003906 -24.351562 C 26.976562 -33.375 20.214844 -38.355469 10.691406 -35.695312 C 8.421875 -35.0625 6.910156 -33.625 5.472656 -32.148438 L 2.921875 -41.285156 Z M 1.480469 -40.886719 "/></g></g></g><g fill="#d099e2" fill-opacity="1"><g transform="translate(127.985957, 304.430754)"><g><path d="M 36.664062 7.144531 C 32.058594 6.855469 29.039062 2.984375 33.507812 -4.6875 C 38.070312 -11.03125 40.472656 -18.96875 39.085938 -22.5 L 22.882812 -26.445312 C 30.414062 -19.699219 28.867188 4.65625 19.179688 2.890625 C 16.566406 2.433594 14.785156 0.285156 19.316406 -10.804688 C 21.238281 -15.542969 22.910156 -20.226562 21.058594 -24.285156 C 17.804688 -31.347656 7.039062 -29.414062 2.097656 -25.40625 L 2.777344 -24.296875 C 4.929688 -25.605469 6.882812 -25.605469 8.078125 -23.953125 C 9.792969 -21.523438 8.695312 -18.476562 6.882812 -14.183594 C 3.367188 -5.808594 6.707031 1.867188 16.425781 4.234375 C 21.230469 5.402344 25.75 3.367188 29.480469 -0.046875 C 28.445312 4.199219 29.945312 7.523438 33.910156 8.488281 C 47.765625 11.859375 57.597656 -10.066406 58.636719 -17.746094 L 42.4375 -21.6875 C 47.308594 -14.230469 46.332031 7.78125 36.664062 7.144531 Z M 36.664062 7.144531 "/></g></g></g><g fill="#d099e2" fill-opacity="1"><g transform="translate(202.587064, 318.562978)"><g><path d="M 1.320312 0.0664062 L 13.898438 0.691406 L 14.882812 -19.058594 C 15.085938 -23.136719 11.640625 -23.308594 8.621094 -23.921875 C 5.371094 -24.601562 3.527344 -25.671875 2.667969 -26.921875 Z M 16.609375 -31.753906 C 16.8125 -35.832031 14.023438 -38.789062 9.601562 -39.011719 C 5.179688 -39.230469 2.113281 -36.566406 1.910156 -32.488281 C 1.707031 -28.46875 4.496094 -25.507812 8.917969 -25.289062 C 13.339844 -25.066406 16.410156 -27.734375 16.609375 -31.753906 Z M 16.609375 -31.753906 "/></g></g></g><g fill="#d099e2" fill-opacity="1"><g transform="translate(239.322758, 319.312965)"><g><path d="M 10.839844 -24.644531 C 2.402344 -25.925781 3.296875 -30.515625 6.675781 -30.835938 C 10.625 -31.207031 13.722656 -23.472656 18.246094 -23.898438 C 23.167969 -24.363281 23.664062 -30.707031 23.40625 -33.453125 L 21.917969 -33.3125 C 22.078125 -31.597656 20.273438 -30.558594 18.097656 -30.355469 C 14.089844 -29.976562 11.75 -32.757812 6.539062 -32.265625 C 1.960938 -31.832031 -1.601562 -26.761719 -0.96875 -21.855469 C -0.179688 -15.34375 5.886719 -12.28125 11.363281 -11.757812 C 17.832031 -11.15625 20.125 -8.886719 20.84375 -6.761719 C 21.492188 -4.800781 20.363281 -3.308594 18.941406 -3.058594 C 14.96875 -2.335938 14.101562 -12.132812 6.660156 -11.429688 C 0.589844 -10.855469 1.167969 -2.941406 1.429688 -0.136719 L 2.863281 -0.269531 C 2.660156 -2.386719 3.691406 -3.699219 6.097656 -3.925781 C 10.046875 -4.296875 11.886719 -0.71875 17.09375 -1.210938 C 24.308594 -1.890625 26.433594 -7.519531 26.085938 -13.03125 C 25.628906 -20.324219 19.75 -23.234375 10.839844 -24.644531 Z M 10.839844 -24.644531 "/></g></g></g><g fill="#d099e2" fill-opacity="1"><g transform="translate(289.119237, 312.934763)"><g><path d="M 1.480469 -40.886719 C 3.628906 -33.1875 -8.726562 -36.183594 -6.71875 -28.984375 L 1.273438 -0.355469 L 13.402344 -3.742188 L 6.925781 -26.945312 C 6.363281 -29.175781 6.339844 -30.960938 7.808594 -31.90625 C 10.78125 -33.871094 14.109375 -33.066406 15.5625 -21.238281 C 16.203125 -16.164062 16.976562 -11.246094 20.578125 -8.609375 C 26.867188 -4.039062 35.316406 -10.992188 37.664062 -16.898438 L 36.53125 -17.539062 C 35.308594 -15.289062 33.589844 -14.390625 31.792969 -15.261719 C 29.109375 -16.542969 28.519531 -19.71875 28.003906 -24.351562 C 26.976562 -33.375 20.214844 -38.355469 10.691406 -35.695312 C 8.421875 -35.0625 6.910156 -33.625 5.472656 -32.148438 L 2.921875 -41.285156 Z M 1.480469 -40.886719 "/></g></g></g><g clip-path="url(#4833a6cce1)"><path fill="#c2c1fe" d="M 360.121094 211.867188 C 360.207031 212.648438 360.355469 213.414062 360.570312 214.167969 C 360.785156 214.921875 361.0625 215.652344 361.402344 216.359375 C 361.742188 217.066406 362.140625 217.742188 362.59375 218.382812 C 363.046875 219.023438 363.550781 219.621094 364.105469 220.175781 C 364.660156 220.730469 365.257812 221.234375 365.898438 221.6875 C 366.539062 222.140625 367.210938 222.535156 367.917969 222.875 C 368.625 223.214844 369.355469 223.492188 370.113281 223.707031 C 370.867188 223.921875 371.632812 224.070312 372.414062 224.15625 C 377.378906 224.652344 382.355469 224.878906 387.34375 224.835938 C 382.355469 224.796875 377.378906 225.023438 372.414062 225.519531 C 371.632812 225.601562 370.867188 225.753906 370.113281 225.96875 C 369.355469 226.183594 368.625 226.460938 367.917969 226.800781 C 367.210938 227.140625 366.539062 227.535156 365.898438 227.988281 C 365.257812 228.441406 364.660156 228.945312 364.105469 229.5 C 363.550781 230.054688 363.046875 230.652344 362.59375 231.292969 C 362.140625 231.933594 361.742188 232.605469 361.402344 233.3125 C 361.0625 234.019531 360.789062 234.75 360.570312 235.507812 C 360.355469 236.261719 360.207031 237.027344 360.121094 237.808594 C 359.625 242.769531 359.398438 247.746094 359.441406 252.734375 C 359.480469 247.746094 359.253906 242.769531 358.761719 237.808594 C 358.675781 237.027344 358.523438 236.261719 358.308594 235.507812 C 358.09375 234.75 357.816406 234.019531 357.476562 233.3125 C 357.136719 232.605469 356.742188 231.933594 356.289062 231.292969 C 355.835938 230.652344 355.332031 230.054688 354.777344 229.5 C 354.222656 228.945312 353.625 228.441406 352.984375 227.988281 C 352.34375 227.535156 351.671875 227.140625 350.960938 226.800781 C 350.253906 226.460938 349.523438 226.183594 348.769531 225.96875 C 348.015625 225.753906 347.25 225.601562 346.46875 225.515625 C 341.503906 225.023438 336.527344 224.796875 331.535156 224.835938 C 336.527344 224.878906 341.503906 224.652344 346.46875 224.15625 C 347.246094 224.070312 348.015625 223.921875 348.769531 223.707031 C 349.523438 223.492188 350.253906 223.214844 350.960938 222.875 C 351.667969 222.535156 352.34375 222.140625 352.984375 221.6875 C 353.625 221.234375 354.222656 220.726562 354.777344 220.175781 C 355.332031 219.621094 355.835938 219.023438 356.289062 218.382812 C 356.742188 217.742188 357.136719 217.066406 357.476562 216.359375 C 357.816406 215.652344 358.09375 214.921875 358.308594 214.167969 C 358.523438 213.414062 358.675781 212.648438 358.761719 211.867188 C 359.253906 206.902344 359.480469 201.925781 359.441406 196.9375 C 359.398438 201.925781 359.625 206.902344 360.121094 211.867188 Z M 360.121094 211.867188 " fill-opacity="1" fill-rule="nonzero"/></g><g clip-path="url(#07261072c5)"><path fill="#c2c1fe" d="M 391.273438 232.390625 C 391.363281 233.1875 391.578125 233.945312 391.925781 234.664062 C 392.269531 235.386719 392.726562 236.03125 393.289062 236.59375 C 393.855469 237.160156 394.5 237.617188 395.222656 237.960938 C 395.941406 238.308594 396.699219 238.523438 397.496094 238.609375 C 400.007812 238.859375 402.527344 238.976562 405.050781 238.953125 C 402.527344 238.933594 400.007812 239.050781 397.496094 239.300781 C 396.699219 239.386719 395.941406 239.601562 395.222656 239.949219 C 394.5 240.292969 393.855469 240.75 393.289062 241.316406 C 392.726562 241.878906 392.269531 242.523438 391.925781 243.246094 C 391.578125 243.964844 391.363281 244.722656 391.273438 245.519531 C 391.023438 248.03125 390.910156 250.546875 390.929688 253.074219 C 390.953125 250.546875 390.835938 248.03125 390.585938 245.519531 C 390.5 244.722656 390.28125 243.964844 389.9375 243.242188 C 389.589844 242.523438 389.136719 241.878906 388.570312 241.3125 C 388.003906 240.75 387.359375 240.292969 386.640625 239.949219 C 385.917969 239.601562 385.160156 239.386719 384.367188 239.300781 C 381.851562 239.050781 379.335938 238.933594 376.808594 238.953125 C 379.335938 238.976562 381.851562 238.859375 384.367188 238.609375 C 385.160156 238.523438 385.917969 238.308594 386.640625 237.960938 C 387.359375 237.617188 388.003906 237.160156 388.570312 236.59375 C 389.136719 236.03125 389.589844 235.386719 389.9375 234.664062 C 390.28125 233.945312 390.5 233.1875 390.585938 232.390625 C 390.835938 229.878906 390.953125 227.363281 390.933594 224.835938 C 390.910156 227.359375 391.023438 229.878906 391.273438 232.390625 Z M 391.273438 232.390625 " fill-opacity="1" fill-rule="nonzero"/></g><path fill="#c2c1fe" d="M 380.660156 204.53125 C 380.714844 205.015625 380.84375 205.480469 381.058594 205.921875 C 381.269531 206.359375 381.546875 206.753906 381.890625 207.097656 C 382.238281 207.445312 382.628906 207.722656 383.070312 207.933594 C 383.511719 208.144531 383.972656 208.277344 384.457031 208.328125 C 385.992188 208.480469 387.53125 208.550781 389.070312 208.539062 C 387.53125 208.527344 385.992188 208.597656 384.457031 208.75 C 383.972656 208.800781 383.511719 208.933594 383.070312 209.144531 C 382.628906 209.355469 382.238281 209.632812 381.890625 209.980469 C 381.546875 210.324219 381.269531 210.71875 381.058594 211.160156 C 380.84375 211.597656 380.714844 212.0625 380.660156 212.546875 C 380.507812 214.082031 380.4375 215.617188 380.449219 217.160156 C 380.464844 215.617188 380.394531 214.082031 380.238281 212.546875 C 380.1875 212.0625 380.054688 211.597656 379.84375 211.160156 C 379.632812 210.71875 379.355469 210.324219 379.007812 209.980469 C 378.664062 209.636719 378.269531 209.355469 377.832031 209.144531 C 377.390625 208.933594 376.925781 208.800781 376.441406 208.75 C 374.90625 208.597656 373.371094 208.527344 371.828125 208.539062 C 373.371094 208.550781 374.90625 208.480469 376.441406 208.328125 C 376.925781 208.277344 377.390625 208.144531 377.832031 207.933594 C 378.269531 207.722656 378.664062 207.441406 379.007812 207.097656 C 379.351562 206.753906 379.632812 206.359375 379.84375 205.921875 C 380.054688 205.480469 380.183594 205.015625 380.238281 204.53125 C 380.390625 202.996094 380.460938 201.460938 380.449219 199.917969 C 380.4375 201.460938 380.507812 202.996094 380.660156 204.53125 Z M 380.660156 204.53125 " fill-opacity="1" fill-rule="nonzero"/></svg>