<svg xmlns="http://www.w3.org/2000/svg" xmlns:xlink="http://www.w3.org/1999/xlink" width="600" zoomAndPan="magnify" viewBox="0 0 450 449.999984" height="600" preserveAspectRatio="xMidYMid meet" version="1.0"><defs><clipPath id="98ced65c32"><path d="M 270 214 L 418 214 L 418 360 L 270 360 Z M 270 214 " clip-rule="nonzero"/></clipPath><clipPath id="e10b2c3d78"><path d="M 41.855469 74.765625 L 358.882812 19.828125 L 417.660156 359.023438 L 100.636719 413.960938 Z M 41.855469 74.765625 " clip-rule="nonzero"/></clipPath><clipPath id="394203d001"><path d="M 41.855469 74.765625 L 358.882812 19.828125 L 417.660156 359.023438 L 100.636719 413.960938 Z M 41.855469 74.765625 " clip-rule="nonzero"/></clipPath><clipPath id="55d76305f5"><path d="M 269.253906 214.765625 L 389.390625 193.949219 L 417.984375 358.957031 L 297.847656 379.773438 Z M 269.253906 214.765625 " clip-rule="nonzero"/></clipPath><clipPath id="0009c94fd7"><path d="M 269.253906 214.765625 L 389.085938 194.003906 L 417.667969 358.949219 L 297.839844 379.714844 Z M 269.253906 214.765625 " clip-rule="nonzero"/></clipPath><clipPath id="9e589ec2f7"><path d="M 239 179 L 292 179 L 292 244 L 239 244 Z M 239 179 " clip-rule="nonzero"/></clipPath><clipPath id="018c5a6505"><path d="M 41.855469 74.765625 L 358.882812 19.828125 L 417.660156 359.023438 L 100.636719 413.960938 Z M 41.855469 74.765625 " clip-rule="nonzero"/></clipPath><clipPath id="c4840d018c"><path d="M 41.855469 74.765625 L 358.882812 19.828125 L 417.660156 359.023438 L 100.636719 413.960938 Z M 41.855469 74.765625 " clip-rule="nonzero"/></clipPath><clipPath id="cac8409014"><path d="M 54 70 L 266 70 L 266 178 L 54 178 Z M 54 70 " clip-rule="nonzero"/></clipPath><clipPath id="6a0bd61e80"><path d="M 41.855469 74.765625 L 358.882812 19.828125 L 417.660156 359.023438 L 100.636719 413.960938 Z M 41.855469 74.765625 " clip-rule="nonzero"/></clipPath><clipPath id="e4461aa39c"><path d="M 41.855469 74.765625 L 358.882812 19.828125 L 417.660156 359.023438 L 100.636719 413.960938 Z M 41.855469 74.765625 " clip-rule="nonzero"/></clipPath><clipPath id="9dc8be0a9e"><path d="M 54 133 L 234 133 L 234 204 L 54 204 Z M 54 133 " clip-rule="nonzero"/></clipPath><clipPath id="650c634c51"><path d="M 41.855469 74.765625 L 358.882812 19.828125 L 417.660156 359.023438 L 100.636719 413.960938 Z M 41.855469 74.765625 " clip-rule="nonzero"/></clipPath><clipPath id="cf27dc8465"><path d="M 41.855469 74.765625 L 358.882812 19.828125 L 417.660156 359.023438 L 100.636719 413.960938 Z M 41.855469 74.765625 " clip-rule="nonzero"/></clipPath><clipPath id="8c804c6bc4"><path d="M 161 203 L 257 203 L 257 255 L 161 255 Z M 161 203 " clip-rule="nonzero"/></clipPath><clipPath id="96e0db4f44"><path d="M 41.855469 74.765625 L 358.882812 19.828125 L 417.660156 359.023438 L 100.636719 413.960938 Z M 41.855469 74.765625 " clip-rule="nonzero"/></clipPath><clipPath id="1ed35c828b"><path d="M 41.855469 74.765625 L 358.882812 19.828125 L 417.660156 359.023438 L 100.636719 413.960938 Z M 41.855469 74.765625 " clip-rule="nonzero"/></clipPath><clipPath id="4d9ad8b366"><path d="M 105 86 L 124 86 L 124 108 L 105 108 Z M 105 86 " clip-rule="nonzero"/></clipPath><clipPath id="ac90567692"><path d="M 41.855469 74.765625 L 358.882812 19.828125 L 417.660156 359.023438 L 100.636719 413.960938 Z M 41.855469 74.765625 " clip-rule="nonzero"/></clipPath><clipPath id="4c0401d66c"><path d="M 41.855469 74.765625 L 358.882812 19.828125 L 417.660156 359.023438 L 100.636719 413.960938 Z M 41.855469 74.765625 " clip-rule="nonzero"/></clipPath><clipPath id="5f0e5c84b3"><path d="M 196 130 L 217 130 L 217 151 L 196 151 Z M 196 130 " clip-rule="nonzero"/></clipPath><clipPath id="bcada73529"><path d="M 41.855469 74.765625 L 358.882812 19.828125 L 417.660156 359.023438 L 100.636719 413.960938 Z M 41.855469 74.765625 " clip-rule="nonzero"/></clipPath><clipPath id="74e240e799"><path d="M 41.855469 74.765625 L 358.882812 19.828125 L 417.660156 359.023438 L 100.636719 413.960938 Z M 41.855469 74.765625 " clip-rule="nonzero"/></clipPath><clipPath id="8d4f2d049a"><path d="M 149 133 L 169 133 L 169 153 L 149 153 Z M 149 133 " clip-rule="nonzero"/></clipPath><clipPath id="75a6525a5b"><path d="M 41.855469 74.765625 L 358.882812 19.828125 L 417.660156 359.023438 L 100.636719 413.960938 Z M 41.855469 74.765625 " clip-rule="nonzero"/></clipPath><clipPath id="125aee77d6"><path d="M 41.855469 74.765625 L 358.882812 19.828125 L 417.660156 359.023438 L 100.636719 413.960938 Z M 41.855469 74.765625 " clip-rule="nonzero"/></clipPath><clipPath id="6542d1cc63"><path d="M 207 195 L 228 195 L 228 218 L 207 218 Z M 207 195 " clip-rule="nonzero"/></clipPath><clipPath id="116be6eef1"><path d="M 41.855469 74.765625 L 358.882812 19.828125 L 417.660156 359.023438 L 100.636719 413.960938 Z M 41.855469 74.765625 " clip-rule="nonzero"/></clipPath><clipPath id="20dc637262"><path d="M 41.855469 74.765625 L 358.882812 19.828125 L 417.660156 359.023438 L 100.636719 413.960938 Z M 41.855469 74.765625 " clip-rule="nonzero"/></clipPath><clipPath id="a8681ea89c"><path d="M 295 179 L 313 179 L 313 202 L 295 202 Z M 295 179 " clip-rule="nonzero"/></clipPath><clipPath id="30dd217185"><path d="M 41.855469 74.765625 L 358.882812 19.828125 L 417.660156 359.023438 L 100.636719 413.960938 Z M 41.855469 74.765625 " clip-rule="nonzero"/></clipPath><clipPath id="9241c225f6"><path d="M 41.855469 74.765625 L 358.882812 19.828125 L 417.660156 359.023438 L 100.636719 413.960938 Z M 41.855469 74.765625 " clip-rule="nonzero"/></clipPath><clipPath id="dd1176d00a"><path d="M 269 258 L 288 258 L 288 278 L 269 278 Z M 269 258 " clip-rule="nonzero"/></clipPath><clipPath id="69ff874721"><path d="M 41.855469 74.765625 L 358.882812 19.828125 L 417.660156 359.023438 L 100.636719 413.960938 Z M 41.855469 74.765625 " clip-rule="nonzero"/></clipPath><clipPath id="69fbf3d437"><path d="M 41.855469 74.765625 L 358.882812 19.828125 L 417.660156 359.023438 L 100.636719 413.960938 Z M 41.855469 74.765625 " clip-rule="nonzero"/></clipPath></defs><g clip-path="url(#98ced65c32)"><g clip-path="url(#e10b2c3d78)"><g clip-path="url(#394203d001)"><g clip-path="url(#55d76305f5)"><g clip-path="url(#0009c94fd7)"><path fill="#9a67cd" d="M 274.839844 214.769531 C 275.898438 215.457031 277.171875 216.59375 278.667969 218.179688 C 278.699219 218.21875 278.734375 218.253906 278.765625 218.292969 C 284.214844 224.671875 290.414062 231.300781 297.359375 238.183594 C 297.382812 238.203125 297.402344 238.226562 297.425781 238.246094 C 302.527344 243.597656 316.472656 257.269531 339.265625 279.261719 C 339.28125 279.277344 339.300781 279.296875 339.316406 279.3125 L 368.4375 308.710938 L 368.402344 308.675781 C 396.390625 336.019531 412.242188 351.105469 415.949219 353.929688 C 417.320312 354.972656 417.585938 356.929688 416.542969 358.296875 C 415.5 359.667969 413.546875 359.933594 412.175781 358.890625 C 408.265625 355.914062 392.21875 340.660156 364.046875 313.136719 L 364.011719 313.101562 L 334.886719 283.699219 L 334.9375 283.75 C 312.085938 261.699219 298.078125 247.964844 292.914062 242.550781 L 292.972656 242.613281 C 285.902344 235.609375 279.589844 228.855469 274.03125 222.34375 L 274.128906 222.457031 C 272.976562 221.234375 272.082031 220.414062 271.4375 219.996094 C 269.996094 219.054688 269.589844 217.121094 270.527344 215.679688 C 271.46875 214.238281 273.398438 213.828125 274.839844 214.769531 " fill-opacity="1" fill-rule="nonzero"/></g></g></g></g></g><g clip-path="url(#9e589ec2f7)"><g clip-path="url(#018c5a6505)"><g clip-path="url(#c4840d018c)"><path fill="#d099e2" d="M 239.925781 179.613281 L 239.828125 179.703125 C 239.609375 180.003906 239.734375 180.675781 240.214844 181.722656 C 245.699219 192.730469 249.632812 201.207031 252.007812 207.152344 C 245.234375 218.308594 241.523438 225.679688 240.875 229.257812 C 240.941406 229.421875 241.332031 229.246094 242.046875 228.734375 L 257.210938 217.421875 C 257.90625 217.015625 258.347656 216.90625 258.53125 217.085938 C 260.40625 221.445312 263.875 228.765625 268.929688 239.054688 C 270.28125 241.519531 271.085938 242.882812 271.351562 243.144531 C 271.808594 243.78125 272.132812 244.03125 272.316406 243.902344 C 272.757812 243.578125 272.886719 241.765625 272.703125 238.46875 C 272.730469 236.847656 272.15625 230.265625 270.976562 218.722656 C 271.066406 218.574219 271.277344 218.503906 271.613281 218.503906 C 277.441406 219.289062 282.21875 219.636719 285.953125 219.550781 C 289.496094 219.496094 291.3125 219.152344 291.40625 218.523438 C 291.6875 218.28125 291.367188 217.6875 290.453125 216.738281 L 279.949219 206.636719 C 282.652344 198.910156 284.089844 191.414062 284.253906 184.140625 C 273.636719 190.480469 267.609375 193.636719 266.167969 193.613281 C 265.425781 193.878906 257.550781 189.429688 242.535156 180.269531 C 241.421875 179.65625 240.550781 179.4375 239.925781 179.613281 " fill-opacity="1" fill-rule="nonzero"/></g></g></g><g clip-path="url(#cac8409014)"><g clip-path="url(#6a0bd61e80)"><g clip-path="url(#e4461aa39c)"><path fill="#c2c1fe" d="M 61.09375 78.472656 C 56.671875 99.621094 63.5625 112.695312 81.757812 117.691406 C 86.859375 118.695312 92.742188 118.535156 99.410156 117.210938 C 131.902344 107.058594 153.9375 101.652344 165.515625 100.988281 C 182.761719 99.496094 197.140625 101.574219 208.652344 107.234375 C 216.097656 110.832031 222.261719 115.710938 227.152344 121.863281 C 230.070312 125.484375 232.652344 129.25 234.898438 133.15625 C 242.429688 149.785156 247.78125 160 250.957031 163.804688 C 254.808594 169.503906 259.765625 174.167969 265.824219 177.800781 C 261.582031 177.628906 255.667969 174.078125 248.070312 167.148438 C 242.96875 162.417969 234.992188 152.335938 224.136719 136.90625 C 221.886719 134.175781 219.679688 131.898438 217.511719 130.070312 C 212.183594 125.589844 205.898438 122.492188 198.664062 120.78125 C 191.980469 119.117188 184.875 119.199219 177.359375 121.035156 C 175.828125 120.699219 163.261719 125.488281 139.65625 135.394531 C 132.296875 137.710938 125.132812 139.25 118.167969 140.011719 C 101.460938 141.089844 88.179688 138.667969 78.324219 132.742188 C 65.78125 126.585938 57.96875 116.882812 54.886719 103.632812 C 52.890625 89.980469 56.121094 79.074219 64.582031 70.90625 L 61.09375 78.472656 " fill-opacity="1" fill-rule="nonzero"/></g></g></g><g clip-path="url(#9dc8be0a9e)"><g clip-path="url(#650c634c51)"><g clip-path="url(#cf27dc8465)"><path fill="#c2c1fe" d="M 233.246094 203.066406 C 225.929688 190.96875 220.675781 180.867188 217.476562 172.761719 C 216.625 171.105469 215.398438 169.210938 213.792969 167.082031 C 208.230469 159.871094 202.074219 155.4375 195.320312 153.78125 C 190.269531 152.425781 184.933594 152.554688 179.304688 154.164062 C 154.050781 165.75 139.710938 171.429688 136.285156 171.195312 C 127.609375 173 118.359375 173.214844 108.542969 171.84375 C 97.382812 170.222656 88.042969 166.652344 80.515625 161.121094 C 76.578125 158.214844 72.695312 154.605469 68.871094 150.296875 L 55.84375 133.367188 C 53.234375 140.335938 56.355469 149.246094 65.207031 160.09375 C 79.414062 175.539062 95.316406 184.308594 112.917969 186.394531 C 121.410156 187.453125 129.109375 187.050781 136.023438 185.191406 C 136.089844 185.949219 148.144531 180.761719 172.183594 169.628906 C 178.726562 167.128906 183.976562 165.769531 187.929688 165.546875 C 198.097656 164.4375 206.371094 169.109375 212.75 179.566406 L 233.246094 203.066406 " fill-opacity="1" fill-rule="nonzero"/></g></g></g><g clip-path="url(#8c804c6bc4)"><g clip-path="url(#96e0db4f44)"><g clip-path="url(#1ed35c828b)"><path fill="#c2c1fe" d="M 256.75 240.109375 C 246.542969 245.722656 235.300781 245.75 223.027344 240.191406 C 219.664062 238.304688 216.585938 235.359375 213.785156 231.34375 C 212.335938 229.558594 209.691406 224.292969 205.84375 215.546875 C 204.890625 213.746094 203.921875 212.226562 202.941406 210.988281 C 200.460938 208.023438 197.363281 205.875 193.648438 204.546875 C 183.515625 201.8125 172.640625 203.011719 161.019531 208.152344 C 170.953125 206.398438 179.386719 208.050781 186.320312 213.109375 C 188.589844 214.804688 190.574219 216.925781 192.273438 219.457031 C 199.78125 233.53125 204.476562 241.300781 206.363281 242.761719 C 209.914062 247.023438 214.128906 250.109375 219.007812 252.011719 C 232.171875 257.101562 243.171875 254.496094 252.011719 244.195312 L 256.75 240.109375 " fill-opacity="1" fill-rule="nonzero"/></g></g></g><g clip-path="url(#4d9ad8b366)"><g clip-path="url(#ac90567692)"><g clip-path="url(#4c0401d66c)"><path fill="#c2c1fe" d="M 109.375 86.671875 L 115.632812 92.476562 C 116.390625 93.160156 116.765625 93.453125 116.753906 93.359375 C 117.046875 93.46875 117.449219 93.382812 117.953125 93.105469 C 120.210938 91.410156 121.3125 90.632812 121.261719 90.777344 C 121.535156 90.640625 121.714844 90.714844 121.796875 91.003906 C 121.917969 91.535156 121.886719 92.1875 121.703125 92.957031 L 119.953125 99.691406 C 119.914062 99.867188 120.160156 100.273438 120.691406 100.921875 C 120.894531 101.171875 121.800781 102 123.398438 103.40625 C 123.527344 103.507812 123.574219 103.59375 123.53125 103.667969 C 123.339844 103.890625 121.648438 103.265625 118.445312 101.789062 C 118.082031 101.683594 117.765625 101.683594 117.488281 101.796875 C 117.300781 101.84375 117.101562 102.039062 116.882812 102.378906 C 115.960938 104.433594 115.3125 105.746094 114.933594 106.328125 C 114.617188 106.882812 114.367188 107.128906 114.183594 107.0625 C 113.855469 106.996094 113.542969 106.703125 113.246094 106.175781 C 113.105469 105.914062 112.722656 104.683594 112.09375 102.484375 C 111.964844 102.117188 111.75 101.875 111.457031 101.75 C 111.273438 101.644531 111.011719 101.640625 110.667969 101.734375 C 107.777344 103.234375 106.179688 103.9375 105.878906 103.839844 C 105.71875 103.796875 105.957031 103.292969 106.589844 102.324219 C 109.074219 99.042969 110.917969 96.71875 112.113281 95.355469 L 109.375 86.671875 " fill-opacity="1" fill-rule="nonzero"/></g></g></g><g clip-path="url(#5f0e5c84b3)"><g clip-path="url(#bcada73529)"><g clip-path="url(#74e240e799)"><path fill="#c2c1fe" d="M 201.339844 130.863281 C 201.796875 131.675781 203.714844 133.617188 207.09375 136.679688 C 207.375 136.816406 207.695312 136.84375 208.054688 136.761719 L 211.785156 135.589844 C 212.046875 135.554688 212.191406 135.585938 212.21875 135.691406 C 212.351562 135.816406 212.3125 136.304688 212.109375 137.152344 C 211.464844 138.914062 210.820312 140.574219 210.179688 142.128906 C 210.097656 142.402344 210.089844 142.59375 210.152344 142.703125 C 210.085938 142.789062 210.40625 143.136719 211.105469 143.738281 L 216.355469 147.96875 C 216.484375 148.464844 215.980469 148.46875 214.839844 147.976562 C 214.925781 148.109375 212.605469 146.941406 207.871094 144.476562 C 207.113281 144.113281 206.71875 143.976562 206.699219 144.058594 C 206.59375 144.046875 206.472656 144.15625 206.332031 144.390625 C 205.867188 145.882812 205.222656 147.570312 204.40625 149.453125 C 204.128906 149.949219 203.804688 150.128906 203.429688 149.992188 C 203.285156 150.015625 203.136719 149.484375 202.984375 148.402344 C 202.710938 145.996094 202.570312 144.117188 202.566406 142.757812 C 202.539062 142.53125 202.472656 142.355469 202.363281 142.234375 C 202.183594 142.066406 201.988281 142.003906 201.785156 142.027344 C 200.394531 142.316406 198.949219 142.566406 197.445312 142.777344 C 197.070312 142.835938 196.84375 142.773438 196.761719 142.59375 C 196.707031 142.515625 196.859375 142.351562 197.203125 142.105469 L 203.109375 138.554688 L 201.339844 130.863281 " fill-opacity="1" fill-rule="nonzero"/></g></g></g><g clip-path="url(#8d4f2d049a)"><g clip-path="url(#75a6525a5b)"><g clip-path="url(#125aee77d6)"><path fill="#c2c1fe" d="M 153.984375 133.179688 L 158.140625 136.558594 C 158.425781 136.757812 158.75 136.886719 159.109375 136.941406 C 159.472656 136.996094 159.859375 136.9375 160.277344 136.769531 C 162.75 135.542969 163.976562 134.964844 163.960938 135.035156 C 164.476562 134.878906 164.828125 134.859375 165.003906 134.972656 C 165.234375 135.042969 165.148438 135.589844 164.75 136.609375 C 164.492188 137.300781 163.628906 139.046875 162.148438 141.84375 C 162.050781 142.074219 162.035156 142.296875 162.097656 142.511719 C 162.148438 142.777344 162.386719 143.058594 162.804688 143.34375 C 165.371094 144.628906 167.355469 145.769531 168.757812 146.753906 C 168.75 146.914062 168.222656 146.890625 167.179688 146.675781 C 166.992188 146.671875 164.769531 145.945312 160.507812 144.5 C 160.222656 144.433594 160.035156 144.441406 159.9375 144.519531 C 159.707031 144.601562 159.433594 144.976562 159.113281 145.644531 C 158.21875 148.207031 157.355469 150.550781 156.515625 152.679688 C 156.421875 152.929688 156.308594 153.023438 156.175781 152.964844 C 155.789062 152.609375 155.574219 152.09375 155.527344 151.410156 C 155.359375 149.96875 155.265625 147.445312 155.25 143.839844 C 155.253906 143.617188 155.179688 143.347656 155.023438 143.023438 C 154.871094 142.730469 154.628906 142.539062 154.285156 142.449219 C 151.117188 142.253906 149.605469 142.050781 149.746094 141.832031 C 149.757812 141.597656 150.152344 141.320312 150.921875 141.003906 C 153.890625 140.066406 155.511719 139.644531 155.789062 139.734375 L 153.984375 133.179688 " fill-opacity="1" fill-rule="nonzero"/></g></g></g><g clip-path="url(#6542d1cc63)"><g clip-path="url(#116be6eef1)"><g clip-path="url(#20dc637262)"><path fill="#c2c1fe" d="M 219.058594 204.464844 C 218.96875 204.1875 218.851562 203.914062 218.714844 203.648438 C 216.5625 199.5625 215.445312 197.46875 215.355469 197.371094 C 214.542969 195.917969 214.082031 195.335938 213.980469 195.621094 C 213.628906 195.730469 213.4375 196.144531 213.410156 196.871094 C 213.269531 198.144531 213.203125 200.625 213.203125 204.3125 C 213.167969 204.789062 213.078125 205.128906 212.933594 205.335938 C 212.820312 205.511719 212.640625 205.605469 212.394531 205.625 C 211.585938 205.539062 210.078125 205.429688 207.871094 205.304688 C 207.542969 205.289062 207.339844 205.355469 207.273438 205.5 C 207.179688 205.707031 207.320312 205.933594 207.691406 206.191406 C 210.410156 207.988281 212.359375 209.203125 213.53125 209.832031 C 213.691406 209.917969 213.84375 210.085938 214 210.324219 C 214.128906 210.546875 214.171875 210.800781 214.132812 211.09375 C 213.851562 212.625 213.535156 214.269531 213.183594 216.027344 C 213.09375 216.738281 213.101562 217.070312 213.207031 217.039062 C 213.320312 217.410156 214.785156 215.628906 217.605469 211.703125 C 217.921875 211.335938 218.273438 211.113281 218.65625 211.035156 C 218.941406 211.039062 219.164062 211.125 219.324219 211.292969 C 221.535156 213.386719 223.035156 214.785156 223.824219 215.484375 C 224.148438 215.742188 224.410156 215.808594 224.613281 215.683594 C 224.804688 215.652344 224.765625 215.21875 224.5 214.382812 C 224.523438 214.242188 223.859375 212.78125 222.507812 209.988281 C 222.363281 209.632812 222.324219 209.304688 222.390625 209.003906 C 222.492188 208.753906 222.644531 208.585938 222.839844 208.503906 C 224.203125 207.882812 225.644531 207.257812 227.167969 206.628906 L 219.058594 204.464844 " fill-opacity="1" fill-rule="nonzero"/></g></g></g><g clip-path="url(#a8681ea89c)"><g clip-path="url(#30dd217185)"><g clip-path="url(#9241c225f6)"><path fill="#c2c1fe" d="M 310.636719 200.875 L 308.289062 195.675781 C 308.113281 195.257812 308.042969 194.925781 308.078125 194.683594 C 308.089844 194.546875 308.203125 194.375 308.433594 194.167969 C 308.886719 193.753906 310.050781 192.832031 311.929688 191.390625 C 312.183594 191.195312 312.269531 191.066406 312.195312 191.007812 C 312.148438 190.917969 311.851562 190.835938 311.296875 190.765625 C 311.355469 190.789062 309.59375 190.566406 306.007812 190.097656 C 305.769531 190.066406 305.539062 189.949219 305.308594 189.738281 C 305.203125 189.648438 305.074219 189.449219 304.929688 189.136719 L 303.765625 186.195312 L 301.269531 179.449219 C 300.914062 179.058594 300.757812 179.539062 300.808594 180.894531 L 300.988281 191.449219 C 300.90625 191.664062 300.613281 191.875 300.117188 192.082031 C 299.835938 192.191406 298.445312 192.628906 295.945312 193.394531 C 295.625 193.539062 295.460938 193.710938 295.457031 193.914062 C 295.457031 194.050781 295.753906 194.164062 296.351562 194.246094 C 297.351562 194.429688 298.882812 194.625 300.949219 194.832031 C 301.328125 194.875 301.527344 194.949219 301.542969 195.050781 L 299.992188 201.441406 C 299.953125 201.699219 300.03125 201.839844 300.222656 201.863281 C 300.78125 202.214844 302.320312 200.0625 304.84375 195.398438 L 310.636719 200.875 " fill-opacity="1" fill-rule="nonzero"/></g></g></g><g clip-path="url(#dd1176d00a)"><g clip-path="url(#69ff874721)"><g clip-path="url(#69fbf3d437)"><path fill="#c2c1fe" d="M 279.933594 263.8125 C 276.695312 260.933594 275.101562 259.53125 275.148438 259.601562 C 274.570312 259.074219 274.222656 258.863281 274.101562 258.96875 C 273.910156 259.136719 273.898438 259.664062 274.070312 260.546875 C 274.128906 261.195312 274.546875 263.273438 275.320312 266.796875 C 275.378906 267.085938 275.367188 267.347656 275.289062 267.582031 C 275.105469 268.039062 274.6875 268.40625 274.042969 268.691406 C 273.355469 269.085938 272.015625 269.632812 270.019531 270.332031 C 269.78125 270.433594 269.679688 270.539062 269.703125 270.644531 C 270 270.96875 270.621094 271.191406 271.566406 271.3125 C 273.21875 271.386719 274.921875 271.371094 276.675781 271.265625 C 276.929688 271.273438 277.152344 271.34375 277.339844 271.472656 C 277.960938 271.773438 278.523438 273.632812 279.035156 277.046875 C 279.121094 277.375 279.316406 277.5625 279.617188 277.617188 C 279.785156 277.667969 279.972656 277.433594 280.175781 276.921875 C 280.390625 276.332031 280.683594 274.8125 281.054688 272.359375 C 281.128906 272.105469 281.257812 271.917969 281.433594 271.789062 C 281.78125 271.554688 282.378906 271.539062 283.238281 271.734375 L 286.683594 273.058594 C 287.171875 273.148438 287.5 273.042969 287.671875 272.742188 C 287.757812 272.542969 287.683594 272.285156 287.4375 271.972656 C 286.71875 271.132812 285.601562 270.03125 284.078125 268.675781 C 283.800781 268.351562 283.625 267.980469 283.554688 267.570312 C 283.457031 267.011719 283.558594 266.460938 283.863281 265.921875 C 284.269531 265.285156 285.019531 264.375 286.109375 263.183594 L 279.933594 263.8125 " fill-opacity="1" fill-rule="nonzero"/></g></g></g></svg>