<svg xmlns="http://www.w3.org/2000/svg" xmlns:xlink="http://www.w3.org/1999/xlink" width="600" zoomAndPan="magnify" viewBox="0 0 450 149.999998" height="200" preserveAspectRatio="xMidYMid meet" version="1.0"><defs><g/></defs><g fill="#e8bffb" fill-opacity="1"><g transform="translate(13.692856, 88.241185)"><g><path d="M 11.921875 -21.382812 C 4.390625 -23.265625 5.59375 -27.34375 8.679688 -27.34375 C 12.285156 -27.34375 14.429688 -20.078125 18.558594 -20.078125 C 23.054688 -20.078125 24.050781 -25.773438 24.050781 -28.285156 L 22.691406 -28.285156 C 22.691406 -26.714844 20.964844 -25.933594 18.980469 -25.933594 C 15.320312 -25.933594 13.4375 -28.652344 8.679688 -28.652344 C 4.496094 -28.652344 0.835938 -24.363281 0.992188 -19.867188 C 1.148438 -13.90625 6.378906 -10.613281 11.292969 -9.671875 C 17.097656 -8.574219 18.980469 -6.328125 19.449219 -4.339844 C 19.867188 -2.507812 18.71875 -1.253906 17.410156 -1.148438 C 13.75 -0.835938 13.800781 -9.777344 7.003906 -9.777344 C 1.464844 -9.777344 1.308594 -2.5625 1.308594 0 L 2.613281 0 C 2.613281 -1.933594 3.660156 -3.03125 5.855469 -3.03125 C 9.464844 -3.03125 10.824219 0.367188 15.582031 0.367188 C 22.167969 0.367188 24.574219 -4.546875 24.730469 -9.566406 C 24.9375 -16.207031 19.867188 -19.34375 11.921875 -21.382812 Z M 11.921875 -21.382812 "/></g></g></g><g fill="#e8bffb" fill-opacity="1"><g transform="translate(46.942044, 88.241185)"><g><path d="M 16.574219 -28.652344 C 7.214844 -28.652344 0.941406 -22.691406 0.941406 -14.167969 C 0.941406 -5.59375 7.214844 0.367188 16.574219 0.367188 C 25.878906 0.367188 32.152344 -5.59375 32.152344 -14.167969 C 32.152344 -22.691406 25.878906 -28.652344 16.574219 -28.652344 Z M 23.996094 -2.40625 C 21.015625 -0.523438 17.097656 -4.707031 12.652344 -11.660156 C 8.207031 -18.664062 6.117188 -23.996094 9.097656 -25.933594 C 12.078125 -27.8125 16 -23.632812 20.441406 -16.625 C 24.835938 -9.671875 27.03125 -4.289062 23.996094 -2.40625 Z M 23.996094 -2.40625 "/></g></g></g><g fill="#e8bffb" fill-opacity="1"><g transform="translate(87.614613, 88.241185)"><g><path d="M 30.21875 -9.042969 C 25.355469 -2.25 19.238281 -1.203125 12.652344 -11.660156 C 8.207031 -18.664062 5.855469 -24.414062 9.097656 -25.933594 C 14.117188 -28.285156 12.652344 -15.320312 21.4375 -15.320312 C 28.234375 -15.320312 30.113281 -22.535156 29.332031 -28.285156 L 28.179688 -28.285156 C 28.179688 -25.933594 27.65625 -24.519531 25.722656 -24.519531 C 23.109375 -24.519531 20.703125 -28.652344 15.839844 -28.652344 C 7.632812 -28.652344 0.941406 -22.691406 0.941406 -14.167969 C 0.941406 -5.59375 7.214844 0.367188 16.519531 0.367188 C 24.46875 0.367188 27.917969 -3.085938 31.316406 -8.261719 Z M 30.21875 -9.042969 "/></g></g></g><g fill="#e8bffb" fill-opacity="1"><g transform="translate(125.621034, 88.241185)"><g><path d="M 1.203125 0 L 12.652344 0 L 12.652344 -17.984375 C 12.652344 -21.695312 9.515625 -21.695312 6.746094 -22.117188 C 3.765625 -22.585938 2.039062 -23.476562 1.203125 -24.574219 Z M 13.644531 -29.59375 C 13.644531 -33.304688 10.980469 -35.867188 6.953125 -35.867188 C 2.929688 -35.867188 0.261719 -33.304688 0.261719 -29.59375 C 0.261719 -25.933594 2.929688 -23.371094 6.953125 -23.371094 C 10.980469 -23.371094 13.644531 -25.933594 13.644531 -29.59375 Z M 13.644531 -29.59375 "/></g></g></g><g fill="#e8bffb" fill-opacity="1"><g transform="translate(147.055543, 88.241185)"><g><path d="M 19.03125 -28.652344 C 13.019531 -28.652344 9.722656 -24.886719 6.429688 -24.886719 C 4.707031 -24.886719 4.128906 -26.351562 4.128906 -28.285156 L 2.769531 -28.285156 C 1.828125 -19.605469 3.972656 -16.886719 8.417969 -16.886719 C 15.214844 -16.886719 12.808594 -26.035156 16.261719 -27.03125 C 19.554688 -27.972656 21.175781 -25.671875 19.917969 -16.207031 C 18.558594 -16.363281 17.097656 -16.417969 15.476562 -16.417969 C 5.699219 -16.417969 0.941406 -13.542969 0.941406 -8.105469 C 0.941406 -2.71875 5.175781 0.210938 14.480469 0.210938 C 18.875 0.210938 20.234375 -1.203125 20.546875 -3.1875 C 24.625 3.292969 34.402344 -0.730469 38.0625 -5.59375 L 37.277344 -6.429688 C 35.605469 -4.757812 33.878906 -4.390625 32.519531 -5.59375 C 30.480469 -7.371094 30.742188 -10.300781 31.421875 -14.480469 C 32.730469 -22.636719 28.023438 -28.652344 19.03125 -28.652344 Z M 19.1875 -9.148438 C 19.1875 -5.960938 19.605469 -2.351562 18.351562 -1.777344 C 16.3125 -0.785156 14.0625 -2.300781 12.183594 -7.058594 C 10.71875 -10.664062 10.980469 -13.59375 13.019531 -14.585938 C 14.480469 -15.320312 17.042969 -15.371094 19.761719 -15.003906 L 19.761719 -14.796875 C 19.449219 -12.863281 19.238281 -10.925781 19.1875 -9.148438 Z M 19.1875 -9.148438 "/></g></g></g><g fill="#e8bffb" fill-opacity="1"><g transform="translate(187.205329, 88.241185)"><g><path d="M 1.046875 -35.449219 L 1.046875 0 L 12.496094 0 L 12.496094 -27.03125 C 12.496094 -33.828125 2.351562 -28.179688 2.351562 -35.449219 Z M 1.046875 -35.449219 "/></g></g></g><g fill="#e8bffb" fill-opacity="1"><g transform="translate(208.317848, 88.241185)"><g/></g></g><g fill="#e8bffb" fill-opacity="1"><g transform="translate(229.700084, 88.241185)"><g/></g></g><g fill="#e8bffb" fill-opacity="1"><g transform="translate(251.079561, 88.241185)"><g><path d="M 1.203125 -28.285156 L 1.203125 0 L 12.652344 0 L 12.652344 -20.914062 C 12.703125 -23.476562 13.019531 -25.410156 14.640625 -26.035156 C 17.042969 -26.925781 19.1875 -25.515625 17.566406 -14.796875 C 16.886719 -10.195312 16.417969 -5.699219 18.925781 -2.507812 C 22.847656 2.457031 29.277344 0.0507812 33.148438 -3.398438 L 32.570312 -4.445312 C 28.074219 -1.828125 28.234375 -7.945312 29.277344 -14.480469 C 29.644531 -16.78125 29.59375 -18.925781 29.121094 -20.808594 C 28.914062 -23.160156 29.332031 -25.199219 31.578125 -26.035156 C 33.984375 -26.925781 36.128906 -25.515625 34.507812 -14.796875 C 33.828125 -10.195312 33.304688 -5.699219 35.8125 -2.507812 C 40.257812 3.03125 49.300781 -0.992188 52.804688 -5.59375 L 52.019531 -6.429688 C 50.347656 -4.757812 48.621094 -4.390625 47.261719 -5.59375 C 45.222656 -7.371094 45.539062 -10.300781 46.164062 -14.480469 C 47.472656 -22.636719 43.707031 -28.652344 34.664062 -28.652344 C 31.371094 -28.652344 29.277344 -26.558594 26.769531 -25.304688 C 24.835938 -27.394531 21.800781 -28.652344 17.777344 -28.652344 C 13.488281 -28.652344 11.242188 -25.148438 7.632812 -24.363281 C 4.757812 -23.996094 2.507812 -24.3125 2.507812 -28.285156 Z M 1.203125 -28.285156 "/></g></g></g><g fill="#e8bffb" fill-opacity="1"><g transform="translate(306.076115, 88.241185)"><g><path d="M 11.921875 -12.757812 C 30.742188 -17.359375 30.324219 -28.652344 16.519531 -28.652344 C 7.164062 -28.652344 0.890625 -22.691406 0.890625 -14.167969 C 0.890625 -5.59375 7.164062 0.367188 16.519531 0.367188 C 24.46875 0.367188 27.761719 -2.300781 32.207031 -7.371094 C 31.890625 -7.683594 31.578125 -8.050781 31.210938 -8.363281 C 25.199219 -1.726562 18.664062 -2.089844 12.601562 -11.660156 C 12.339844 -12.023438 12.128906 -12.390625 11.921875 -12.757812 Z M 16.363281 -22.691406 C 19.082031 -18.300781 15.632812 -14.742188 11.242188 -13.855469 C 7.789062 -19.761719 6.378906 -24.207031 9.042969 -25.933594 C 11.03125 -27.1875 14.167969 -26.246094 16.363281 -22.691406 Z M 16.363281 -22.691406 "/></g></g></g><g fill="#e8bffb" fill-opacity="1"><g transform="translate(341.207283, 88.241185)"><g><path d="M 16.417969 0.367188 C 20.652344 0.367188 24.15625 -3.921875 27.292969 -3.921875 C 29.070312 -3.921875 31.003906 -3.765625 31.003906 0 L 32.3125 0 L 32.3125 -27.03125 C 32.3125 -33.828125 22.167969 -28.179688 22.167969 -35.449219 L 20.859375 -35.449219 L 20.859375 -26.195312 C 18.664062 -27.972656 16.417969 -28.652344 14.953125 -28.652344 C 8.992188 -28.652344 0.941406 -22.691406 0.941406 -14.167969 C 0.941406 -5.59375 7.058594 0.367188 16.417969 0.367188 Z M 19.554688 -1.777344 C 17.148438 -0.523438 12.863281 -6.167969 11.398438 -12.339844 C 9.984375 -18.351562 9.464844 -23.996094 12.441406 -25.933594 C 14.691406 -27.34375 17.984375 -26.558594 20.859375 -23.160156 L 20.859375 -8.261719 C 20.859375 -4.808594 20.914062 -2.507812 19.554688 -1.777344 Z M 19.554688 -1.777344 "/></g></g></g><g fill="#e8bffb" fill-opacity="1"><g transform="translate(382.298058, 88.241185)"><g><path d="M 1.203125 0 L 12.652344 0 L 12.652344 -17.984375 C 12.652344 -21.695312 9.515625 -21.695312 6.746094 -22.117188 C 3.765625 -22.585938 2.039062 -23.476562 1.203125 -24.574219 Z M 13.644531 -29.59375 C 13.644531 -33.304688 10.980469 -35.867188 6.953125 -35.867188 C 2.929688 -35.867188 0.261719 -33.304688 0.261719 -29.59375 C 0.261719 -25.933594 2.929688 -23.371094 6.953125 -23.371094 C 10.980469 -23.371094 13.644531 -25.933594 13.644531 -29.59375 Z M 13.644531 -29.59375 "/></g></g></g><g fill="#e8bffb" fill-opacity="1"><g transform="translate(403.732567, 88.241185)"><g><path d="M 19.03125 -28.652344 C 13.019531 -28.652344 9.722656 -24.886719 6.429688 -24.886719 C 4.707031 -24.886719 4.128906 -26.351562 4.128906 -28.285156 L 2.769531 -28.285156 C 1.828125 -19.605469 3.972656 -16.886719 8.417969 -16.886719 C 15.214844 -16.886719 12.808594 -26.035156 16.261719 -27.03125 C 19.554688 -27.972656 21.175781 -25.671875 19.917969 -16.207031 C 18.558594 -16.363281 17.097656 -16.417969 15.476562 -16.417969 C 5.699219 -16.417969 0.941406 -13.542969 0.941406 -8.105469 C 0.941406 -2.71875 5.175781 0.210938 14.480469 0.210938 C 18.875 0.210938 20.234375 -1.203125 20.546875 -3.1875 C 24.625 3.292969 34.402344 -0.730469 38.0625 -5.59375 L 37.277344 -6.429688 C 35.605469 -4.757812 33.878906 -4.390625 32.519531 -5.59375 C 30.480469 -7.371094 30.742188 -10.300781 31.421875 -14.480469 C 32.730469 -22.636719 28.023438 -28.652344 19.03125 -28.652344 Z M 19.1875 -9.148438 C 19.1875 -5.960938 19.605469 -2.351562 18.351562 -1.777344 C 16.3125 -0.785156 14.0625 -2.300781 12.183594 -7.058594 C 10.71875 -10.664062 10.980469 -13.59375 13.019531 -14.585938 C 14.480469 -15.320312 17.042969 -15.371094 19.761719 -15.003906 L 19.761719 -14.796875 C 19.449219 -12.863281 19.238281 -10.925781 19.1875 -9.148438 Z M 19.1875 -9.148438 "/></g></g></g></svg>